<?xml version="1.0" encoding="UTF-8" standalone="no"?>
<!DOCTYPE svg PUBLIC "-//W3C//DTD SVG 1.1//EN"
 "http://www.w3.org/Graphics/SVG/1.1/DTD/svg11.dtd">
<!-- Generated by graphviz version 2.40.1 (20161225.0304)
 -->
<!-- Title: G Pages: 1 -->
<svg width="395pt" height="824pt"
 viewBox="0.00 0.00 395.28 824.00" xmlns="http://www.w3.org/2000/svg" xmlns:xlink="http://www.w3.org/1999/xlink">
<g id="graph0" class="graph" transform="scale(1 1) rotate(0) translate(4 820)">
<title>G</title>
<polygon fill="#ffffff" stroke="transparent" points="-4,4 -4,-820 391.2815,-820 391.2815,4 -4,4"/>
<!-- A0 -->
<g id="node1" class="node">
<title>A0</title>
<ellipse fill="none" stroke="#000000" cx="299.2925" cy="-805" rx="11" ry="11"/>
</g>
<!-- A1 -->
<g id="node2" class="node">
<title>A1</title>
<path fill="none" stroke="#000000" d="M375.2705,-746C375.2705,-746 223.3145,-746 223.3145,-746 217.3145,-746 211.3145,-740 211.3145,-734 211.3145,-734 211.3145,-722 211.3145,-722 211.3145,-716 217.3145,-710 223.3145,-710 223.3145,-710 375.2705,-710 375.2705,-710 381.2705,-710 387.2705,-716 387.2705,-722 387.2705,-722 387.2705,-734 387.2705,-734 387.2705,-740 381.2705,-746 375.2705,-746"/>
<text text-anchor="middle" x="299.2925" y="-725" font-family="Helvetica,sans-Serif" font-size="10.00" fill="#000000">与申请对象间是否存在会话?</text>
</g>
<!-- A0&#45;&gt;A1 -->
<g id="edge1" class="edge">
<title>A0&#45;&gt;A1</title>
<path fill="none" stroke="#000000" d="M299.2925,-793.9678C299.2925,-784.124 299.2925,-769.2813 299.2925,-756.1664"/>
<polygon fill="#000000" stroke="#000000" points="299.2925,-746.1474 303.7926,-756.1473 299.2925,-751.1474 299.2926,-756.1474 299.2926,-756.1474 299.2926,-756.1474 299.2925,-751.1474 294.7926,-756.1474 299.2925,-746.1474 299.2925,-746.1474"/>
<text text-anchor="middle" x="335.039" y="-767" font-family="Helvetica,sans-Serif" font-size="10.00" fill="#000000">时隙需求信息</text>
</g>
<!-- A2 -->
<g id="node3" class="node">
<title>A2</title>
<path fill="none" stroke="#000000" d="M264.0859,-662C264.0859,-662 232.4991,-662 232.4991,-662 226.4991,-662 220.4991,-656 220.4991,-650 220.4991,-650 220.4991,-638 220.4991,-638 220.4991,-632 226.4991,-626 232.4991,-626 232.4991,-626 264.0859,-626 264.0859,-626 270.0859,-626 276.0859,-632 276.0859,-638 276.0859,-638 276.0859,-650 276.0859,-650 276.0859,-656 270.0859,-662 264.0859,-662"/>
<text text-anchor="middle" x="248.2925" y="-641" font-family="Helvetica,sans-Serif" font-size="10.00" fill="#000000">类型?</text>
</g>
<!-- A1&#45;&gt;A2 -->
<g id="edge2" class="edge">
<title>A1&#45;&gt;A2</title>
<path fill="none" stroke="#000000" d="M288.2263,-709.7733C281.3426,-698.4355 272.3666,-683.6515 264.6685,-670.9723"/>
<polygon fill="#000000" stroke="#000000" points="259.3371,-662.1912 268.3735,-668.4036 261.9321,-666.4651 264.527,-670.7391 264.527,-670.7391 264.527,-670.7391 261.9321,-666.4651 260.6804,-673.0745 259.3371,-662.1912 259.3371,-662.1912"/>
<text text-anchor="middle" x="279.902" y="-683" font-family="Helvetica,sans-Serif" font-size="10.00" fill="#000000">N</text>
</g>
<!-- A3 -->
<g id="node4" class="node">
<title>A3</title>
<ellipse fill="none" stroke="#000000" cx="258.2925" cy="-15" rx="11" ry="11"/>
<ellipse fill="none" stroke="#000000" cx="258.2925" cy="-15" rx="15" ry="15"/>
</g>
<!-- A1&#45;&gt;A3 -->
<g id="edge3" class="edge">
<title>A1&#45;&gt;A3</title>
<path fill="none" stroke="#000000" d="M317.9107,-709.8151C332.1264,-693.9207 349.2925,-669.457 349.2925,-644 349.2925,-644 349.2925,-644 349.2925,-85 349.2925,-51.2424 309.4634,-31.5135 282.5052,-22.0263"/>
<polygon fill="#000000" stroke="#000000" points="272.9132,-18.8837 283.8173,-17.7208 277.6647,-20.4405 282.4162,-21.9972 282.4162,-21.9972 282.4162,-21.9972 277.6647,-20.4405 281.0152,-26.2735 272.9132,-18.8837 272.9132,-18.8837"/>
<text text-anchor="middle" x="352.627" y="-369" font-family="Helvetica,sans-Serif" font-size="10.00" fill="#000000">Y</text>
</g>
<!-- A4 -->
<g id="node5" class="node">
<title>A4</title>
<path fill="none" stroke="#000000" d="M144.378,-578C144.378,-578 12.207,-578 12.207,-578 6.207,-578 .207,-572 .207,-566 .207,-566 .207,-554 .207,-554 .207,-548 6.207,-542 12.207,-542 12.207,-542 144.378,-542 144.378,-542 150.378,-542 156.378,-548 156.378,-554 156.378,-554 156.378,-566 156.378,-566 156.378,-572 150.378,-578 144.378,-578"/>
<text text-anchor="middle" x="78.2925" y="-563" font-family="Helvetica,sans-Serif" font-size="10.00" fill="#000000">释放指定时隙</text>
<text text-anchor="middle" x="78.2925" y="-551" font-family="Helvetica,sans-Serif" font-size="10.00" fill="#000000">将已释放的时隙标记为空闲</text>
</g>
<!-- A2&#45;&gt;A4 -->
<g id="edge4" class="edge">
<title>A2&#45;&gt;A4</title>
<path fill="none" stroke="#000000" d="M220.2205,-630.1291C194.1536,-617.249 154.8674,-597.837 124.2319,-582.6994"/>
<polygon fill="#000000" stroke="#000000" points="115.0262,-578.1508 125.985,-578.5464 119.5089,-580.3658 123.9915,-582.5807 123.9915,-582.5807 123.9915,-582.5807 119.5089,-580.3658 121.998,-586.6151 115.0262,-578.1508 115.0262,-578.1508"/>
<text text-anchor="middle" x="197.2615" y="-599" font-family="Helvetica,sans-Serif" font-size="10.00" fill="#000000">释放时隙</text>
</g>
<!-- A6 -->
<g id="node7" class="node">
<title>A6</title>
<path fill="none" stroke="#000000" d="M309.5307,-578C309.5307,-578 187.0543,-578 187.0543,-578 181.0543,-578 175.0543,-572 175.0543,-566 175.0543,-566 175.0543,-554 175.0543,-554 175.0543,-548 181.0543,-542 187.0543,-542 187.0543,-542 309.5307,-542 309.5307,-542 315.5307,-542 321.5307,-548 321.5307,-554 321.5307,-554 321.5307,-566 321.5307,-566 321.5307,-572 315.5307,-578 309.5307,-578"/>
<text text-anchor="middle" x="248.2925" y="-563" font-family="Helvetica,sans-Serif" font-size="10.00" fill="#000000">在空闲时隙中选取时隙</text>
<text text-anchor="middle" x="248.2925" y="-551" font-family="Helvetica,sans-Serif" font-size="10.00" fill="#000000">将备选时隙标记为预占用</text>
</g>
<!-- A2&#45;&gt;A6 -->
<g id="edge6" class="edge">
<title>A2&#45;&gt;A6</title>
<path fill="none" stroke="#000000" d="M248.2925,-625.7733C248.2925,-614.8758 248.2925,-600.7946 248.2925,-588.4587"/>
<polygon fill="#000000" stroke="#000000" points="248.2925,-578.1912 252.7926,-588.1911 248.2925,-583.1912 248.2926,-588.1912 248.2926,-588.1912 248.2926,-588.1912 248.2925,-583.1912 243.7926,-588.1912 248.2925,-578.1912 248.2925,-578.1912"/>
<text text-anchor="middle" x="273.012" y="-599" font-family="Helvetica,sans-Serif" font-size="10.00" fill="#000000">申请时隙</text>
</g>
<!-- A5 -->
<g id="node6" class="node">
<title>A5</title>
<path fill="none" stroke="#000000" d="M280.9356,-505C280.9356,-505 135.6494,-505 135.6494,-505 129.6494,-505 123.6494,-499 123.6494,-493 123.6494,-493 123.6494,-481 123.6494,-481 123.6494,-475 129.6494,-469 135.6494,-469 135.6494,-469 280.9356,-469 280.9356,-469 286.9356,-469 292.9356,-475 292.9356,-481 292.9356,-481 292.9356,-493 292.9356,-493 292.9356,-499 286.9356,-505 280.9356,-505"/>
<text text-anchor="middle" x="208.2925" y="-490" font-family="Helvetica,sans-Serif" font-size="10.00" fill="#000000">建立会话s并设定超时t_exp</text>
<text text-anchor="middle" x="208.2925" y="-478" font-family="Helvetica,sans-Serif" font-size="10.00" fill="#000000">创建时隙控制信令req</text>
</g>
<!-- A4&#45;&gt;A5 -->
<g id="edge5" class="edge">
<title>A4&#45;&gt;A5</title>
<path fill="none" stroke="#000000" d="M110.4273,-541.9551C127.6151,-532.3035 148.9633,-520.3156 167.3308,-510.0016"/>
<polygon fill="#000000" stroke="#000000" points="176.0768,-505.0904 169.5608,-513.9104 171.7171,-507.5385 167.3574,-509.9867 167.3574,-509.9867 167.3574,-509.9867 171.7171,-507.5385 165.1541,-506.0629 176.0768,-505.0904 176.0768,-505.0904"/>
</g>
<!-- A9 -->
<g id="node10" class="node">
<title>A9</title>
<path fill="none" stroke="#000000" d="M228.4136,-432C228.4136,-432 188.1714,-432 188.1714,-432 182.1714,-432 176.1714,-426 176.1714,-420 176.1714,-420 176.1714,-408 176.1714,-408 176.1714,-402 182.1714,-396 188.1714,-396 188.1714,-396 228.4136,-396 228.4136,-396 234.4136,-396 240.4136,-402 240.4136,-408 240.4136,-408 240.4136,-420 240.4136,-420 240.4136,-426 234.4136,-432 228.4136,-432"/>
<text text-anchor="middle" x="208.2925" y="-411" font-family="Helvetica,sans-Serif" font-size="10.00" fill="#000000">发送req</text>
</g>
<!-- A5&#45;&gt;A9 -->
<g id="edge9" class="edge">
<title>A5&#45;&gt;A9</title>
<path fill="none" stroke="#000000" d="M208.2925,-468.9551C208.2925,-460.8828 208.2925,-451.1764 208.2925,-442.1817"/>
<polygon fill="#000000" stroke="#000000" points="208.2925,-432.0904 212.7926,-442.0903 208.2925,-437.0904 208.2926,-442.0904 208.2926,-442.0904 208.2926,-442.0904 208.2925,-437.0904 203.7926,-442.0904 208.2925,-432.0904 208.2925,-432.0904"/>
</g>
<!-- A6&#45;&gt;A5 -->
<g id="edge7" class="edge">
<title>A6&#45;&gt;A5</title>
<path fill="none" stroke="#000000" d="M238.4049,-541.9551C233.7894,-533.5319 228.1989,-523.3292 223.094,-514.0128"/>
<polygon fill="#000000" stroke="#000000" points="218.205,-505.0904 226.9568,-511.6977 220.6077,-509.4752 223.0104,-513.8601 223.0104,-513.8601 223.0104,-513.8601 220.6077,-509.4752 219.064,-516.0226 218.205,-505.0904 218.205,-505.0904"/>
</g>
<!-- A7 -->
<g id="node8" class="node">
<title>A7</title>
<polygon fill="#d3d3d3" stroke="#000000" stroke-width="4" points="190.2925,-343.5 190.2925,-347.5 226.2925,-347.5 226.2925,-343.5 190.2925,-343.5"/>
<text text-anchor="middle" x="207.9315" y="-345.2" font-family="Helvetica,sans-Serif" font-size="1.00" fill="#000000"> </text>
</g>
<!-- A8 -->
<g id="node9" class="node">
<title>A8</title>
<path fill="none" stroke="#000000" d="M220.4266,-295C220.4266,-295 140.1584,-295 140.1584,-295 134.1584,-295 128.1584,-289 128.1584,-283 128.1584,-283 128.1584,-271 128.1584,-271 128.1584,-265 134.1584,-259 140.1584,-259 140.1584,-259 220.4266,-259 220.4266,-259 226.4266,-259 232.4266,-265 232.4266,-271 232.4266,-271 232.4266,-283 232.4266,-283 232.4266,-289 226.4266,-295 220.4266,-295"/>
<text text-anchor="middle" x="180.2925" y="-274" font-family="Helvetica,sans-Serif" font-size="10.00" fill="#000000">是否存在会话?</text>
</g>
<!-- A7&#45;&gt;A8 -->
<g id="edge8" class="edge">
<title>A7&#45;&gt;A8</title>
<path fill="none" stroke="#000000" d="M203.3747,-343.4601C196.917,-340.481 185.8476,-334.2664 181.1305,-325 178.1033,-319.0533 176.8876,-312.1313 176.6464,-305.4258"/>
<polygon fill="#000000" stroke="#000000" points="176.9493,-295.2379 181.1501,-305.3673 176.8007,-300.2357 176.6521,-305.2335 176.6521,-305.2335 176.6521,-305.2335 176.8007,-300.2357 172.154,-305.0997 176.9493,-295.2379 176.9493,-295.2379"/>
<text text-anchor="middle" x="217.8735" y="-316" font-family="Helvetica,sans-Serif" font-size="10.00" fill="#000000">接收到ACK信令</text>
</g>
<!-- A10 -->
<g id="node11" class="node">
<title>A10</title>
<path fill="none" stroke="#000000" d="M322.5318,-241C322.5318,-241 230.0532,-241 230.0532,-241 224.0532,-241 218.0532,-235 218.0532,-229 218.0532,-229 218.0532,-217 218.0532,-217 218.0532,-211 224.0532,-205 230.0532,-205 230.0532,-205 322.5318,-205 322.5318,-205 328.5318,-205 334.5318,-211 334.5318,-217 334.5318,-217 334.5318,-229 334.5318,-229 334.5318,-235 328.5318,-241 322.5318,-241"/>
<text text-anchor="middle" x="276.2925" y="-220" font-family="Helvetica,sans-Serif" font-size="10.00" fill="#000000">解除时隙预占用</text>
</g>
<!-- A7&#45;&gt;A10 -->
<g id="edge11" class="edge">
<title>A7&#45;&gt;A10</title>
<path fill="none" stroke="#000000" d="M219.9303,-343.4067C230.4941,-340.8847 245.6949,-335.5885 254.2925,-325 271.0732,-304.3334 275.8378,-273.7828 276.8522,-251.5058"/>
<polygon fill="#000000" stroke="#000000" points="277.0851,-241.3139 281.3553,-251.4142 276.9708,-246.3126 276.8565,-251.3113 276.8565,-251.3113 276.8565,-251.3113 276.9708,-246.3126 272.3577,-251.2085 277.0851,-241.3139 277.0851,-241.3139"/>
<text text-anchor="middle" x="288.0575" y="-316" font-family="Helvetica,sans-Serif" font-size="10.00" fill="#000000">会话超时</text>
</g>
<!-- A8&#45;&gt;A3 -->
<g id="edge16" class="edge">
<title>A8&#45;&gt;A3</title>
<path fill="none" stroke="#000000" d="M155.4882,-258.5942C126.5912,-234.7385 84.9937,-191.3998 103.2925,-151 130.5652,-90.7878 199.1287,-46.6841 235.2334,-26.775"/>
<polygon fill="#000000" stroke="#000000" points="244.4948,-21.8079 237.8091,-30.5 240.0885,-24.1711 235.6822,-26.5344 235.6822,-26.5344 235.6822,-26.5344 240.0885,-24.1711 233.5553,-22.5687 244.4948,-21.8079 244.4948,-21.8079"/>
<text text-anchor="middle" x="135.183" y="-124" font-family="Helvetica,sans-Serif" font-size="10.00" fill="#000000">不存在</text>
</g>
<!-- A12 -->
<g id="node13" class="node">
<title>A12</title>
<path fill="none" stroke="#000000" d="M267.9618,-187C267.9618,-187 124.6232,-187 124.6232,-187 118.6232,-187 112.6232,-181 112.6232,-175 112.6232,-175 112.6232,-163 112.6232,-163 112.6232,-157 118.6232,-151 124.6232,-151 124.6232,-151 267.9618,-151 267.9618,-151 273.9618,-151 279.9618,-157 279.9618,-163 279.9618,-163 279.9618,-175 279.9618,-175 279.9618,-181 273.9618,-187 267.9618,-187"/>
<text text-anchor="middle" x="196.2925" y="-172" font-family="Helvetica,sans-Serif" font-size="10.00" fill="#000000">根据回复情更改预占用时隙状态</text>
<text text-anchor="middle" x="196.2925" y="-160" font-family="Helvetica,sans-Serif" font-size="10.00" fill="#000000">更新时隙分配表</text>
</g>
<!-- A8&#45;&gt;A12 -->
<g id="edge13" class="edge">
<title>A8&#45;&gt;A12</title>
<path fill="none" stroke="#000000" d="M182.2094,-258.9022C183.8376,-244.3125 186.3707,-223.2865 189.2885,-205 189.6923,-202.4692 190.1423,-199.8443 190.6139,-197.2175"/>
<polygon fill="#000000" stroke="#000000" points="192.4885,-187.2715 195.0584,-197.9319 191.5624,-192.185 190.6363,-197.0985 190.6363,-197.0985 190.6363,-197.0985 191.5624,-192.185 186.2141,-196.265 192.4885,-187.2715 192.4885,-187.2715"/>
<text text-anchor="middle" x="199.2945" y="-220" font-family="Helvetica,sans-Serif" font-size="10.00" fill="#000000">存在</text>
</g>
<!-- A9&#45;&gt;A7 -->
<g id="edge10" class="edge">
<title>A9&#45;&gt;A7:n</title>
<path fill="none" stroke="#000000" d="M208.2925,-395.9363C208.2925,-385.2783 208.2925,-371.2594 208.2925,-357.7081"/>
<polygon fill="#000000" stroke="#000000" points="208.2925,-347.5 212.7926,-357.5 208.2925,-352.5 208.2926,-357.5 208.2926,-357.5 208.2926,-357.5 208.2925,-352.5 203.7926,-357.5 208.2925,-347.5 208.2925,-347.5"/>
</g>
<!-- A11 -->
<g id="node12" class="node">
<title>A11</title>
<path fill="none" stroke="#000000" d="M285.2539,-103C285.2539,-103 231.3311,-103 231.3311,-103 225.3311,-103 219.3311,-97 219.3311,-91 219.3311,-91 219.3311,-79 219.3311,-79 219.3311,-73 225.3311,-67 231.3311,-67 231.3311,-67 285.2539,-67 285.2539,-67 291.2539,-67 297.2539,-73 297.2539,-79 297.2539,-79 297.2539,-91 297.2539,-91 297.2539,-97 291.2539,-103 285.2539,-103"/>
<text text-anchor="middle" x="258.2925" y="-82" font-family="Helvetica,sans-Serif" font-size="10.00" fill="#000000">删除会话</text>
</g>
<!-- A10&#45;&gt;A11 -->
<g id="edge12" class="edge">
<title>A10&#45;&gt;A11</title>
<path fill="none" stroke="#000000" d="M284.3014,-204.6508C286.3486,-199.0893 288.2614,-192.891 289.2925,-187 292.051,-171.2396 292.7772,-166.6159 289.2925,-151 286.3199,-137.6793 280.3529,-123.8726 274.4409,-112.3518"/>
<polygon fill="#000000" stroke="#000000" points="269.5546,-103.2729 278.2564,-109.9459 271.9242,-107.6757 274.2938,-112.0786 274.2938,-112.0786 274.2938,-112.0786 271.9242,-107.6757 270.3313,-114.2112 269.5546,-103.2729 269.5546,-103.2729"/>
</g>
<!-- A11&#45;&gt;A3 -->
<g id="edge15" class="edge">
<title>A11&#45;&gt;A3</title>
<path fill="none" stroke="#000000" d="M258.2925,-66.9733C258.2925,-58.9095 258.2925,-49.2597 258.2925,-40.4761"/>
<polygon fill="#000000" stroke="#000000" points="258.2925,-30.3564 262.7926,-40.3563 258.2925,-35.3564 258.2926,-40.3564 258.2926,-40.3564 258.2926,-40.3564 258.2925,-35.3564 253.7926,-40.3564 258.2925,-30.3564 258.2925,-30.3564"/>
</g>
<!-- A12&#45;&gt;A11 -->
<g id="edge14" class="edge">
<title>A12&#45;&gt;A11</title>
<path fill="none" stroke="#000000" d="M209.7456,-150.7733C218.1952,-139.3254 229.238,-124.3641 238.6565,-111.6036"/>
<polygon fill="#000000" stroke="#000000" points="244.8657,-103.1912 242.5477,-113.9093 241.8964,-107.2141 238.9271,-111.2369 238.9271,-111.2369 238.9271,-111.2369 241.8964,-107.2141 235.3065,-108.5646 244.8657,-103.1912 244.8657,-103.1912"/>
</g>
</g>
</svg>
