<?xml version="1.0" encoding="UTF-8" standalone="no"?>
<!DOCTYPE svg PUBLIC "-//W3C//DTD SVG 1.1//EN"
 "http://www.w3.org/Graphics/SVG/1.1/DTD/svg11.dtd">
<!-- Generated by graphviz version 2.40.1 (20161225.0304)
 -->
<!-- Title: G Pages: 1 -->
<svg width="376pt" height="635pt"
 viewBox="0.00 0.00 375.65 635.00" xmlns="http://www.w3.org/2000/svg" xmlns:xlink="http://www.w3.org/1999/xlink">
<g id="graph0" class="graph" transform="scale(1 1) rotate(0) translate(4 631)">
<title>G</title>
<polygon fill="#ffffff" stroke="transparent" points="-4,4 -4,-631 371.6455,-631 371.6455,4 -4,4"/>
<!-- A0 -->
<g id="node1" class="node">
<title>A0</title>
<ellipse fill="none" stroke="#000000" cx="270.225" cy="-616" rx="11" ry="11"/>
</g>
<!-- A1 -->
<g id="node2" class="node">
<title>A1</title>
<path fill="none" stroke="#000000" d="M256.612,-557C256.612,-557 203.838,-557 203.838,-557 197.838,-557 191.838,-551 191.838,-545 191.838,-545 191.838,-533 191.838,-533 191.838,-527 197.838,-521 203.838,-521 203.838,-521 256.612,-521 256.612,-521 262.612,-521 268.612,-527 268.612,-533 268.612,-533 268.612,-545 268.612,-545 268.612,-551 262.612,-557 256.612,-557"/>
<text text-anchor="middle" x="230.225" y="-536" font-family="Helvetica,sans-Serif" font-size="10.00" fill="#000000">时隙i为空?</text>
</g>
<!-- A0&#45;&gt;A1 -->
<g id="edge1" class="edge">
<title>A0&#45;&gt;A1</title>
<path fill="none" stroke="#000000" d="M260.5956,-610.4154C252.8101,-605.3511 242.2728,-597.137 236.786,-587 233.5806,-581.0779 231.7384,-574.1652 230.7203,-567.4607"/>
<polygon fill="#000000" stroke="#000000" points="229.7212,-557.2688 235.1754,-566.782 230.2091,-562.2449 230.6969,-567.2211 230.6969,-567.2211 230.6969,-567.2211 230.2091,-562.2449 226.2184,-567.6601 229.7212,-557.2688 229.7212,-557.2688"/>
<text text-anchor="middle" x="261.9445" y="-578" font-family="Helvetica,sans-Serif" font-size="10.00" fill="#000000">申请时隙</text>
</g>
<!-- A2 -->
<g id="node3" class="node">
<title>A2</title>
<path fill="none" stroke="#000000" d="M355.5661,-503C355.5661,-503 276.8839,-503 276.8839,-503 270.8839,-503 264.8839,-497 264.8839,-491 264.8839,-491 264.8839,-479 264.8839,-479 264.8839,-473 270.8839,-467 276.8839,-467 276.8839,-467 355.5661,-467 355.5661,-467 361.5661,-467 367.5661,-473 367.5661,-479 367.5661,-479 367.5661,-491 367.5661,-491 367.5661,-497 361.5661,-503 355.5661,-503"/>
<text text-anchor="middle" x="316.225" y="-482" font-family="Helvetica,sans-Serif" font-size="10.00" fill="#000000">解除i时隙占用</text>
</g>
<!-- A0&#45;&gt;A2 -->
<g id="edge2" class="edge">
<title>A0&#45;&gt;A2</title>
<path fill="none" stroke="#000000" d="M276.1002,-606.5949C279.392,-601.0431 283.392,-593.7931 286.225,-587 296.3751,-562.6615 304.5394,-533.7217 309.7732,-512.896"/>
<polygon fill="#000000" stroke="#000000" points="312.1705,-503.0967 314.1653,-513.8796 310.9823,-507.9535 309.7942,-512.8102 309.7942,-512.8102 309.7942,-512.8102 310.9823,-507.9535 305.4231,-511.7409 312.1705,-503.0967 312.1705,-503.0967"/>
<text text-anchor="middle" x="314.194" y="-578" font-family="Helvetica,sans-Serif" font-size="10.00" fill="#000000">释放时隙</text>
</g>
<!-- A4 -->
<g id="node5" class="node">
<title>A4</title>
<path fill="none" stroke="#000000" d="M290.5664,-395C290.5664,-395 167.8836,-395 167.8836,-395 161.8836,-395 155.8836,-389 155.8836,-383 155.8836,-383 155.8836,-371 155.8836,-371 155.8836,-365 161.8836,-359 167.8836,-359 167.8836,-359 290.5664,-359 290.5664,-359 296.5664,-359 302.5664,-365 302.5664,-371 302.5664,-371 302.5664,-383 302.5664,-383 302.5664,-389 296.5664,-395 290.5664,-395"/>
<text text-anchor="middle" x="229.225" y="-374" font-family="Helvetica,sans-Serif" font-size="10.00" fill="#000000">将时隙i分配给请求对象</text>
</g>
<!-- A1&#45;&gt;A4 -->
<g id="edge4" class="edge">
<title>A1&#45;&gt;A4</title>
<path fill="none" stroke="#000000" d="M230.1122,-520.7314C229.9397,-492.778 229.6086,-439.1418 229.4033,-405.882"/>
<polygon fill="#000000" stroke="#000000" points="229.3389,-395.4503 233.9006,-405.4223 229.3698,-400.4503 229.4007,-405.4502 229.4007,-405.4502 229.4007,-405.4502 229.3698,-400.4503 224.9008,-405.478 229.3389,-395.4503 229.3389,-395.4503"/>
<text text-anchor="middle" x="233.5595" y="-482" font-family="Helvetica,sans-Serif" font-size="10.00" fill="#000000">Y</text>
</g>
<!-- A5 -->
<g id="node6" class="node">
<title>A5</title>
<path fill="none" stroke="#000000" d="M189.9873,-449C189.9873,-449 76.4627,-449 76.4627,-449 70.4627,-449 64.4627,-443 64.4627,-437 64.4627,-437 64.4627,-425 64.4627,-425 64.4627,-419 70.4627,-413 76.4627,-413 76.4627,-413 189.9873,-413 189.9873,-413 195.9873,-413 201.9873,-419 201.9873,-425 201.9873,-425 201.9873,-437 201.9873,-437 201.9873,-443 195.9873,-449 189.9873,-449"/>
<text text-anchor="middle" x="133.225" y="-434" font-family="Helvetica,sans-Serif" font-size="10.00" fill="#000000">REQ信令中时隙i类型为</text>
<text text-anchor="middle" x="133.225" y="-422" font-family="Helvetica,sans-Serif" font-size="10.00" fill="#000000">紧急或基本时隙?</text>
</g>
<!-- A1&#45;&gt;A5 -->
<g id="edge6" class="edge">
<title>A1&#45;&gt;A5</title>
<path fill="none" stroke="#000000" d="M213.7703,-520.6793C197.9981,-503.1185 174.0421,-476.4459 156.3534,-456.7512"/>
<polygon fill="#000000" stroke="#000000" points="149.4367,-449.0502 159.4667,-453.483 152.7778,-452.7701 156.1188,-456.49 156.1188,-456.49 156.1188,-456.49 152.7778,-452.7701 152.7709,-459.4969 149.4367,-449.0502 149.4367,-449.0502"/>
<text text-anchor="middle" x="199.8345" y="-482" font-family="Helvetica,sans-Serif" font-size="10.00" fill="#000000">N</text>
</g>
<!-- A3 -->
<g id="node4" class="node">
<title>A3</title>
<path fill="none" stroke="#000000" d="M293.179,-176C293.179,-176 193.271,-176 193.271,-176 187.271,-176 181.271,-170 181.271,-164 181.271,-164 181.271,-152 181.271,-152 181.271,-146 187.271,-140 193.271,-140 193.271,-140 293.179,-140 293.179,-140 299.179,-140 305.179,-146 305.179,-152 305.179,-152 305.179,-164 305.179,-164 305.179,-170 299.179,-176 293.179,-176"/>
<text text-anchor="middle" x="243.225" y="-155" font-family="Helvetica,sans-Serif" font-size="10.00" fill="#000000">更新数据时隙分配表</text>
</g>
<!-- A2&#45;&gt;A3 -->
<g id="edge3" class="edge">
<title>A2&#45;&gt;A3</title>
<path fill="none" stroke="#000000" d="M316.4983,-466.6555C316.7943,-445.1689 317.225,-408.5014 317.225,-377 317.225,-377 317.225,-377 317.225,-235 317.225,-213.3306 301.8011,-195.398 285.0366,-182.3068"/>
<polygon fill="#000000" stroke="#000000" points="276.7608,-176.2739 287.4924,-178.5283 280.8012,-179.2193 284.8416,-182.1647 284.8416,-182.1647 284.8416,-182.1647 280.8012,-179.2193 282.1908,-185.801 276.7608,-176.2739 276.7608,-176.2739"/>
</g>
<!-- A8 -->
<g id="node9" class="node">
<title>A8</title>
<path fill="none" stroke="#000000" d="M257.9563,-103C257.9563,-103 176.4937,-103 176.4937,-103 170.4937,-103 164.4937,-97 164.4937,-91 164.4937,-91 164.4937,-79 164.4937,-79 164.4937,-73 170.4937,-67 176.4937,-67 176.4937,-67 257.9563,-67 257.9563,-67 263.9563,-67 269.9563,-73 269.9563,-79 269.9563,-79 269.9563,-91 269.9563,-91 269.9563,-97 263.9563,-103 257.9563,-103"/>
<text text-anchor="middle" x="217.225" y="-82" font-family="Helvetica,sans-Serif" font-size="10.00" fill="#000000">回复内容设为ACK</text>
</g>
<!-- A3&#45;&gt;A8 -->
<g id="edge10" class="edge">
<title>A3&#45;&gt;A8</title>
<path fill="none" stroke="#000000" d="M236.798,-139.9551C233.8605,-131.7074 230.3153,-121.7536 227.0538,-112.5962"/>
<polygon fill="#000000" stroke="#000000" points="223.6681,-103.0904 231.2625,-111.0008 225.3458,-107.8005 227.0234,-112.5107 227.0234,-112.5107 227.0234,-112.5107 225.3458,-107.8005 222.7842,-114.0206 223.6681,-103.0904 223.6681,-103.0904"/>
</g>
<!-- A4&#45;&gt;A3 -->
<g id="edge5" class="edge">
<title>A4&#45;&gt;A3</title>
<path fill="none" stroke="#000000" d="M236.4311,-358.875C247.5418,-328.7222 266.8201,-266.2987 259.225,-213 257.9343,-203.9426 255.5049,-194.2919 252.9219,-185.6442"/>
<polygon fill="#000000" stroke="#000000" points="249.8782,-176.0488 257.1912,-184.2201 251.39,-180.8148 252.9019,-185.5808 252.9019,-185.5808 252.9019,-185.5808 251.39,-180.8148 248.6125,-186.9414 249.8782,-176.0488 249.8782,-176.0488"/>
</g>
<!-- A6 -->
<g id="node7" class="node">
<title>A6</title>
<path fill="none" stroke="#000000" d="M180.9422,-341C180.9422,-341 93.5078,-341 93.5078,-341 87.5078,-341 81.5078,-335 81.5078,-329 81.5078,-329 81.5078,-317 81.5078,-317 81.5078,-311 87.5078,-305 93.5078,-305 93.5078,-305 180.9422,-305 180.9422,-305 186.9422,-305 192.9422,-311 192.9422,-317 192.9422,-317 192.9422,-329 192.9422,-329 192.9422,-335 186.9422,-341 180.9422,-341"/>
<text text-anchor="middle" x="137.225" y="-320" font-family="Helvetica,sans-Serif" font-size="10.00" fill="#000000">时隙i为扩展时隙?</text>
</g>
<!-- A5&#45;&gt;A6 -->
<g id="edge7" class="edge">
<title>A5&#45;&gt;A6</title>
<path fill="none" stroke="#000000" d="M133.9035,-412.6793C134.5279,-395.821 135.4633,-370.5651 136.1825,-351.147"/>
<polygon fill="#000000" stroke="#000000" points="136.5565,-341.0502 140.6832,-351.2099 136.3714,-346.0467 136.1863,-351.0433 136.1863,-351.0433 136.1863,-351.0433 136.3714,-346.0467 131.6893,-350.8767 136.5565,-341.0502 136.5565,-341.0502"/>
<text text-anchor="middle" x="139.5595" y="-374" font-family="Helvetica,sans-Serif" font-size="10.00" fill="#000000">Y</text>
</g>
<!-- A10 -->
<g id="node11" class="node">
<title>A10</title>
<path fill="none" stroke="#000000" d="M100.6759,-253C100.6759,-253 11.7741,-253 11.7741,-253 5.7741,-253 -.2259,-247 -.2259,-241 -.2259,-241 -.2259,-229 -.2259,-229 -.2259,-223 5.7741,-217 11.7741,-217 11.7741,-217 100.6759,-217 100.6759,-217 106.6759,-217 112.6759,-223 112.6759,-229 112.6759,-229 112.6759,-241 112.6759,-241 112.6759,-247 106.6759,-253 100.6759,-253"/>
<text text-anchor="middle" x="56.225" y="-232" font-family="Helvetica,sans-Serif" font-size="10.00" fill="#000000">回复内容设为NACK</text>
</g>
<!-- A5&#45;&gt;A10 -->
<g id="edge12" class="edge">
<title>A5&#45;&gt;A10</title>
<path fill="none" stroke="#000000" d="M114.5066,-412.9519C98.2954,-396.0393 75.8012,-369.1981 65.006,-341 55.4611,-316.0678 53.8964,-285.4891 54.3427,-263.5933"/>
<polygon fill="#000000" stroke="#000000" points="54.7123,-253.308 58.8502,-263.4632 54.5327,-258.3048 54.3531,-263.3016 54.3531,-263.3016 54.3531,-263.3016 54.5327,-258.3048 49.856,-263.14 54.7123,-253.308 54.7123,-253.308"/>
<text text-anchor="middle" x="68.8345" y="-320" font-family="Helvetica,sans-Serif" font-size="10.00" fill="#000000">N</text>
</g>
<!-- A7 -->
<g id="node8" class="node">
<title>A7</title>
<path fill="none" stroke="#000000" d="M238.4813,-257C238.4813,-257 141.9687,-257 141.9687,-257 135.9687,-257 129.9687,-251 129.9687,-245 129.9687,-245 129.9687,-225 129.9687,-225 129.9687,-219 135.9687,-213 141.9687,-213 141.9687,-213 238.4813,-213 238.4813,-213 244.4813,-213 250.4813,-219 250.4813,-225 250.4813,-225 250.4813,-245 250.4813,-245 250.4813,-251 244.4813,-257 238.4813,-257"/>
<text text-anchor="middle" x="190.225" y="-244" font-family="Helvetica,sans-Serif" font-size="10.00" fill="#000000">解除i时隙占用</text>
<text text-anchor="middle" x="190.225" y="-232" font-family="Helvetica,sans-Serif" font-size="10.00" fill="#000000">向i时隙通讯对象</text>
<text text-anchor="middle" x="190.225" y="-220" font-family="Helvetica,sans-Serif" font-size="10.00" fill="#000000">发送解除占用信令</text>
</g>
<!-- A6&#45;&gt;A7 -->
<g id="edge8" class="edge">
<title>A6&#45;&gt;A7</title>
<path fill="none" stroke="#000000" d="M148.2066,-304.7663C154.9567,-293.5587 163.7809,-278.9072 171.5992,-265.9258"/>
<polygon fill="#000000" stroke="#000000" points="176.8134,-257.2683 175.5089,-268.1563 174.2337,-261.5515 171.6541,-265.8346 171.6541,-265.8346 171.6541,-265.8346 174.2337,-261.5515 167.7992,-263.513 176.8134,-257.2683 176.8134,-257.2683"/>
<text text-anchor="middle" x="169.5595" y="-278" font-family="Helvetica,sans-Serif" font-size="10.00" fill="#000000">Y</text>
</g>
<!-- A6&#45;&gt;A10 -->
<g id="edge13" class="edge">
<title>A6&#45;&gt;A10</title>
<path fill="none" stroke="#000000" d="M120.4417,-304.7663C108.7123,-292.0232 92.8849,-274.8281 79.8784,-260.6976"/>
<polygon fill="#000000" stroke="#000000" points="72.9868,-253.2103 83.0701,-257.5204 76.373,-256.8891 79.7592,-260.568 79.7592,-260.568 79.7592,-260.568 76.373,-256.8891 76.4482,-263.6156 72.9868,-253.2103 72.9868,-253.2103"/>
<text text-anchor="middle" x="107.8345" y="-278" font-family="Helvetica,sans-Serif" font-size="10.00" fill="#000000">N</text>
</g>
<!-- A7&#45;&gt;A3 -->
<g id="edge9" class="edge">
<title>A7&#45;&gt;A3</title>
<path fill="none" stroke="#000000" d="M205.5548,-212.7284C211.6248,-203.9097 218.6519,-193.7006 224.9809,-184.5056"/>
<polygon fill="#000000" stroke="#000000" points="230.7811,-176.0789 228.818,-186.8677 227.9461,-180.1976 225.1112,-184.3162 225.1112,-184.3162 225.1112,-184.3162 227.9461,-180.1976 221.4044,-181.7648 230.7811,-176.0789 230.7811,-176.0789"/>
</g>
<!-- A9 -->
<g id="node10" class="node">
<title>A9</title>
<ellipse fill="none" stroke="#000000" cx="132.225" cy="-15" rx="11" ry="11"/>
<ellipse fill="none" stroke="#000000" cx="132.225" cy="-15" rx="15" ry="15"/>
</g>
<!-- A8&#45;&gt;A9 -->
<g id="edge11" class="edge">
<title>A8&#45;&gt;A9</title>
<path fill="none" stroke="#000000" d="M195.3354,-66.9733C181.939,-55.9409 164.9378,-41.9399 151.9571,-31.25"/>
<polygon fill="#000000" stroke="#000000" points="144.0858,-24.7677 154.6658,-27.6511 147.9455,-27.9463 151.8051,-31.1248 151.8051,-31.1248 151.8051,-31.1248 147.9455,-27.9463 148.9444,-34.5985 144.0858,-24.7677 144.0858,-24.7677"/>
</g>
<!-- A10&#45;&gt;A9 -->
<g id="edge14" class="edge">
<title>A10&#45;&gt;A9</title>
<path fill="none" stroke="#000000" d="M62.4444,-216.9965C76.0647,-177.5692 108.5363,-83.5726 123.8982,-39.104"/>
<polygon fill="#000000" stroke="#000000" points="127.2444,-29.4176 128.2325,-40.3388 125.6118,-34.1435 123.9791,-38.8695 123.9791,-38.8695 123.9791,-38.8695 125.6118,-34.1435 119.7258,-37.4001 127.2444,-29.4176 127.2444,-29.4176"/>
</g>
</g>
</svg>
