<?xml version="1.0" encoding="UTF-8" standalone="no"?>
<!DOCTYPE svg PUBLIC "-//W3C//DTD SVG 1.1//EN"
 "http://www.w3.org/Graphics/SVG/1.1/DTD/svg11.dtd">
<!-- Generated by graphviz version 2.40.1 (20161225.0304)
 -->
<!-- Title: G Pages: 1 -->
<svg width="400pt" height="501pt"
 viewBox="0.00 0.00 399.57 501.00" xmlns="http://www.w3.org/2000/svg" xmlns:xlink="http://www.w3.org/1999/xlink">
<g id="graph0" class="graph" transform="scale(1 1) rotate(0) translate(4 497)">
<title>G</title>
<polygon fill="#ffffff" stroke="transparent" points="-4,4 -4,-497 395.5715,-497 395.5715,4 -4,4"/>
<!-- A0 -->
<g id="node1" class="node">
<title>A0</title>
<ellipse fill="none" stroke="#000000" cx="226.5715" cy="-482" rx="11" ry="11"/>
</g>
<!-- A1 -->
<g id="node2" class="node">
<title>A1</title>
<path fill="none" stroke="#000000" d="M284.5885,-423C284.5885,-423 230.5545,-423 230.5545,-423 224.5545,-423 218.5545,-417 218.5545,-411 218.5545,-411 218.5545,-399 218.5545,-399 218.5545,-393 224.5545,-387 230.5545,-387 230.5545,-387 284.5885,-387 284.5885,-387 290.5885,-387 296.5885,-393 296.5885,-399 296.5885,-399 296.5885,-411 296.5885,-411 296.5885,-417 290.5885,-423 284.5885,-423"/>
<text text-anchor="middle" x="257.5715" y="-402" font-family="Helvetica,sans-Serif" font-size="10.00" fill="#000000">信令类型?</text>
</g>
<!-- A0&#45;&gt;A1 -->
<g id="edge1" class="edge">
<title>A0&#45;&gt;A1</title>
<path fill="none" stroke="#000000" d="M225.0693,-470.8329C224.3732,-462.3676 224.3707,-450.5943 227.9955,-441 229.2337,-437.7227 230.8996,-434.5238 232.8129,-431.4707"/>
<polygon fill="#000000" stroke="#000000" points="238.7108,-423.308 236.5016,-434.0491 235.7825,-427.3608 232.8541,-431.4136 232.8541,-431.4136 232.8541,-431.4136 235.7825,-427.3608 229.2066,-428.778 238.7108,-423.308 238.7108,-423.308"/>
<text text-anchor="middle" x="273.8595" y="-444" font-family="Helvetica,sans-Serif" font-size="10.00" fill="#000000">接收时隙控制信令</text>
</g>
<!-- A2 -->
<g id="node3" class="node">
<title>A2</title>
<path fill="none" stroke="#000000" d="M150.0805,-339C150.0805,-339 61.0625,-339 61.0625,-339 55.0625,-339 49.0625,-333 49.0625,-327 49.0625,-327 49.0625,-315 49.0625,-315 49.0625,-309 55.0625,-303 61.0625,-303 61.0625,-303 150.0805,-303 150.0805,-303 156.0805,-303 162.0805,-309 162.0805,-315 162.0805,-315 162.0805,-327 162.0805,-327 162.0805,-333 156.0805,-339 150.0805,-339"/>
<text text-anchor="middle" x="105.5715" y="-318" font-family="Helvetica,sans-Serif" font-size="10.00" fill="#000000">是否已分配时隙?</text>
</g>
<!-- A1&#45;&gt;A2 -->
<g id="edge2" class="edge">
<title>A1&#45;&gt;A2</title>
<path fill="none" stroke="#000000" d="M224.9637,-386.9799C202.3002,-374.4553 171.8946,-357.6522 147.4399,-344.1378"/>
<polygon fill="#000000" stroke="#000000" points="138.3873,-339.135 149.3163,-340.0334 142.7635,-341.5535 147.1397,-343.9719 147.1397,-343.9719 147.1397,-343.9719 142.7635,-341.5535 144.9631,-347.9105 138.3873,-339.135 138.3873,-339.135"/>
<text text-anchor="middle" x="207.964" y="-360" font-family="Helvetica,sans-Serif" font-size="10.00" fill="#000000">HELLO</text>
</g>
<!-- A7 -->
<g id="node8" class="node">
<title>A7</title>
<path fill="none" stroke="#000000" d="M319.7056,-339C319.7056,-339 239.4374,-339 239.4374,-339 233.4374,-339 227.4374,-333 227.4374,-327 227.4374,-327 227.4374,-315 227.4374,-315 227.4374,-309 233.4374,-303 239.4374,-303 239.4374,-303 319.7056,-303 319.7056,-303 325.7056,-303 331.7056,-309 331.7056,-315 331.7056,-315 331.7056,-327 331.7056,-327 331.7056,-333 325.7056,-339 319.7056,-339"/>
<text text-anchor="middle" x="279.5715" y="-318" font-family="Helvetica,sans-Serif" font-size="10.00" fill="#000000">是否存在会话?</text>
</g>
<!-- A1&#45;&gt;A7 -->
<g id="edge8" class="edge">
<title>A1&#45;&gt;A7</title>
<path fill="none" stroke="#000000" d="M262.3452,-386.7733C265.2281,-375.7657 268.9618,-361.5098 272.2158,-349.0854"/>
<polygon fill="#000000" stroke="#000000" points="274.8071,-339.1912 276.6267,-350.0051 273.5403,-344.028 272.2735,-348.8649 272.2735,-348.8649 272.2735,-348.8649 273.5403,-344.028 267.9203,-347.7248 274.8071,-339.1912 274.8071,-339.1912"/>
<text text-anchor="middle" x="280.85" y="-360" font-family="Helvetica,sans-Serif" font-size="10.00" fill="#000000">ACK</text>
</g>
<!-- A2&#45;&gt;A0 -->
<g id="edge12" class="edge">
<title>A2&#45;&gt;A0</title>
<path fill="none" stroke="#000000" d="M111.6807,-339.1841C121.6388,-366.6146 143.6253,-418.9791 176.5715,-453 185.1581,-461.8667 197.0361,-468.9078 207.0603,-473.8306"/>
<polygon fill="#000000" stroke="#000000" points="216.2762,-478.0365 205.3104,-477.9784 211.7275,-475.9605 207.1788,-473.8846 207.1788,-473.8846 207.1788,-473.8846 211.7275,-475.9605 209.0471,-469.7907 216.2762,-478.0365 216.2762,-478.0365"/>
<text text-anchor="middle" x="156.906" y="-402" font-family="Helvetica,sans-Serif" font-size="10.00" fill="#000000">Y</text>
</g>
<!-- A3 -->
<g id="node4" class="node">
<title>A3</title>
<path fill="none" stroke="#000000" d="M157.2146,-255C157.2146,-255 11.9284,-255 11.9284,-255 5.9284,-255 -.0716,-249 -.0716,-243 -.0716,-243 -.0716,-211 -.0716,-211 -.0716,-205 5.9284,-199 11.9284,-199 11.9284,-199 157.2146,-199 157.2146,-199 163.2146,-199 169.2146,-205 169.2146,-211 169.2146,-211 169.2146,-243 169.2146,-243 169.2146,-249 163.2146,-255 157.2146,-255"/>
<text text-anchor="middle" x="84.5715" y="-242" font-family="Helvetica,sans-Serif" font-size="10.00" fill="#000000">选取时隙</text>
<text text-anchor="middle" x="84.5715" y="-230" font-family="Helvetica,sans-Serif" font-size="10.00" fill="#000000">建立会话s并设定超时t_exp</text>
<text text-anchor="middle" x="84.5715" y="-218" font-family="Helvetica,sans-Serif" font-size="10.00" fill="#000000">将拟申请时隙标记为预占用</text>
<text text-anchor="middle" x="84.5715" y="-206" font-family="Helvetica,sans-Serif" font-size="10.00" fill="#000000">创建时隙控制信令req</text>
</g>
<!-- A2&#45;&gt;A3 -->
<g id="edge3" class="edge">
<title>A2&#45;&gt;A3</title>
<path fill="none" stroke="#000000" d="M101.5225,-302.8759C99.1101,-292.0774 95.9559,-277.9588 93.0235,-264.8326"/>
<polygon fill="#000000" stroke="#000000" points="90.8402,-255.0599 97.4123,-263.8381 91.9304,-259.9396 93.0206,-264.8193 93.0206,-264.8193 93.0206,-264.8193 91.9304,-259.9396 88.6288,-265.8005 90.8402,-255.0599 90.8402,-255.0599"/>
<text text-anchor="middle" x="101.181" y="-276" font-family="Helvetica,sans-Serif" font-size="10.00" fill="#000000">N</text>
</g>
<!-- A4 -->
<g id="node5" class="node">
<title>A4</title>
<path fill="none" stroke="#000000" d="M231.6926,-162C231.6926,-162 191.4504,-162 191.4504,-162 185.4504,-162 179.4504,-156 179.4504,-150 179.4504,-150 179.4504,-138 179.4504,-138 179.4504,-132 185.4504,-126 191.4504,-126 191.4504,-126 231.6926,-126 231.6926,-126 237.6926,-126 243.6926,-132 243.6926,-138 243.6926,-138 243.6926,-150 243.6926,-150 243.6926,-156 237.6926,-162 231.6926,-162"/>
<text text-anchor="middle" x="211.5715" y="-141" font-family="Helvetica,sans-Serif" font-size="10.00" fill="#000000">发送req</text>
</g>
<!-- A3&#45;&gt;A4 -->
<g id="edge4" class="edge">
<title>A3&#45;&gt;A4</title>
<path fill="none" stroke="#000000" d="M127.5679,-198.9C143.0877,-188.7571 160.438,-177.4179 175.3229,-167.69"/>
<polygon fill="#000000" stroke="#000000" points="183.7695,-162.1698 177.8605,-171.4075 179.5841,-164.9052 175.3986,-167.6406 175.3986,-167.6406 175.3986,-167.6406 179.5841,-164.9052 172.9368,-163.8737 183.7695,-162.1698 183.7695,-162.1698"/>
</g>
<!-- A5 -->
<g id="node6" class="node">
<title>A5</title>
<polygon fill="#d3d3d3" stroke="#000000" stroke-width="4" points="282.5715,-84.5 282.5715,-88.5 318.5715,-88.5 318.5715,-84.5 282.5715,-84.5"/>
<text text-anchor="middle" x="300.2105" y="-86.2" font-family="Helvetica,sans-Serif" font-size="1.00" fill="#000000"> </text>
</g>
<!-- A4&#45;&gt;A5 -->
<g id="edge5" class="edge">
<title>A4&#45;&gt;A5:n</title>
<path fill="none" stroke="#000000" d="M243.7025,-137.6673C265.9093,-131.4715 292.5801,-119.7641 299.0872,-98.5536"/>
<polygon fill="#000000" stroke="#000000" points="300.5715,-88.5 303.5626,-99.0501 299.8412,-93.4464 299.1109,-98.3928 299.1109,-98.3928 299.1109,-98.3928 299.8412,-93.4464 294.6591,-97.7355 300.5715,-88.5 300.5715,-88.5"/>
</g>
<!-- A6 -->
<g id="node7" class="node">
<title>A6</title>
<path fill="none" stroke="#000000" d="M376.5329,-36C376.5329,-36 322.6101,-36 322.6101,-36 316.6101,-36 310.6101,-30 310.6101,-24 310.6101,-24 310.6101,-12 310.6101,-12 310.6101,-6 316.6101,0 322.6101,0 322.6101,0 376.5329,0 376.5329,0 382.5329,0 388.5329,-6 388.5329,-12 388.5329,-12 388.5329,-24 388.5329,-24 388.5329,-30 382.5329,-36 376.5329,-36"/>
<text text-anchor="middle" x="349.5715" y="-15" font-family="Helvetica,sans-Serif" font-size="10.00" fill="#000000">删除会话</text>
</g>
<!-- A5&#45;&gt;A6 -->
<g id="edge6" class="edge">
<title>A5&#45;&gt;A6</title>
<path fill="none" stroke="#000000" d="M302.2018,-84.2209C306.6574,-77.9922 319.4521,-60.1057 330.622,-44.4906"/>
<polygon fill="#000000" stroke="#000000" points="336.5971,-36.1376 334.4391,-46.8891 333.6881,-40.2043 330.7791,-44.271 330.7791,-44.271 330.7791,-44.271 333.6881,-40.2043 327.1191,-41.6529 336.5971,-36.1376 336.5971,-36.1376"/>
<text text-anchor="middle" x="350.3365" y="-57" font-family="Helvetica,sans-Serif" font-size="10.00" fill="#000000">会话超时</text>
</g>
<!-- A6&#45;&gt;A0 -->
<g id="edge7" class="edge">
<title>A6&#45;&gt;A0</title>
<path fill="none" stroke="#000000" d="M368.3603,-36.255C379.543,-49.1147 391.5715,-67.3888 391.5715,-86.5 391.5715,-405 391.5715,-405 391.5715,-405 391.5715,-438.1193 363.9311,-437.6735 334.5715,-453 306.4508,-467.6797 270.2301,-475.4344 247.705,-479.1238"/>
<polygon fill="#000000" stroke="#000000" points="237.566,-480.6594 246.7793,-474.7126 242.5096,-479.9106 247.4532,-479.1618 247.4532,-479.1618 247.4532,-479.1618 242.5096,-479.9106 248.1272,-483.6111 237.566,-480.6594 237.566,-480.6594"/>
</g>
<!-- A7&#45;&gt;A0 -->
<g id="edge11" class="edge">
<title>A7&#45;&gt;A0</title>
<path fill="none" stroke="#000000" d="M294.2381,-339.3694C314.0619,-366.5771 344.148,-418.1208 318.5715,-453 310.1554,-464.4772 272.3597,-473.4978 247.907,-478.2644"/>
<polygon fill="#000000" stroke="#000000" points="237.7644,-480.1487 246.7741,-473.8978 242.6802,-479.2354 247.5961,-478.3221 247.5961,-478.3221 247.5961,-478.3221 242.6802,-479.2354 248.4181,-482.7464 237.7644,-480.1487 237.7644,-480.1487"/>
<text text-anchor="middle" x="341.462" y="-402" font-family="Helvetica,sans-Serif" font-size="10.00" fill="#000000">不存在</text>
</g>
<!-- A8 -->
<g id="node9" class="node">
<title>A8</title>
<path fill="none" stroke="#000000" d="M351.5775,-249C351.5775,-249 199.5655,-249 199.5655,-249 193.5655,-249 187.5655,-243 187.5655,-237 187.5655,-237 187.5655,-217 187.5655,-217 187.5655,-211 193.5655,-205 199.5655,-205 199.5655,-205 351.5775,-205 351.5775,-205 357.5775,-205 363.5775,-211 363.5775,-217 363.5775,-217 363.5775,-237 363.5775,-237 363.5775,-243 357.5775,-249 351.5775,-249"/>
<text text-anchor="middle" x="275.5715" y="-236" font-family="Helvetica,sans-Serif" font-size="10.00" fill="#000000">根据回复情况更改预占用时隙状态</text>
<text text-anchor="middle" x="275.5715" y="-224" font-family="Helvetica,sans-Serif" font-size="10.00" fill="#000000">更新时隙分配表</text>
<text text-anchor="middle" x="275.5715" y="-212" font-family="Helvetica,sans-Serif" font-size="10.00" fill="#000000">删除会话</text>
</g>
<!-- A7&#45;&gt;A8 -->
<g id="edge9" class="edge">
<title>A7&#45;&gt;A8</title>
<path fill="none" stroke="#000000" d="M278.8003,-302.8759C278.2741,-290.5119 277.5628,-273.7953 276.9417,-259.1995"/>
<polygon fill="#000000" stroke="#000000" points="276.5093,-249.0388 281.4305,-258.8384 276.7219,-254.0343 276.9346,-259.0298 276.9346,-259.0298 276.9346,-259.0298 276.7219,-254.0343 272.4386,-259.2211 276.5093,-249.0388 276.5093,-249.0388"/>
<text text-anchor="middle" x="288.5735" y="-276" font-family="Helvetica,sans-Serif" font-size="10.00" fill="#000000">存在</text>
</g>
<!-- A8&#45;&gt;A0 -->
<g id="edge10" class="edge">
<title>A8&#45;&gt;A0</title>
<path fill="none" stroke="#000000" d="M255.3291,-249.086C243.0983,-263.4933 228.0849,-283.2345 218.5715,-303 207.8187,-325.3404 207.7078,-332.4057 204.5715,-357 199.8125,-394.319 211.1869,-437.4592 219.2917,-462.0566"/>
<polygon fill="#000000" stroke="#000000" points="222.6122,-471.6794 215.0964,-463.6942 220.9812,-466.9528 219.3502,-462.2263 219.3502,-462.2263 219.3502,-462.2263 220.9812,-466.9528 223.6041,-460.7584 222.6122,-471.6794 222.6122,-471.6794"/>
</g>
</g>
</svg>
