<svg xmlns="http://www.w3.org/2000/svg" width="1109" viewBox="0 0 1109 575" xmlns:xlink="http://www.w3.org/1999/xlink" height="575">
    <style type="text/css"><![CDATA[
.st1 {fill:#303030;font-family:Times New Roman;font-size:9pt}
.st2 {fill:#303030;font-family:宋体;font-size:10pt}
]]></style>
    <defs/>
    <g transform="translate(-19.3,-1599)">
        <g id="shape1" transform="translate(672.45,1786.48)">
            <path d="M0,28.3C0,12.7,12.7,0,28.3,0C44,0,56.7,12.7,56.7,28.3C56.7,44,44,56.7,28.3,56.7C12.7,56.7,0,44,0,28.3z" stroke-width="1.33333" fill="none" stroke="#000000"/>
            <text class="st1">
                <tspan x="21.3" y="22.3">R1</tspan>
                <tspan x="10.3" y="40.3">路由器</tspan>
            </text>
        </g>
        <g id="shape2" transform="translate(227.72,1786.48)">
            <path d="M16.4,56.7L49.1,56.7L65.5,28.3L49.1,0L16.4,0L0,28.3L16.4,56.7z" stroke-width="1.33333" fill="none" stroke="#000000"/>
            <text class="st1">
                <tspan x="11.2" y="22.3">S1 ID:01</tspan>
                <tspan x="9.2" y="40.3">交换节点</tspan>
            </text>
        </g>
        <g transform="translate(90.45,1786.48)">
            <path id="shape3" d="M56.7,56.7L56.7,0L0,0L0,56.7L56.7,56.7z" stroke-width="1.33333" fill="none" stroke="#000000"/>
            <text class="st1">
                <tspan x="21.3" y="22.3">T1</tspan>
                <tspan x="16.3" y="40.3">终端</tspan>
            </text>
        </g>
        <g id="shape4" transform="translate(425.19,1786.48)">
            <path d="M16.4,56.7L49.1,56.7L65.5,28.3L49.1,0L16.4,0L0,28.3L16.4,56.7z" stroke-width="1.33333" fill="none" stroke="#000000"/>
            <text class="st1">
                <tspan x="11.2" y="22.3">S2 ID:02</tspan>
                <tspan x="9.2" y="40.3">交换节点</tspan>
            </text>
        </g>
        <g transform="translate(895.76,1697.82)">
            <path id="shape5" d="M56.7,56.7L56.7,0L0,0L0,56.7L56.7,56.7z" stroke-width="1.33333" fill="none" stroke="#000000"/>
            <text class="st1">
                <tspan x="21.3" y="22.3">T2</tspan>
                <tspan x="16.3" y="40.3">终端</tspan>
            </text>
        </g>
        <g transform="translate(895.76,1786.48)">
            <path id="shape6" d="M56.7,56.7L56.7,0L0,0L0,56.7L56.7,56.7z" stroke-width="1.33333" fill="none" stroke="#000000"/>
            <text class="st1">
                <tspan x="21.3" y="22.3">T3</tspan>
                <tspan x="16.3" y="40.3">终端</tspan>
            </text>
        </g>
        <g transform="translate(895.76,1875.13)">
            <path id="shape7" d="M56.7,56.7L56.7,0L0,0L0,56.7L56.7,56.7z" stroke-width="1.33333" fill="none" stroke="#000000"/>
            <text class="st1">
                <tspan x="21.3" y="22.3">T4</tspan>
                <tspan x="16.3" y="40.3">终端</tspan>
            </text>
        </g>
        <g id="shape8" transform="translate(729.14,1814.83)">
            <path d="M5.1,0L161.5,0" stroke-width="1.33333" fill="none" stroke="#000000"/>
            <path d="M0,0L6,3.5C5.4,2.4,5.1,1.3,5.1,0C5.1,-1.3,5.4,-2.4,6,-3.5L0,0" stroke-linecap="round" stroke-width="1" fill="#000000" stroke="#000000"/>
            <path d="M166.6,0L160.6,-3.5C161.2,-2.4,161.5,-1.3,161.5,0C161.5,1.3,161.2,2.4,160.6,3.5L166.6,0" stroke-linecap="round" stroke-width="1" fill="#000000" stroke="#000000"/>
            <rect x="45.8" width="76.7" fill="#ffffff" height="18" y="-9"/>
            <text class="st1">
                <tspan x="45.7" y="5">以太网/WLAN</tspan>
            </text>
        </g>
        <g id="shape9" transform="translate(895.76,1726.17)">
            <path d="M-5.1,0L-195,0L-195,55.2" stroke-width="1.33333" fill="none" stroke="#000000"/>
            <path d="M0,0L-6,-3.5C-5.4,-2.4,-5.1,-1.3,-5.1,0C-5.1,1.3,-5.4,2.4,-6,3.5L0,0" stroke-linecap="round" stroke-width="1" fill="#000000" stroke="#000000"/>
            <path d="M-195,60.3L-191.5,54.3C-192.5,54.9,-193.7,55.2,-195,55.2C-196.2,55.2,-197.4,54.9,-198.4,54.3L-195,60.3" stroke-linecap="round" stroke-width="1" fill="#000000" stroke="#000000"/>
            <rect x="-139.3" width="76.7" fill="#ffffff" height="18" y="-10.2"/>
            <text class="st1">
                <tspan x="-139.4" y="3.8">以太网/WLAN</tspan>
            </text>
        </g>
        <g id="shape10" transform="translate(895.76,1903.48)">
            <path d="M-5.1,0L-195,0L-195,-55.2" stroke-width="1.33333" fill="none" stroke="#000000"/>
            <path d="M0,0L-6,-3.5C-5.4,-2.4,-5.1,-1.3,-5.1,0C-5.1,1.3,-5.4,2.4,-6,3.5L0,0" stroke-linecap="round" stroke-width="1" fill="#000000" stroke="#000000"/>
            <path d="M-195,-60.3L-198.4,-54.3C-197.4,-54.9,-196.2,-55.2,-195,-55.2C-193.7,-55.2,-192.5,-54.9,-191.5,-54.3L-195,-60.3" stroke-linecap="round" stroke-width="1" fill="#000000" stroke="#000000"/>
            <rect x="-124.3" width="76.7" fill="#ffffff" height="18" y="-6.5"/>
            <text class="st1">
                <tspan x="-124.4" y="7.5">以太网/WLAN</tspan>
            </text>
        </g>
        <g id="shape11" transform="translate(672.45,1814.83)">
            <path d="M-5.1,0L-176.7,0" stroke-width="1.33333" fill="none" stroke="#000000"/>
            <path d="M0,0L-6,-3.5C-5.4,-2.4,-5.1,-1.3,-5.1,0C-5.1,1.3,-5.4,2.4,-6,3.5L0,0" stroke-linecap="round" stroke-width="1" fill="#000000" stroke="#000000"/>
            <path d="M-181.8,0L-175.8,3.5C-176.4,2.4,-176.7,1.3,-176.7,0C-176.7,-1.3,-176.4,-2.4,-175.8,-3.5L-181.8,0" stroke-linecap="round" stroke-width="1" fill="#000000" stroke="#000000"/>
            <rect x="-108.8" width="36.8" fill="#ffffff" height="18" y="-9"/>
            <text class="st1">
                <tspan x="-108.9" y="5">以太网</tspan>
            </text>
        </g>
        <g id="shape12" transform="translate(293.18,1814.83)">
            <path d="M5.1,0L126.9,0" stroke-dasharray="11,5" stroke-width="1.33333" fill="none" stroke="#000000"/>
            <path d="M0,0L6,3.5C5.4,2.4,5.1,1.3,5.1,0C5.1,-1.3,5.4,-2.4,6,-3.5L0,0" stroke-linecap="round" stroke-width="1" fill="#000000" stroke="#000000"/>
            <path d="M132,0L126,-3.5C126.6,-2.4,126.9,-1.3,126.9,0C126.9,1.3,126.6,2.4,126,3.5L132,0" stroke-linecap="round" stroke-width="1" fill="#000000" stroke="#000000"/>
            <rect x="42.1" width="49.1" fill="#ffffff" height="18" y="-9"/>
            <text class="st1">
                <tspan x="42" y="5">无线链路</tspan>
            </text>
        </g>
        <g id="shape13" transform="translate(227.72,1814.83)">
            <path d="M-5.1,0L-75.5,0" stroke-width="1.33333" fill="none" stroke="#000000"/>
            <path d="M0,0L-6,-3.5C-5.4,-2.4,-5.1,-1.3,-5.1,0C-5.1,1.3,-5.4,2.4,-6,3.5L0,0" stroke-linecap="round" stroke-width="1" fill="#000000" stroke="#000000"/>
            <path d="M-80.6,0L-74.6,3.5C-75.2,2.4,-75.5,1.3,-75.5,0C-75.5,-1.3,-75.2,-2.4,-74.6,-3.5L-80.6,0" stroke-linecap="round" stroke-width="1" fill="#000000" stroke="#000000"/>
            <rect x="-58.2" width="36.8" fill="#ffffff" height="18" y="-9"/>
            <text class="st1">
                <tspan x="-58.3" y="5">以太网</tspan>
            </text>
        </g>
        <g id="shape14" transform="translate(20.3,1842.17)">
            <text class="st1">
                <tspan x="64" y="19">T1 IP:10.0.0.2</tspan>
                <tspan x="23" y="33">EMAC:XX-XX-XX-XX-02-01</tspan>
            </text>
        </g>
        <g id="shape15" transform="translate(502.05,1815)">
            <text class="st1">
                <tspan x="59" y="19">R1.0 IP:10.0.0.1</tspan>
                <tspan x="23" y="33">EMAC:XX-XX-XX-XX-03-00</tspan>
            </text>
        </g>
        <g id="shape16" transform="translate(710.45,1684.17)">
            <text class="st1">
                <tspan x="50" y="19">R1.1 IP:192.168.0.1</tspan>
                <tspan x="23" y="33">EMAC:XX-XX-XX-XX-03-01</tspan>
            </text>
        </g>
        <g id="shape17" transform="translate(710.45,1767.17)">
            <text class="st1">
                <tspan x="50" y="19">R1.2 IP:192.168.0.1</tspan>
                <tspan x="23" y="33">EMAC:XX-XX-XX-XX-03-02</tspan>
            </text>
        </g>
        <g id="shape18" transform="translate(710.45,1858.17)">
            <text class="st1">
                <tspan x="50" y="19">R1.3 IP:192.168.0.1</tspan>
                <tspan x="23" y="33">EMAC:XX-XX-XX-XX-03-03</tspan>
            </text>
        </g>
        <g id="shape19" transform="translate(929.95,1703.17)">
            <text class="st1">
                <tspan x="55" y="19">T2 IP:192.168.0.2</tspan>
                <tspan x="23" y="33">EMAC:XX-XX-XX-XX-02-02</tspan>
            </text>
        </g>
        <g id="shape20" transform="translate(929.95,1791.83)">
            <text class="st1">
                <tspan x="55" y="19">T3 IP:192.168.0.3</tspan>
                <tspan x="23" y="33">EMAC:XX-XX-XX-XX-02-03</tspan>
            </text>
        </g>
        <g id="shape21" transform="translate(929.95,1880.48)">
            <text class="st1">
                <tspan x="55" y="19">T4 IP:192.168.0.4</tspan>
                <tspan x="23" y="33">EMAC:XX-XX-XX-XX-02-04</tspan>
            </text>
        </g>
        <g id="shape22" transform="translate(320.54,1944)">
            <path d="M16.4,56.7L49.1,56.7L65.5,28.3L49.1,0L16.4,0L0,28.3L16.4,56.7z" stroke-width="1.33333" fill="none" stroke="#000000"/>
            <text class="st1">
                <tspan x="11.2" y="22.3">S3 ID:03</tspan>
                <tspan x="9.2" y="40.3">交换节点</tspan>
            </text>
        </g>
        <g id="shape23" transform="matrix(-0.58,0.81,-0.81,-0.58,441.6,1843.2)">
            <path d="M5.1,0L118.8,0" stroke-dasharray="11,5" stroke-width="1.33333" fill="none" stroke="#000000"/>
            <path d="M0,0L6,3.5C5.4,2.4,5.1,1.3,5.1,0C5.1,-1.3,5.4,-2.4,6,-3.5L0,0" stroke-linecap="round" stroke-width="1" fill="#000000" stroke="#000000"/>
            <path d="M123.8,0L117.8,-3.5C118.4,-2.4,118.8,-1.3,118.8,0C118.8,1.3,118.4,2.4,117.8,3.5L123.8,0" stroke-linecap="round" stroke-width="1" fill="#000000" stroke="#000000"/>
            <rect x="38" width="49.1" fill="#ffffff" height="18" y="-9" transform="matrix(-0.58,-0.81,0.81,-0.58,97.9,50.4)"/>
            <text transform="matrix(-0.58,-0.81,0.81,-0.58,97.9,50.4)" class="st1">
                <tspan x="37.9" y="5">无线链路</tspan>
            </text>
        </g>
        <g id="shape24" transform="matrix(0.51,0.86,-0.86,0.51,276.8,1843.2)">
            <path d="M5.1,0L112.3,0" stroke-dasharray="11,5" stroke-width="1.33333" fill="none" stroke="#000000"/>
            <path d="M0,0L6,3.5C5.4,2.4,5.1,1.3,5.1,0C5.1,-1.3,5.4,-2.4,6,-3.5L0,0" stroke-linecap="round" stroke-width="1" fill="#000000" stroke="#000000"/>
            <path d="M117.4,0L111.4,-3.5C112,-2.4,112.3,-1.3,112.3,0C112.3,1.3,112,2.4,111.4,3.5L117.4,0" stroke-linecap="round" stroke-width="1" fill="#000000" stroke="#000000"/>
            <rect x="34.8" width="49.1" fill="#ffffff" height="18" y="-9" transform="matrix(0.51,-0.86,0.86,0.51,28.6,50.4)"/>
            <text transform="matrix(0.51,-0.86,0.86,0.51,28.6,50.4)" class="st1">
                <tspan x="34.7" y="5">无线链路</tspan>
            </text>
        </g>
        <g transform="translate(664.77,1944)">
            <path id="shape25" d="M72,56.7L72,0L0,0L0,56.7L72,56.7z" stroke-width="1.33333" fill="none" stroke="#000000"/>
            <text class="st1">
                <tspan x="29" y="22.3">T5</tspan>
                <tspan x="8" y="40.3">DHCP服务</tspan>
            </text>
        </g>
        <g id="shape26" transform="translate(664.77,1972.35)">
            <path d="M-5.1,0L-273.7,0" stroke-width="1.33333" fill="none" stroke="#000000"/>
            <path d="M0,0L-6,-3.5C-5.4,-2.4,-5.1,-1.3,-5.1,0C-5.1,1.3,-5.4,2.4,-6,3.5L0,0" stroke-linecap="round" stroke-width="1" fill="#000000" stroke="#000000"/>
            <path d="M-278.8,0L-272.8,3.5C-273.4,2.4,-273.7,1.3,-273.7,0C-273.7,-1.3,-273.4,-2.4,-272.8,-3.5L-278.8,0" stroke-linecap="round" stroke-width="1" fill="#000000" stroke="#000000"/>
            <rect x="-157.3" width="36.8" fill="#ffffff" height="18" y="-9"/>
            <text class="st1">
                <tspan x="-157.4" y="5">以太网</tspan>
            </text>
        </g>
        <g id="shape27" transform="translate(725,1949.35)">
            <text class="st1">
                <tspan x="64" y="19">T5 IP:10.0.0.5</tspan>
                <tspan x="23" y="33">EMAC:XX-XX-XX-XX-02-05</tspan>
            </text>
        </g>
        <g transform="translate(90.45,1944)">
            <path id="shape28" d="M56.7,56.7L56.7,0L0,0L0,56.7L56.7,56.7z" stroke-width="1.33333" fill="none" stroke="#000000"/>
            <text class="st1">
                <tspan x="21.3" y="22.3">T6</tspan>
                <tspan x="16.3" y="40.3">终端</tspan>
            </text>
        </g>
        <g id="shape29" transform="translate(20.3,2004)">
            <text class="st1">
                <tspan x="64" y="19">T6 IP:10.0.0.6</tspan>
                <tspan x="23" y="33">EMAC:XX-XX-XX-XX-02-06</tspan>
            </text>
        </g>
        <g id="shape30" transform="translate(320.54,1972.35)">
            <path d="M-5.1,0L-168.3,-0" stroke-width="1.33333" fill="none" stroke="#000000"/>
            <path d="M0,0L-6,-3.5C-5.4,-2.4,-5.1,-1.3,-5.1,0C-5.1,1.3,-5.4,2.4,-6,3.5L0,0" stroke-linecap="round" stroke-width="1" fill="#000000" stroke="#000000"/>
            <path d="M-173.4,-0L-167.4,3.5C-168,2.4,-168.3,1.3,-168.3,-0C-168.3,-1.3,-168,-2.4,-167.4,-3.5L-173.4,-0" stroke-linecap="round" stroke-width="1" fill="#000000" stroke="#000000"/>
            <rect x="-104.6" width="36.8" fill="#ffffff" height="18" y="-9"/>
            <text class="st1">
                <tspan x="-104.7" y="5">以太网</tspan>
            </text>
        </g>
        <g transform="translate(232.1,1657)">
            <path id="shape31" d="M56.7,56.7L56.7,0L0,0L0,56.7L56.7,56.7z" stroke-width="1.33333" fill="none" stroke="#000000"/>
            <text class="st1">
                <tspan x="21.3" y="13.3">T7</tspan>
                <tspan x="13.3" y="31.3">HTTP</tspan>
                <tspan x="16.3" y="49.3">服务</tspan>
            </text>
        </g>
        <g id="shape32" transform="translate(260.45,1713.69)">
            <path d="M0,5.1L-0,67.7" stroke-width="1.33333" fill="none" stroke="#000000"/>
            <path d="M0,0L-3.5,6C-2.4,5.4,-1.3,5.1,0,5.1C1.3,5.1,2.4,5.4,3.5,6L0,0" stroke-linecap="round" stroke-width="1" fill="#000000" stroke="#000000"/>
            <path d="M-0,72.8L3.5,66.8C2.4,67.4,1.3,67.7,-0,67.7C-1.3,67.7,-2.4,67.4,-3.5,66.8L-0,72.8" stroke-linecap="round" stroke-width="1" fill="#000000" stroke="#000000"/>
            <rect x="-18.8" width="39.9" fill="#ffffff" height="14" y="30.3"/>
            <text class="st2">
                <tspan x="-18.9" y="41.3">以太网</tspan>
            </text>
        </g>
        <g id="shape33" transform="translate(158,1603)">
            <text class="st1">
                <tspan x="45" y="14">域名:www.cssc.net.cn</tspan>
                <tspan x="72" y="28">IP:10.0.0.7</tspan>
                <tspan x="23" y="42">EMAC:XX-XX-XX-XX-02-07</tspan>
            </text>
        </g>
        <g transform="translate(324.92,2079)">
            <path id="shape34" d="M56.7,56.7L56.7,0L0,0L0,56.7L56.7,56.7z" stroke-width="1.33333" fill="none" stroke="#000000"/>
            <text class="st1">
                <tspan x="21.3" y="15.3">T8</tspan>
                <tspan x="16.3" y="29.3">DNS</tspan>
                <tspan x="16.3" y="47.3">服务</tspan>
            </text>
        </g>
        <g id="shape35" transform="translate(353.27,2079)">
            <path d="M0,-5.1L0,-72.9" stroke-width="1.33333" fill="none" stroke="#000000"/>
            <path d="M0,0L3.5,-6C2.4,-5.4,1.3,-5.1,0,-5.1C-1.3,-5.1,-2.4,-5.4,-3.5,-6L0,0" stroke-linecap="round" stroke-width="1" fill="#000000" stroke="#000000"/>
            <path d="M0,-78L-3.5,-72C-2.4,-72.6,-1.3,-72.9,0,-72.9C1.3,-72.9,2.4,-72.6,3.5,-72L0,-78" stroke-linecap="round" stroke-width="1" fill="#000000" stroke="#000000"/>
            <rect x="-19.4" width="39.9" fill="#ffffff" height="14" y="-45"/>
            <text class="st2">
                <tspan x="-19.5" y="-34">以太网</tspan>
            </text>
        </g>
        <g id="shape36" transform="translate(253.22,2127)">
            <text class="st1">
                <tspan x="64" y="26">T8 IP:10.0.0.8</tspan>
                <tspan x="23" y="40">EMAC:XX-XX-XX-XX-02-08</tspan>
            </text>
        </g>
    </g>
</svg>
