<svg xmlns="http://www.w3.org/2000/svg" width="667.5" height="1200">
<defs><marker id="arrow-filled" refX="6" refY="3" markerWidth="6" markerHeight="6" orient="auto"><path d="M0,0 6,3 0,6z" style="stroke: none; fill: black;"></path></marker><marker id="arrow-open" refX="6" refY="3" markerWidth="6" markerHeight="6" orient="auto"><path d="M0,0 6,3 0,6" style="stroke-width: 1; fill: none; stroke: black;"></path></marker></defs><rect width="37" height="38" style="stroke-width: 1; fill: none; stroke: black;" x="10" y="20"></rect><g><text fill="black" font-family="Helvetica,sans-Serif" x="28.5" y="39" style="text-anchor: middle; alignment-baseline: central;">T2</text></g><rect width="37" height="38" style="stroke-width: 1; fill: none; stroke: black;" x="10" y="1142"></rect><g><text fill="black" font-family="Helvetica,sans-Serif" x="28.5" y="1161" style="text-anchor: middle; alignment-baseline: central;">T2</text></g><path d="M28.5,58 v1084" style="stroke-width: 1; fill: none; stroke: black;"></path><rect width="37" height="38" style="stroke-width: 1; fill: none; stroke: black;" x="123.5" y="20"></rect><g><text fill="black" font-family="Helvetica,sans-Serif" x="142" y="39" style="text-anchor: middle; alignment-baseline: central;">R1</text></g><rect width="37" height="38" style="stroke-width: 1; fill: none; stroke: black;" x="123.5" y="1142"></rect><g><text fill="black" font-family="Helvetica,sans-Serif" x="142" y="1161" style="text-anchor: middle; alignment-baseline: central;">R1</text></g><path d="M142,58 v1084" style="stroke-width: 1; fill: none; stroke: black;"></path><rect width="37" height="38" style="stroke-width: 1; fill: none; stroke: black;" x="237" y="20"></rect><g><text fill="black" font-family="Helvetica,sans-Serif" x="255.5" y="39" style="text-anchor: middle; alignment-baseline: central;">S2</text></g><rect width="37" height="38" style="stroke-width: 1; fill: none; stroke: black;" x="237" y="1142"></rect><g><text fill="black" font-family="Helvetica,sans-Serif" x="255.5" y="1161" style="text-anchor: middle; alignment-baseline: central;">S2</text></g><path d="M255.5,58 v1084" style="stroke-width: 1; fill: none; stroke: black;"></path><rect width="37" height="38" style="stroke-width: 1; fill: none; stroke: black;" x="333.5" y="20"></rect><g><text fill="black" font-family="Helvetica,sans-Serif" x="352" y="39" style="text-anchor: middle; alignment-baseline: central;">S3</text></g><rect width="37" height="38" style="stroke-width: 1; fill: none; stroke: black;" x="333.5" y="1142"></rect><g><text fill="black" font-family="Helvetica,sans-Serif" x="352" y="1161" style="text-anchor: middle; alignment-baseline: central;">S3</text></g><path d="M352,58 v1084" style="stroke-width: 1; fill: none; stroke: black;"></path><rect width="37" height="38" style="stroke-width: 1; fill: none; stroke: black;" x="430" y="20"></rect><g><text fill="black" font-family="Helvetica,sans-Serif" x="448.5" y="39" style="text-anchor: middle; alignment-baseline: central;">T8</text></g><rect width="37" height="38" style="stroke-width: 1; fill: none; stroke: black;" x="430" y="1142"></rect><g><text fill="black" font-family="Helvetica,sans-Serif" x="448.5" y="1161" style="text-anchor: middle; alignment-baseline: central;">T8</text></g><path d="M448.5,58 v1084" style="stroke-width: 1; fill: none; stroke: black;"></path><rect width="37" height="38" style="stroke-width: 1; fill: none; stroke: black;" x="487" y="20"></rect><g><text fill="black" font-family="Helvetica,sans-Serif" x="505.5" y="39" style="text-anchor: middle; alignment-baseline: central;">S1</text></g><rect width="37" height="38" style="stroke-width: 1; fill: none; stroke: black;" x="487" y="1142"></rect><g><text fill="black" font-family="Helvetica,sans-Serif" x="505.5" y="1161" style="text-anchor: middle; alignment-baseline: central;">S1</text></g><path d="M505.5,58 v1084" style="stroke-width: 1; fill: none; stroke: black;"></path><rect width="37" height="38" style="stroke-width: 1; fill: none; stroke: black;" x="600.5" y="20"></rect><g><text fill="black" font-family="Helvetica,sans-Serif" x="619" y="39" style="text-anchor: middle; alignment-baseline: central;">T7</text></g><rect width="37" height="38" style="stroke-width: 1; fill: none; stroke: black;" x="600.5" y="1142"></rect><g><text fill="black" font-family="Helvetica,sans-Serif" x="619" y="1161" style="text-anchor: middle; alignment-baseline: central;">T7</text></g><path d="M619,58 v1084" style="stroke-width: 1; fill: none; stroke: black;"></path><g><text fill="black" font-family="Helvetica,sans-Serif" x="85.25" y="83" style="text-anchor: middle; alignment-baseline: central;">1.DNS_REQ</text></g><path d="M28.5,96 h113.5" style="stroke-width: 1; fill: none; stroke: black;" marker-end="url(#arrow-filled)"></path><g><text fill="black" font-family="Helvetica,sans-Serif" x="179.75" y="125" style="text-anchor: middle; alignment-baseline: central;">NAT</text></g><path d="M142,111 C182,111 182,144 142,144" style="stroke-width: 1; fill: none; stroke: black;" marker-end="url(#arrow-filled)"></path><g><text fill="black" font-family="Helvetica,sans-Serif" x="198.75" y="159" style="text-anchor: middle; alignment-baseline: central;">2.DNS_REQ</text></g><path d="M142,172 h113.5" style="stroke-width: 1; fill: none; stroke: black;" marker-end="url(#arrow-filled)"></path><g><text fill="black" font-family="Helvetica,sans-Serif" x="297.5" y="201" style="text-anchor: middle; alignment-baseline: central;">CONV</text></g><path d="M255.5,187 C295.5,187 295.5,220 255.5,220" style="stroke-width: 1; fill: none; stroke: black;" marker-end="url(#arrow-filled)"></path><g><text fill="black" font-family="Helvetica,sans-Serif" x="303.75" y="235" style="text-anchor: middle; alignment-baseline: central;">3.DNS_REQ</text></g><path d="M255.5,248 h96.5" style="stroke-width: 1; fill: none; stroke: black;" marker-end="url(#arrow-filled)"></path><g><text fill="black" font-family="Helvetica,sans-Serif" x="394" y="277" style="text-anchor: middle; alignment-baseline: central;">CONV</text></g><path d="M352,263 C392,263 392,296 352,296" style="stroke-width: 1; fill: none; stroke: black;" marker-end="url(#arrow-filled)"></path><g><text fill="black" font-family="Helvetica,sans-Serif" x="400.25" y="311" style="text-anchor: middle; alignment-baseline: central;">4.DNS_REQ</text></g><path d="M352,324 h96.5" style="stroke-width: 1; fill: none; stroke: black;" marker-end="url(#arrow-filled)"></path><g><text fill="black" font-family="Helvetica,sans-Serif" x="400.25" y="349" style="text-anchor: middle; alignment-baseline: central;">5.DNS_RES</text></g><path d="M448.5,362 h-96.5" style="stroke-width: 1; fill: none; stroke: black;" marker-end="url(#arrow-filled)"></path><g><text fill="black" font-family="Helvetica,sans-Serif" x="394" y="391" style="text-anchor: middle; alignment-baseline: central;">CONV</text></g><path d="M352,377 C392,377 392,410 352,410" style="stroke-width: 1; fill: none; stroke: black;" marker-end="url(#arrow-filled)"></path><g><text fill="black" font-family="Helvetica,sans-Serif" x="303.75" y="425" style="text-anchor: middle; alignment-baseline: central;">6.DNS_RES</text></g><path d="M352,438 h-96.5" style="stroke-width: 1; fill: none; stroke: black;" marker-end="url(#arrow-filled)"></path><g><text fill="black" font-family="Helvetica,sans-Serif" x="297.5" y="467" style="text-anchor: middle; alignment-baseline: central;">CONV</text></g><path d="M255.5,453 C295.5,453 295.5,486 255.5,486" style="stroke-width: 1; fill: none; stroke: black;" marker-end="url(#arrow-filled)"></path><g><text fill="black" font-family="Helvetica,sans-Serif" x="198.75" y="501" style="text-anchor: middle; alignment-baseline: central;">7.DNS_RES</text></g><path d="M255.5,514 h-113.5" style="stroke-width: 1; fill: none; stroke: black;" marker-end="url(#arrow-filled)"></path><g><text fill="black" font-family="Helvetica,sans-Serif" x="179.75" y="543" style="text-anchor: middle; alignment-baseline: central;">NAT</text></g><path d="M142,529 C182,529 182,562 142,562" style="stroke-width: 1; fill: none; stroke: black;" marker-end="url(#arrow-filled)"></path><g><text fill="black" font-family="Helvetica,sans-Serif" x="85.25" y="577" style="text-anchor: middle; alignment-baseline: central;">8.DNS_RES</text></g><path d="M142,590 h-113.5" style="stroke-width: 1; fill: none; stroke: black;" marker-end="url(#arrow-filled)"></path><g><text fill="black" font-family="Helvetica,sans-Serif" x="85.25" y="615" style="text-anchor: middle; alignment-baseline: central;">9.HTTP_REQ</text></g><path d="M28.5,628 h113.5" style="stroke-width: 1; fill: none; stroke: black;" marker-end="url(#arrow-filled)"></path><g><text fill="black" font-family="Helvetica,sans-Serif" x="179.75" y="657" style="text-anchor: middle; alignment-baseline: central;">NAT</text></g><path d="M142,643 C182,643 182,676 142,676" style="stroke-width: 1; fill: none; stroke: black;" marker-end="url(#arrow-filled)"></path><g><text fill="black" font-family="Helvetica,sans-Serif" x="198.75" y="691" style="text-anchor: middle; alignment-baseline: central;">10.HTTP_REQ</text></g><path d="M142,704 h113.5" style="stroke-width: 1; fill: none; stroke: black;" marker-end="url(#arrow-filled)"></path><g><text fill="black" font-family="Helvetica,sans-Serif" x="297.5" y="733" style="text-anchor: middle; alignment-baseline: central;">CONV</text></g><path d="M255.5,719 C295.5,719 295.5,752 255.5,752" style="stroke-width: 1; fill: none; stroke: black;" marker-end="url(#arrow-filled)"></path><g><text fill="black" font-family="Helvetica,sans-Serif" x="380.5" y="767" style="text-anchor: middle; alignment-baseline: central;">11.HTTP_REQ</text></g><path d="M255.5,780 h250" style="stroke-width: 1; fill: none; stroke: black;" marker-end="url(#arrow-filled)"></path><g><text fill="black" font-family="Helvetica,sans-Serif" x="547.5" y="809" style="text-anchor: middle; alignment-baseline: central;">CONV</text></g><path d="M505.5,795 C545.5,795 545.5,828 505.5,828" style="stroke-width: 1; fill: none; stroke: black;" marker-end="url(#arrow-filled)"></path><g><text fill="black" font-family="Helvetica,sans-Serif" x="562.25" y="843" style="text-anchor: middle; alignment-baseline: central;">12.HTTP_REQ</text></g><path d="M505.5,856 h113.5" style="stroke-width: 1; fill: none; stroke: black;" marker-end="url(#arrow-filled)"></path><g><text fill="black" font-family="Helvetica,sans-Serif" x="562.25" y="881" style="text-anchor: middle; alignment-baseline: central;">13.HTTP_RES</text></g><path d="M619,894 h-113.5" style="stroke-width: 1; fill: none; stroke: black;" marker-end="url(#arrow-filled)"></path><g><text fill="black" font-family="Helvetica,sans-Serif" x="547.5" y="923" style="text-anchor: middle; alignment-baseline: central;">CONV</text></g><path d="M505.5,909 C545.5,909 545.5,942 505.5,942" style="stroke-width: 1; fill: none; stroke: black;" marker-end="url(#arrow-filled)"></path><g><text fill="black" font-family="Helvetica,sans-Serif" x="380.5" y="957" style="text-anchor: middle; alignment-baseline: central;">14.HTTP_RES</text></g><path d="M505.5,970 h-250" style="stroke-width: 1; fill: none; stroke: black;" marker-end="url(#arrow-filled)"></path><g><text fill="black" font-family="Helvetica,sans-Serif" x="297.5" y="999" style="text-anchor: middle; alignment-baseline: central;">CONV</text></g><path d="M255.5,985 C295.5,985 295.5,1018 255.5,1018" style="stroke-width: 1; fill: none; stroke: black;" marker-end="url(#arrow-filled)"></path><g><text fill="black" font-family="Helvetica,sans-Serif" x="198.75" y="1033" style="text-anchor: middle; alignment-baseline: central;">15.HTTP_RES</text></g><path d="M255.5,1046 h-113.5" style="stroke-width: 1; fill: none; stroke: black;" marker-end="url(#arrow-filled)"></path><g><text fill="black" font-family="Helvetica,sans-Serif" x="179.75" y="1075" style="text-anchor: middle; alignment-baseline: central;">NAT</text></g><path d="M142,1061 C182,1061 182,1094 142,1094" style="stroke-width: 1; fill: none; stroke: black;" marker-end="url(#arrow-filled)"></path><g><text fill="black" font-family="Helvetica,sans-Serif" x="85.25" y="1109" style="text-anchor: middle; alignment-baseline: central;">16.HTTP_RES</text></g><path d="M142,1122 h-113.5" style="stroke-width: 1; fill: none; stroke: black;" marker-end="url(#arrow-filled)"></path></svg>