<?xml version="1.0" encoding="UTF-8" standalone="no"?>
<!DOCTYPE svg PUBLIC "-//W3C//DTD SVG 1.1//EN"
 "http://www.w3.org/Graphics/SVG/1.1/DTD/svg11.dtd">
<!-- Generated by graphviz version 2.40.1 (20161225.0304)
 -->
<!-- Title: G Pages: 1 -->
<svg width="300pt" height="187pt"
 viewBox="0.00 0.00 299.99 187.00" xmlns="http://www.w3.org/2000/svg" xmlns:xlink="http://www.w3.org/1999/xlink">
<g id="graph0" class="graph" transform="scale(1 1) rotate(0) translate(4 183)">
<title>G</title>
<polygon fill="#ffffff" stroke="transparent" points="-4,4 -4,-183 295.988,-183 295.988,4 -4,4"/>
<!-- A0 -->
<g id="node1" class="node">
<title>A0</title>
<ellipse fill="none" stroke="#000000" cx="192.2695" cy="-168" rx="11" ry="11"/>
</g>
<!-- A1 -->
<g id="node2" class="node">
<title>A1</title>
<path fill="none" stroke="#000000" d="M280.2073,-36C280.2073,-36 186.3317,-36 186.3317,-36 180.3317,-36 174.3317,-30 174.3317,-24 174.3317,-24 174.3317,-12 174.3317,-12 174.3317,-6 180.3317,0 186.3317,0 186.3317,0 280.2073,0 280.2073,0 286.2073,0 292.2073,-6 292.2073,-12 292.2073,-12 292.2073,-24 292.2073,-24 292.2073,-30 286.2073,-36 280.2073,-36"/>
<text text-anchor="middle" x="233.2695" y="-15" font-family="Helvetica,sans-Serif" font-size="10.00" fill="#000000">发送链路状态广播</text>
</g>
<!-- A0&#45;&gt;A1 -->
<g id="edge1" class="edge">
<title>A0&#45;&gt;A1</title>
<path fill="none" stroke="#000000" d="M180.939,-167.37C155.9646,-165.6344 94.7115,-159.4593 48.2695,-139 16.6582,-125.0741 -14.1183,-100.1597 7.2255,-73 26.5407,-48.4216 105.1442,-33.4574 164.2745,-25.4671"/>
<polygon fill="#000000" stroke="#000000" points="174.326,-24.1499 164.9956,-29.9112 169.3684,-24.7996 164.4108,-25.4494 164.4108,-25.4494 164.4108,-25.4494 169.3684,-24.7996 163.8261,-20.9875 174.326,-24.1499 174.326,-24.1499"/>
<text text-anchor="middle" x="23.2915" y="-88" font-family="Helvetica,sans-Serif" font-size="10.00" fill="#000000">5s定时</text>
</g>
<!-- A2 -->
<g id="node3" class="node">
<title>A2</title>
<path fill="none" stroke="#000000" d="M122.0558,-109C122.0558,-109 60.4832,-109 60.4832,-109 54.4832,-109 48.4832,-103 48.4832,-97 48.4832,-97 48.4832,-85 48.4832,-85 48.4832,-79 54.4832,-73 60.4832,-73 60.4832,-73 122.0558,-73 122.0558,-73 128.0558,-73 134.0558,-79 134.0558,-85 134.0558,-85 134.0558,-97 134.0558,-97 134.0558,-103 128.0558,-109 122.0558,-109"/>
<text text-anchor="middle" x="91.2695" y="-88" font-family="Helvetica,sans-Serif" font-size="10.00" fill="#000000">更新NOB字段</text>
</g>
<!-- A0&#45;&gt;A2 -->
<g id="edge3" class="edge">
<title>A0&#45;&gt;A2</title>
<path fill="none" stroke="#000000" d="M180.8699,-167.3687C150.8909,-165.4471 71.0615,-158.5558 55.2105,-139 49.4268,-131.8645 51.898,-123.9536 57.6263,-116.6468"/>
<polygon fill="#000000" stroke="#000000" points="64.8838,-109.0204 61.2499,-119.3667 61.4369,-112.6424 57.99,-116.2645 57.99,-116.2645 57.99,-116.2645 61.4369,-112.6424 54.7302,-113.1623 64.8838,-109.0204 64.8838,-109.0204"/>
<text text-anchor="middle" x="93.799" y="-130" font-family="Helvetica,sans-Serif" font-size="10.00" fill="#000000">时隙分配表更新</text>
</g>
<!-- A3 -->
<g id="node4" class="node">
<title>A3</title>
<path fill="none" stroke="#000000" d="M232.1151,-109C232.1151,-109 164.4238,-109 164.4238,-109 158.4238,-109 152.4238,-103 152.4238,-97 152.4238,-97 152.4238,-85 152.4238,-85 152.4238,-79 158.4238,-73 164.4238,-73 164.4238,-73 232.1151,-73 232.1151,-73 238.1151,-73 244.1151,-79 244.1151,-85 244.1151,-85 244.1151,-97 244.1151,-97 244.1151,-103 238.1151,-109 232.1151,-109"/>
<text text-anchor="middle" x="198.2695" y="-88" font-family="Helvetica,sans-Serif" font-size="10.00" fill="#000000">更新LOAD字段</text>
</g>
<!-- A0&#45;&gt;A3 -->
<g id="edge6" class="edge">
<title>A0&#45;&gt;A3</title>
<path fill="none" stroke="#000000" d="M181.5559,-165.1773C162.9903,-159.7076 127.8233,-146.4653 138.7945,-127 141.1872,-122.7547 144.3046,-118.9531 147.8586,-115.5607"/>
<polygon fill="#000000" stroke="#000000" points="155.6743,-109.1612 150.7879,-118.9783 151.8057,-112.3289 147.937,-115.4965 147.937,-115.4965 147.937,-115.4965 151.8057,-112.3289 145.0862,-112.0147 155.6743,-109.1612 155.6743,-109.1612"/>
<text text-anchor="middle" x="185.507" y="-130" font-family="Helvetica,sans-Serif" font-size="10.00" fill="#000000">队列待传数据量更新</text>
</g>
<!-- A1&#45;&gt;A0 -->
<g id="edge2" class="edge">
<title>A1&#45;&gt;A0</title>
<path fill="none" stroke="#000000" d="M236.5316,-36.0238C245.0507,-61.5978 260.9203,-108.6716 238.2695,-139 231.4619,-148.115 220.938,-154.64 211.5393,-159.1627"/>
<polygon fill="#000000" stroke="#000000" points="202.3551,-163.1757 209.7168,-155.0482 206.9368,-161.1737 211.5185,-159.1717 211.5185,-159.1717 211.5185,-159.1717 206.9368,-161.1737 213.3203,-163.2953 202.3551,-163.1757 202.3551,-163.1757"/>
</g>
<!-- A1&#45;&gt;A0 -->
<g id="edge5" class="edge">
<title>A1&#45;&gt;A0</title>
<path fill="none" stroke="#000000" d="M248.3782,-36.0238C263.0507,-61.5978 278.9203,-108.6716 256.2695,-139 246.1859,-152.5015 227.948,-160.3205 213.2098,-164.3666"/>
<polygon fill="#000000" stroke="#000000" points="203.2631,-166.6734 211.9879,-160.0305 208.1339,-165.5438 213.0046,-164.4141 213.0046,-164.4141 213.0046,-164.4141 208.1339,-165.5438 214.0213,-168.7978 203.2631,-166.6734 203.2631,-166.6734"/>
</g>
<!-- A2&#45;&gt;A1 -->
<g id="edge4" class="edge">
<title>A2&#45;&gt;A1</title>
<path fill="none" stroke="#000000" d="M126.3706,-72.9551C145.3156,-63.2157 168.8881,-51.0975 189.073,-40.7207"/>
<polygon fill="#000000" stroke="#000000" points="198.08,-36.0904 191.2439,-44.6646 193.6332,-38.3764 189.1864,-40.6625 189.1864,-40.6625 189.1864,-40.6625 193.6332,-38.3764 187.129,-36.6604 198.08,-36.0904 198.08,-36.0904"/>
</g>
<!-- A3&#45;&gt;A0 -->
<g id="edge7" class="edge">
<title>A3&#45;&gt;A0</title>
<path fill="none" stroke="#000000" d="M223.6173,-109.2837C232.3241,-117.8976 238.6736,-128.5583 233.2695,-139 228.6609,-147.9046 219.9192,-154.6611 211.6876,-159.4025"/>
<polygon fill="#000000" stroke="#000000" points="202.5371,-164.0508 209.4147,-155.5097 206.9949,-161.7863 211.4527,-159.5218 211.4527,-159.5218 211.4527,-159.5218 206.9949,-161.7863 213.4908,-163.5338 202.5371,-164.0508 202.5371,-164.0508"/>
</g>
</g>
</svg>
