<?xml version="1.0" encoding="UTF-8" standalone="no"?>
<!DOCTYPE svg PUBLIC "-//W3C//DTD SVG 1.1//EN"
 "http://www.w3.org/Graphics/SVG/1.1/DTD/svg11.dtd">
<!-- Generated by graphviz version 2.40.1 (20161225.0304)
 -->
<!-- Title: G Pages: 1 -->
<svg width="320pt" height="484pt"
 viewBox="0.00 0.00 320.23 484.00" xmlns="http://www.w3.org/2000/svg" xmlns:xlink="http://www.w3.org/1999/xlink">
<g id="graph0" class="graph" transform="scale(1 1) rotate(0) translate(4 480)">
<title>G</title>
<polygon fill="#ffffff" stroke="transparent" points="-4,4 -4,-480 316.2285,-480 316.2285,4 -4,4"/>
<!-- A0 -->
<g id="node1" class="node">
<title>A0</title>
<ellipse fill="none" stroke="#000000" cx="195.3125" cy="-465" rx="11" ry="11"/>
</g>
<!-- A1 -->
<g id="node2" class="node">
<title>A1</title>
<path fill="none" stroke="#000000" d="M246.4746,-417C246.4746,-417 144.1504,-417 144.1504,-417 138.1504,-417 132.1504,-411 132.1504,-405 132.1504,-405 132.1504,-393 132.1504,-393 132.1504,-387 138.1504,-381 144.1504,-381 144.1504,-381 246.4746,-381 246.4746,-381 252.4746,-381 258.4746,-387 258.4746,-393 258.4746,-393 258.4746,-405 258.4746,-405 258.4746,-411 252.4746,-417 246.4746,-417"/>
<text text-anchor="middle" x="195.3125" y="-396" font-family="Helvetica,sans-Serif" font-size="10.00" fill="#000000">接收到广播数据包rinfo</text>
</g>
<!-- A0&#45;&gt;A1 -->
<g id="edge1" class="edge">
<title>A0&#45;&gt;A1</title>
<path fill="none" stroke="#000000" d="M195.3125,-453.804C195.3125,-446.5358 195.3125,-436.7135 195.3125,-427.3916"/>
<polygon fill="#000000" stroke="#000000" points="195.3125,-417.2423 199.8126,-427.2423 195.3125,-422.2423 195.3126,-427.2423 195.3126,-427.2423 195.3126,-427.2423 195.3125,-422.2423 190.8126,-427.2424 195.3125,-417.2423 195.3125,-417.2423"/>
</g>
<!-- A2 -->
<g id="node3" class="node">
<title>A2</title>
<polygon fill="none" stroke="#000000" points="195.3125,-344 177.3125,-326 195.3125,-308 213.3125,-326 195.3125,-344"/>
</g>
<!-- A1&#45;&gt;A2 -->
<g id="edge2" class="edge">
<title>A1&#45;&gt;A2</title>
<path fill="none" stroke="#000000" d="M195.3125,-380.9551C195.3125,-372.8828 195.3125,-363.1764 195.3125,-354.1817"/>
<polygon fill="#000000" stroke="#000000" points="195.3125,-344.0904 199.8126,-354.0903 195.3125,-349.0904 195.3126,-354.0904 195.3126,-354.0904 195.3126,-354.0904 195.3125,-349.0904 190.8126,-354.0904 195.3125,-344.0904 195.3125,-344.0904"/>
</g>
<!-- A3 -->
<g id="node4" class="node">
<title>A3</title>
<path fill="none" stroke="#000000" d="M202.8742,-260C202.8742,-260 93.7508,-260 93.7508,-260 87.7508,-260 81.7508,-254 81.7508,-248 81.7508,-248 81.7508,-236 81.7508,-236 81.7508,-230 87.7508,-224 93.7508,-224 93.7508,-224 202.8742,-224 202.8742,-224 208.8742,-224 214.8742,-230 214.8742,-236 214.8742,-236 214.8742,-248 214.8742,-248 214.8742,-254 208.8742,-260 202.8742,-260"/>
<text text-anchor="middle" x="148.3125" y="-239" font-family="Helvetica,sans-Serif" font-size="10.00" fill="#000000">更新节点与链路状态表</text>
</g>
<!-- A2&#45;&gt;A3 -->
<g id="edge3" class="edge">
<title>A2&#45;&gt;A3</title>
<path fill="none" stroke="#000000" d="M185.6507,-317.388C178.5395,-310.5801 169.1136,-300.5022 163.1765,-290 159.6575,-283.7751 156.8681,-276.6154 154.7018,-269.7578"/>
<polygon fill="#000000" stroke="#000000" points="151.9616,-260.0708 159.0137,-268.4683 153.3226,-264.882 154.6836,-269.6932 154.6836,-269.6932 154.6836,-269.6932 153.3226,-264.882 150.3535,-270.9182 151.9616,-260.0708 151.9616,-260.0708"/>
<text text-anchor="middle" x="195.3805" y="-281" font-family="Helvetica,sans-Serif" font-size="10.00" fill="#000000">[seq_num较新]</text>
</g>
<!-- A6 -->
<g id="node7" class="node">
<title>A6</title>
<ellipse fill="none" stroke="#000000" cx="158.3125" cy="-15" rx="11" ry="11"/>
<ellipse fill="none" stroke="#000000" cx="158.3125" cy="-15" rx="15" ry="15"/>
</g>
<!-- A2&#45;&gt;A6 -->
<g id="edge8" class="edge">
<title>A2&#45;&gt;A6</title>
<path fill="none" stroke="#000000" d="M205.2939,-317.8039C212.8913,-311.0681 223.0726,-300.8903 229.3125,-290 240.3603,-270.7186 243.3125,-264.2222 243.3125,-242 243.3125,-242 243.3125,-242 243.3125,-85 243.3125,-53.2442 207.5237,-33.2267 182.3913,-23.0845"/>
<polygon fill="#000000" stroke="#000000" points="172.7316,-19.45 183.6757,-18.7599 177.4113,-21.2108 182.091,-22.9716 182.091,-22.9716 182.091,-22.9716 177.4113,-21.2108 180.5063,-27.1833 172.7316,-19.45 172.7316,-19.45"/>
<text text-anchor="middle" x="277.7705" y="-166" font-family="Helvetica,sans-Serif" font-size="10.00" fill="#000000">[seq_num较旧]</text>
</g>
<!-- A4 -->
<g id="node5" class="node">
<title>A4</title>
<polygon fill="none" stroke="#000000" points="148.3125,-187 130.3125,-169 148.3125,-151 166.3125,-169 148.3125,-187"/>
</g>
<!-- A3&#45;&gt;A4 -->
<g id="edge4" class="edge">
<title>A3&#45;&gt;A4</title>
<path fill="none" stroke="#000000" d="M148.3125,-223.9551C148.3125,-215.8828 148.3125,-206.1764 148.3125,-197.1817"/>
<polygon fill="#000000" stroke="#000000" points="148.3125,-187.0904 152.8126,-197.0903 148.3125,-192.0904 148.3126,-197.0904 148.3126,-197.0904 148.3126,-197.0904 148.3125,-192.0904 143.8126,-197.0904 148.3125,-187.0904 148.3125,-187.0904"/>
</g>
<!-- A5 -->
<g id="node6" class="node">
<title>A5</title>
<path fill="none" stroke="#000000" d="M110.4381,-103C110.4381,-103 12.1869,-103 12.1869,-103 6.1869,-103 .1869,-97 .1869,-91 .1869,-91 .1869,-79 .1869,-79 .1869,-73 6.1869,-67 12.1869,-67 12.1869,-67 110.4381,-67 110.4381,-67 116.4381,-67 122.4381,-73 122.4381,-79 122.4381,-79 122.4381,-91 122.4381,-91 122.4381,-97 116.4381,-103 110.4381,-103"/>
<text text-anchor="middle" x="61.3125" y="-82" font-family="Helvetica,sans-Serif" font-size="10.00" fill="#000000">回复本节点链路信息</text>
</g>
<!-- A4&#45;&gt;A5 -->
<g id="edge5" class="edge">
<title>A4&#45;&gt;A5</title>
<path fill="none" stroke="#000000" d="M135.0208,-164.0958C121.1531,-158.4165 99.5049,-147.8944 85.4025,-133 79.9375,-127.2281 75.4408,-119.9774 71.8736,-112.873"/>
<polygon fill="#000000" stroke="#000000" points="67.5817,-103.4283 75.8157,-110.6706 69.6503,-107.9803 71.7189,-112.5324 71.7189,-112.5324 71.7189,-112.5324 69.6503,-107.9803 67.6221,-114.3941 67.5817,-103.4283 67.5817,-103.4283"/>
<text text-anchor="middle" x="115.7675" y="-124" font-family="Helvetica,sans-Serif" font-size="10.00" fill="#000000">[新发现的节点]</text>
</g>
<!-- A4&#45;&gt;A6 -->
<g id="edge7" class="edge">
<title>A4&#45;&gt;A6</title>
<path fill="none" stroke="#000000" d="M149.4209,-151.9309C151.1767,-124.8906 154.6083,-72.0449 156.6568,-40.4979"/>
<polygon fill="#000000" stroke="#000000" points="157.3187,-30.3048 161.1611,-40.5754 156.9946,-35.2942 156.6706,-40.2837 156.6706,-40.2837 156.6706,-40.2837 156.9946,-35.2942 152.1801,-39.9921 157.3187,-30.3048 157.3187,-30.3048"/>
<text text-anchor="middle" x="183.014" y="-82" font-family="Helvetica,sans-Serif" font-size="10.00" fill="#000000">[已存在节点]</text>
</g>
<!-- A5&#45;&gt;A6 -->
<g id="edge6" class="edge">
<title>A5&#45;&gt;A6</title>
<path fill="none" stroke="#000000" d="M86.2924,-66.9733C102.3405,-55.3922 122.9217,-40.5397 137.9701,-29.6801"/>
<polygon fill="#000000" stroke="#000000" points="146.1149,-23.8024 140.6392,-33.3034 142.0604,-26.7284 138.0059,-29.6543 138.0059,-29.6543 138.0059,-29.6543 142.0604,-26.7284 135.3725,-26.0052 146.1149,-23.8024 146.1149,-23.8024"/>
</g>
</g>
</svg>
