<?xml version="1.0" encoding="UTF-8" standalone="no"?>
<!DOCTYPE svg PUBLIC "-//W3C//DTD SVG 1.1//EN"
 "http://www.w3.org/Graphics/SVG/1.1/DTD/svg11.dtd">
<!-- Generated by graphviz version 2.40.1 (20161225.0304)
 -->
<!-- Title: G Pages: 1 -->
<svg width="266pt" height="827pt"
 viewBox="0.00 0.00 265.69 827.00" xmlns="http://www.w3.org/2000/svg" xmlns:xlink="http://www.w3.org/1999/xlink">
<g id="graph0" class="graph" transform="scale(1 1) rotate(0) translate(4 823)">
<title>G</title>
<polygon fill="#ffffff" stroke="transparent" points="-4,4 -4,-823 261.689,-823 261.689,4 -4,4"/>
<!-- A0 -->
<g id="node1" class="node">
<title>A0</title>
<ellipse fill="none" stroke="#000000" cx="130.4055" cy="-808" rx="11" ry="11"/>
</g>
<!-- A1 -->
<g id="node2" class="node">
<title>A1</title>
<path fill="none" stroke="#000000" d="M155.5941,-749C155.5941,-749 105.2169,-749 105.2169,-749 99.2169,-749 93.2169,-743 93.2169,-737 93.2169,-737 93.2169,-725 93.2169,-725 93.2169,-719 99.2169,-713 105.2169,-713 105.2169,-713 155.5941,-713 155.5941,-713 161.5941,-713 167.5941,-719 167.5941,-725 167.5941,-725 167.5941,-737 167.5941,-737 167.5941,-743 161.5941,-749 155.5941,-749"/>
<text text-anchor="middle" x="130.4055" y="-728" font-family="Helvetica,sans-Serif" font-size="10.00" fill="#000000">数据类型?</text>
</g>
<!-- A0&#45;&gt;A1 -->
<g id="edge1" class="edge">
<title>A0&#45;&gt;A1</title>
<path fill="none" stroke="#000000" d="M130.4055,-796.9678C130.4055,-787.124 130.4055,-772.2813 130.4055,-759.1664"/>
<polygon fill="#000000" stroke="#000000" points="130.4055,-749.1474 134.9056,-759.1473 130.4055,-754.1474 130.4056,-759.1474 130.4056,-759.1474 130.4056,-759.1474 130.4055,-754.1474 125.9056,-759.1474 130.4055,-749.1474 130.4055,-749.1474"/>
<text text-anchor="middle" x="150.591" y="-770" font-family="Helvetica,sans-Serif" font-size="10.00" fill="#000000">收到SDU</text>
</g>
<!-- A2 -->
<g id="node3" class="node">
<title>A2</title>
<path fill="none" stroke="#000000" d="M138.7166,-665C138.7166,-665 12.0944,-665 12.0944,-665 6.0944,-665 .0944,-659 .0944,-653 .0944,-653 .0944,-641 .0944,-641 .0944,-635 6.0944,-629 12.0944,-629 12.0944,-629 138.7166,-629 138.7166,-629 144.7166,-629 150.7166,-635 150.7166,-641 150.7166,-641 150.7166,-653 150.7166,-653 150.7166,-659 144.7166,-665 138.7166,-665"/>
<text text-anchor="middle" x="75.4055" y="-644" font-family="Helvetica,sans-Serif" font-size="10.00" fill="#000000">执行MAC映射表查询流程</text>
</g>
<!-- A1&#45;&gt;A2 -->
<g id="edge2" class="edge">
<title>A1&#45;&gt;A2</title>
<path fill="none" stroke="#000000" d="M118.4713,-712.7733C110.9757,-701.3254 101.1796,-686.3641 92.8245,-673.6036"/>
<polygon fill="#000000" stroke="#000000" points="87.3164,-665.1912 96.5591,-671.0923 90.0553,-669.3743 92.7943,-673.5574 92.7943,-673.5574 92.7943,-673.5574 90.0553,-669.3743 89.0295,-676.0224 87.3164,-665.1912 87.3164,-665.1912"/>
<text text-anchor="middle" x="124.185" y="-686" font-family="Helvetica,sans-Serif" font-size="10.00" fill="#000000">业务数据</text>
</g>
<!-- A3 -->
<g id="node4" class="node">
<title>A3</title>
<path fill="none" stroke="#000000" d="M180.5989,-592C180.5989,-592 80.2121,-592 80.2121,-592 74.2121,-592 68.2121,-586 68.2121,-580 68.2121,-580 68.2121,-568 68.2121,-568 68.2121,-562 74.2121,-556 80.2121,-556 80.2121,-556 180.5989,-556 180.5989,-556 186.5989,-556 192.5989,-562 192.5989,-568 192.5989,-568 192.5989,-580 192.5989,-580 192.5989,-586 186.5989,-592 180.5989,-592"/>
<text text-anchor="middle" x="130.4055" y="-571" font-family="Helvetica,sans-Serif" font-size="10.00" fill="#000000">执行MAC包头生成流程</text>
</g>
<!-- A1&#45;&gt;A3 -->
<g id="edge4" class="edge">
<title>A1&#45;&gt;A3</title>
<path fill="none" stroke="#000000" d="M141.5599,-712.6752C152.5465,-692.3364 166.7032,-658.4871 159.4055,-629 157.044,-619.458 152.6931,-609.7452 148.0669,-601.1904"/>
<polygon fill="#000000" stroke="#000000" points="143.0201,-592.425 151.9096,-598.8459 145.515,-596.7582 148.0098,-601.0913 148.0098,-601.0913 148.0098,-601.0913 145.515,-596.7582 144.11,-603.3366 143.0201,-592.425 143.0201,-592.425"/>
<text text-anchor="middle" x="181.875" y="-644" font-family="Helvetica,sans-Serif" font-size="10.00" fill="#000000">控制数据</text>
</g>
<!-- A2&#45;&gt;A3 -->
<g id="edge3" class="edge">
<title>A2&#45;&gt;A3</title>
<path fill="none" stroke="#000000" d="M89.001,-628.9551C95.5456,-620.2686 103.5159,-609.6898 110.7095,-600.142"/>
<polygon fill="#000000" stroke="#000000" points="116.7758,-592.0904 114.3523,-602.7851 113.767,-596.0838 110.7582,-600.0772 110.7582,-600.0772 110.7582,-600.0772 113.767,-596.0838 107.1642,-597.3693 116.7758,-592.0904 116.7758,-592.0904"/>
</g>
<!-- A4 -->
<g id="node5" class="node">
<title>A4</title>
<path fill="none" stroke="#000000" d="M164.2682,-519C164.2682,-519 96.5428,-519 96.5428,-519 90.5428,-519 84.5428,-513 84.5428,-507 84.5428,-507 84.5428,-495 84.5428,-495 84.5428,-489 90.5428,-483 96.5428,-483 96.5428,-483 164.2682,-483 164.2682,-483 170.2682,-483 176.2682,-489 176.2682,-495 176.2682,-495 176.2682,-507 176.2682,-507 176.2682,-513 170.2682,-519 164.2682,-519"/>
<text text-anchor="middle" x="130.4055" y="-498" font-family="Helvetica,sans-Serif" font-size="10.00" fill="#000000">目的地址类型?</text>
</g>
<!-- A3&#45;&gt;A4 -->
<g id="edge5" class="edge">
<title>A3&#45;&gt;A4</title>
<path fill="none" stroke="#000000" d="M130.4055,-555.9551C130.4055,-547.8828 130.4055,-538.1764 130.4055,-529.1817"/>
<polygon fill="#000000" stroke="#000000" points="130.4055,-519.0904 134.9056,-529.0903 130.4055,-524.0904 130.4056,-529.0904 130.4056,-529.0904 130.4056,-529.0904 130.4055,-524.0904 125.9056,-529.0904 130.4055,-519.0904 130.4055,-519.0904"/>
</g>
<!-- A5 -->
<g id="node6" class="node">
<title>A5</title>
<path fill="none" stroke="#000000" d="M108.5929,-435C108.5929,-435 18.2181,-435 18.2181,-435 12.2181,-435 6.2181,-429 6.2181,-423 6.2181,-423 6.2181,-411 6.2181,-411 6.2181,-405 12.2181,-399 18.2181,-399 18.2181,-399 108.5929,-399 108.5929,-399 114.5929,-399 120.5929,-405 120.5929,-411 120.5929,-411 120.5929,-423 120.5929,-423 120.5929,-429 114.5929,-435 108.5929,-435"/>
<text text-anchor="middle" x="63.4055" y="-414" font-family="Helvetica,sans-Serif" font-size="10.00" fill="#000000">执行单播转发流程</text>
</g>
<!-- A4&#45;&gt;A5 -->
<g id="edge6" class="edge">
<title>A4&#45;&gt;A5</title>
<path fill="none" stroke="#000000" d="M115.8675,-482.7733C106.6487,-471.2154 94.5733,-456.0761 84.3319,-443.2361"/>
<polygon fill="#000000" stroke="#000000" points="77.9151,-435.1912 87.6688,-440.2029 81.0329,-439.1001 84.1508,-443.009 84.1508,-443.009 84.1508,-443.009 81.0329,-439.1001 80.6328,-445.815 77.9151,-435.1912 77.9151,-435.1912"/>
<text text-anchor="middle" x="118.3545" y="-456" font-family="Helvetica,sans-Serif" font-size="10.00" fill="#000000">单播地址</text>
</g>
<!-- A7 -->
<g id="node8" class="node">
<title>A7</title>
<path fill="none" stroke="#000000" d="M245.4733,-435C245.4733,-435 151.3377,-435 151.3377,-435 145.3377,-435 139.3377,-429 139.3377,-423 139.3377,-423 139.3377,-411 139.3377,-411 139.3377,-405 145.3377,-399 151.3377,-399 151.3377,-399 245.4733,-399 245.4733,-399 251.4733,-399 257.4733,-405 257.4733,-411 257.4733,-411 257.4733,-423 257.4733,-423 257.4733,-429 251.4733,-435 245.4733,-435"/>
<text text-anchor="middle" x="198.4055" y="-414" font-family="Helvetica,sans-Serif" font-size="10.00" fill="#000000">执行广播转发流程</text>
</g>
<!-- A4&#45;&gt;A7 -->
<g id="edge8" class="edge">
<title>A4&#45;&gt;A7</title>
<path fill="none" stroke="#000000" d="M145.1605,-482.7733C154.5169,-471.2154 166.7725,-456.0761 177.1667,-443.2361"/>
<polygon fill="#000000" stroke="#000000" points="183.6793,-435.1912 180.8849,-445.7951 180.5333,-439.0774 177.3873,-442.9636 177.3873,-442.9636 177.3873,-442.9636 180.5333,-439.0774 173.8897,-440.1322 183.6793,-435.1912 183.6793,-435.1912"/>
<text text-anchor="middle" x="187.2945" y="-456" font-family="Helvetica,sans-Serif" font-size="10.00" fill="#000000">广播地址</text>
</g>
<!-- A6 -->
<g id="node7" class="node">
<title>A6</title>
<path fill="none" stroke="#000000" d="M191.777,-362C191.777,-362 69.034,-362 69.034,-362 63.034,-362 57.034,-356 57.034,-350 57.034,-350 57.034,-338 57.034,-338 57.034,-332 63.034,-326 69.034,-326 69.034,-326 191.777,-326 191.777,-326 197.777,-326 203.777,-332 203.777,-338 203.777,-338 203.777,-350 203.777,-350 203.777,-356 197.777,-362 191.777,-362"/>
<text text-anchor="middle" x="130.4055" y="-341" font-family="Helvetica,sans-Serif" font-size="10.00" fill="#000000">执行传输队列进队流程</text>
</g>
<!-- A5&#45;&gt;A6 -->
<g id="edge7" class="edge">
<title>A5&#45;&gt;A6</title>
<path fill="none" stroke="#000000" d="M79.9673,-398.9551C88.1008,-390.0932 98.0421,-379.2616 106.9421,-369.5646"/>
<polygon fill="#000000" stroke="#000000" points="113.802,-362.0904 110.3555,-372.5006 110.4211,-365.774 107.0402,-369.4577 107.0402,-369.4577 107.0402,-369.4577 110.4211,-365.774 103.7249,-366.4149 113.802,-362.0904 113.802,-362.0904"/>
</g>
<!-- A8 -->
<g id="node9" class="node">
<title>A8</title>
<polygon fill="#d3d3d3" stroke="#000000" stroke-width="4" points="112.4055,-284.5 112.4055,-288.5 148.4055,-288.5 148.4055,-284.5 112.4055,-284.5"/>
<text text-anchor="middle" x="130.0445" y="-286.2" font-family="Helvetica,sans-Serif" font-size="1.00" fill="#000000"> </text>
</g>
<!-- A6&#45;&gt;A8 -->
<g id="edge10" class="edge">
<title>A6&#45;&gt;A8:n</title>
<path fill="none" stroke="#000000" d="M130.4055,-325.5C130.4055,-317.5749 130.4055,-307.9869 130.4055,-298.5678"/>
<polygon fill="#000000" stroke="#000000" points="130.4055,-288.5 134.9056,-298.5 130.4055,-293.5 130.4056,-298.5 130.4056,-298.5 130.4056,-298.5 130.4055,-293.5 125.9056,-298.5 130.4055,-288.5 130.4055,-288.5"/>
</g>
<!-- A7&#45;&gt;A6 -->
<g id="edge9" class="edge">
<title>A7&#45;&gt;A6</title>
<path fill="none" stroke="#000000" d="M181.5965,-398.9551C173.3416,-390.0932 163.252,-379.2616 154.2191,-369.5646"/>
<polygon fill="#000000" stroke="#000000" points="147.2568,-362.0904 157.3656,-366.3404 150.6648,-365.749 154.0729,-369.4076 154.0729,-369.4076 154.0729,-369.4076 150.6648,-365.749 150.7801,-372.4748 147.2568,-362.0904 147.2568,-362.0904"/>
</g>
<!-- A9 -->
<g id="node10" class="node">
<title>A9</title>
<polygon fill="none" stroke="#000000" points="60.4055,-204 60.4055,-236 200.4055,-236 200.4055,-204 60.4055,-204"/>
<text text-anchor="start" x="74" y="-217" font-family="Helvetica,sans-Serif" font-size="10.00" fill="#000000">执行传输队列出队流程</text>
<polygon fill="none" stroke="#000000" points="60.4055,-172 60.4055,-204 200.4055,-204 200.4055,-172 60.4055,-172"/>
<text text-anchor="start" x="69.925" y="-185" font-family="Helvetica,sans-Serif" font-size="10.00" fill="#000000">执行重传控制进队流程</text>
<polygon fill="none" stroke="#000000" points="60.4055,-140 60.4055,-172 200.4055,-172 200.4055,-140 60.4055,-140"/>
<text text-anchor="start" x="99.5595" y="-153" font-family="Helvetica,sans-Serif" font-size="10.00" fill="#000000">执行组包流程</text>
</g>
<!-- A8&#45;&gt;A9 -->
<g id="edge11" class="edge">
<title>A8&#45;&gt;A9</title>
<path fill="none" stroke="#000000" d="M130.4055,-284.4427C130.4055,-278.9924 130.4055,-263.4237 130.4055,-246.3433"/>
<polygon fill="#000000" stroke="#000000" points="130.4055,-236.1769 134.9056,-246.1769 130.4055,-241.1769 130.4056,-246.1769 130.4056,-246.1769 130.4056,-246.1769 130.4055,-241.1769 125.9056,-246.177 130.4055,-236.1769 130.4055,-236.1769"/>
<text text-anchor="middle" x="169.2125" y="-257" font-family="Helvetica,sans-Serif" font-size="10.00" fill="#000000">传输时隙开始</text>
</g>
<!-- A10 -->
<g id="node11" class="node">
<title>A10</title>
<path fill="none" stroke="#000000" d="M174.0052,-103C174.0052,-103 86.8058,-103 86.8058,-103 80.8058,-103 74.8058,-97 74.8058,-91 74.8058,-91 74.8058,-79 74.8058,-79 74.8058,-73 80.8058,-67 86.8058,-67 86.8058,-67 174.0052,-67 174.0052,-67 180.0052,-67 186.0052,-73 186.0052,-79 186.0052,-79 186.0052,-91 186.0052,-91 186.0052,-97 180.0052,-103 174.0052,-103"/>
<text text-anchor="middle" x="130.4055" y="-82" font-family="Helvetica,sans-Serif" font-size="10.00" fill="#000000">发送PDU至物理层</text>
</g>
<!-- A9&#45;&gt;A10 -->
<g id="edge12" class="edge">
<title>A9&#45;&gt;A10</title>
<path fill="none" stroke="#000000" d="M130.4055,-139.8173C130.4055,-130.789 130.4055,-121.6241 130.4055,-113.4388"/>
<polygon fill="#000000" stroke="#000000" points="130.4055,-103.3364 134.9056,-113.3364 130.4055,-108.3364 130.4056,-113.3364 130.4056,-113.3364 130.4056,-113.3364 130.4055,-108.3364 125.9056,-113.3365 130.4055,-103.3364 130.4055,-103.3364"/>
</g>
<!-- A11 -->
<g id="node12" class="node">
<title>A11</title>
<ellipse fill="none" stroke="#000000" cx="130.4055" cy="-15" rx="11" ry="11"/>
<ellipse fill="none" stroke="#000000" cx="130.4055" cy="-15" rx="15" ry="15"/>
</g>
<!-- A10&#45;&gt;A11 -->
<g id="edge13" class="edge">
<title>A10&#45;&gt;A11</title>
<path fill="none" stroke="#000000" d="M130.4055,-66.9733C130.4055,-58.9095 130.4055,-49.2597 130.4055,-40.4761"/>
<polygon fill="#000000" stroke="#000000" points="130.4055,-30.3564 134.9056,-40.3563 130.4055,-35.3564 130.4056,-40.3564 130.4056,-40.3564 130.4056,-40.3564 130.4055,-35.3564 125.9056,-40.3564 130.4055,-30.3564 130.4055,-30.3564"/>
</g>
</g>
</svg>
