<?xml version="1.0" encoding="UTF-8" standalone="no"?>
<!DOCTYPE svg PUBLIC "-//W3C//DTD SVG 1.1//EN"
 "http://www.w3.org/Graphics/SVG/1.1/DTD/svg11.dtd">
<!-- Generated by graphviz version 2.40.1 (20161225.0304)
 -->
<!-- Title: G Pages: 1 -->
<svg width="320pt" height="627pt"
 viewBox="0.00 0.00 320.44 627.00" xmlns="http://www.w3.org/2000/svg" xmlns:xlink="http://www.w3.org/1999/xlink">
<g id="graph0" class="graph" transform="scale(1 1) rotate(0) translate(4 623)">
<title>G</title>
<polygon fill="#ffffff" stroke="transparent" points="-4,4 -4,-623 316.441,-623 316.441,4 -4,4"/>
<!-- A0 -->
<g id="node1" class="node">
<title>A0</title>
<ellipse fill="none" stroke="#000000" cx="113.0975" cy="-608" rx="11" ry="11"/>
</g>
<!-- A1 -->
<g id="node2" class="node">
<title>A1</title>
<path fill="none" stroke="#000000" d="M148.8498,-549C148.8498,-549 77.3452,-549 77.3452,-549 71.3452,-549 65.3452,-543 65.3452,-537 65.3452,-537 65.3452,-525 65.3452,-525 65.3452,-519 71.3452,-513 77.3452,-513 77.3452,-513 148.8498,-513 148.8498,-513 154.8498,-513 160.8498,-519 160.8498,-525 160.8498,-525 160.8498,-537 160.8498,-537 160.8498,-543 154.8498,-549 148.8498,-549"/>
<text text-anchor="middle" x="113.0975" y="-528" font-family="Helvetica,sans-Serif" font-size="10.00" fill="#000000">执行解包流程</text>
</g>
<!-- A0&#45;&gt;A1 -->
<g id="edge1" class="edge">
<title>A0&#45;&gt;A1</title>
<path fill="none" stroke="#000000" d="M113.0975,-596.9678C113.0975,-587.124 113.0975,-572.2813 113.0975,-559.1664"/>
<polygon fill="#000000" stroke="#000000" points="113.0975,-549.1474 117.5976,-559.1473 113.0975,-554.1474 113.0976,-559.1474 113.0976,-559.1474 113.0976,-559.1474 113.0975,-554.1474 108.5976,-559.1474 113.0975,-549.1474 113.0975,-549.1474"/>
<text text-anchor="middle" x="152.302" y="-570" font-family="Helvetica,sans-Serif" font-size="10.00" fill="#000000">接收到物理层PDU</text>
</g>
<!-- A2 -->
<g id="node3" class="node">
<title>A2</title>
<path fill="none" stroke="#000000" d="M154.2926,-422C154.2926,-422 11.9024,-422 11.9024,-422 5.9024,-422 -.0976,-416 -.0976,-410 -.0976,-410 -.0976,-398 -.0976,-398 -.0976,-392 5.9024,-386 11.9024,-386 11.9024,-386 154.2926,-386 154.2926,-386 160.2926,-386 166.2926,-392 166.2926,-398 166.2926,-398 166.2926,-410 166.2926,-410 166.2926,-416 160.2926,-422 154.2926,-422"/>
<text text-anchor="middle" x="83.0975" y="-401" font-family="Helvetica,sans-Serif" font-size="10.00" fill="#000000">执行重传接收窗口移动流程</text>
</g>
<!-- A1&#45;&gt;A2 -->
<g id="edge2" class="edge">
<title>A1&#45;&gt;A2</title>
<path fill="none" stroke="#000000" d="M108.7992,-512.804C103.8091,-491.6791 95.5219,-456.5964 89.7101,-431.9935"/>
<polygon fill="#000000" stroke="#000000" points="87.3878,-422.1622 94.0663,-430.8599 88.5373,-427.0283 89.6868,-431.8944 89.6868,-431.8944 89.6868,-431.8944 88.5373,-427.0283 85.3073,-432.929 87.3878,-422.1622 87.3878,-422.1622"/>
</g>
<!-- A3 -->
<g id="node4" class="node">
<title>A3</title>
<path fill="none" stroke="#000000" d="M218.6225,-476C218.6225,-476 159.5725,-476 159.5725,-476 153.5725,-476 147.5725,-470 147.5725,-464 147.5725,-464 147.5725,-452 147.5725,-452 147.5725,-446 153.5725,-440 159.5725,-440 159.5725,-440 218.6225,-440 218.6225,-440 224.6225,-440 230.6225,-446 230.6225,-452 230.6225,-452 230.6225,-464 230.6225,-464 230.6225,-470 224.6225,-476 218.6225,-476"/>
<text text-anchor="middle" x="189.0975" y="-455" font-family="Helvetica,sans-Serif" font-size="10.00" fill="#000000">数据包类型?</text>
</g>
<!-- A1&#45;&gt;A3 -->
<g id="edge3" class="edge">
<title>A1&#45;&gt;A3</title>
<path fill="none" stroke="#000000" d="M131.884,-512.9551C141.2014,-504.0054 152.6102,-493.047 162.7818,-483.2769"/>
<polygon fill="#000000" stroke="#000000" points="170.2637,-476.0904 166.169,-486.2631 166.6577,-479.554 163.0517,-483.0177 163.0517,-483.0177 163.0517,-483.0177 166.6577,-479.554 159.9344,-479.7723 170.2637,-476.0904 170.2637,-476.0904"/>
</g>
<!-- A5 -->
<g id="node6" class="node">
<title>A5</title>
<path fill="none" stroke="#000000" d="M214.9602,-295C214.9602,-295 147.2348,-295 147.2348,-295 141.2348,-295 135.2348,-289 135.2348,-283 135.2348,-283 135.2348,-271 135.2348,-271 135.2348,-265 141.2348,-259 147.2348,-259 147.2348,-259 214.9602,-259 214.9602,-259 220.9602,-259 226.9602,-265 226.9602,-271 226.9602,-271 226.9602,-283 226.9602,-283 226.9602,-289 220.9602,-295 214.9602,-295"/>
<text text-anchor="middle" x="181.0975" y="-274" font-family="Helvetica,sans-Serif" font-size="10.00" fill="#000000">目的地址类型?</text>
</g>
<!-- A2&#45;&gt;A5 -->
<g id="edge7" class="edge">
<title>A2&#45;&gt;A5</title>
<path fill="none" stroke="#000000" d="M84.3808,-385.9792C86.2487,-370.4664 90.8353,-348.1029 102.0975,-332 110.8135,-319.5377 123.3152,-308.9857 135.8099,-300.5605"/>
<polygon fill="#000000" stroke="#000000" points="144.4124,-295.0701 138.4039,-304.2434 140.1977,-297.7601 135.9829,-300.4501 135.9829,-300.4501 135.9829,-300.4501 140.1977,-297.7601 133.5619,-296.6569 144.4124,-295.0701 144.4124,-295.0701"/>
</g>
<!-- A4 -->
<g id="node5" class="node">
<title>A4</title>
<path fill="none" stroke="#000000" d="M239.3477,-368C239.3477,-368 122.8473,-368 122.8473,-368 116.8473,-368 110.8473,-362 110.8473,-356 110.8473,-356 110.8473,-344 110.8473,-344 110.8473,-338 116.8473,-332 122.8473,-332 122.8473,-332 239.3477,-332 239.3477,-332 245.3477,-332 251.3477,-338 251.3477,-344 251.3477,-344 251.3477,-356 251.3477,-356 251.3477,-362 245.3477,-368 239.3477,-368"/>
<text text-anchor="middle" x="181.0975" y="-347" font-family="Helvetica,sans-Serif" font-size="10.00" fill="#000000">执行MAC映射表更新流程</text>
</g>
<!-- A3&#45;&gt;A4 -->
<g id="edge4" class="edge">
<title>A3&#45;&gt;A4</title>
<path fill="none" stroke="#000000" d="M187.7404,-439.6793C186.4916,-422.821 184.6208,-397.5651 183.1825,-378.147"/>
<polygon fill="#000000" stroke="#000000" points="182.4345,-368.0502 187.6611,-377.6904 182.804,-373.0365 183.1734,-378.0228 183.1734,-378.0228 183.1734,-378.0228 182.804,-373.0365 178.6857,-378.3553 182.4345,-368.0502 182.4345,-368.0502"/>
<text text-anchor="middle" x="203.877" y="-401" font-family="Helvetica,sans-Serif" font-size="10.00" fill="#000000">业务数据</text>
</g>
<!-- A3&#45;&gt;A5 -->
<g id="edge6" class="edge">
<title>A3&#45;&gt;A5</title>
<path fill="none" stroke="#000000" d="M212.033,-439.8375C239.7918,-415.5269 280.4394,-370.9484 260.0975,-332 253.4362,-319.2456 242.3192,-308.8491 230.4972,-300.6671"/>
<polygon fill="#000000" stroke="#000000" points="221.818,-295.0987 232.6647,-296.7112 226.0264,-297.7987 230.2347,-300.4987 230.2347,-300.4987 230.2347,-300.4987 226.0264,-297.7987 227.8047,-304.2862 221.818,-295.0987 221.818,-295.0987"/>
<text text-anchor="middle" x="285.567" y="-347" font-family="Helvetica,sans-Serif" font-size="10.00" fill="#000000">控制数据</text>
</g>
<!-- A4&#45;&gt;A5 -->
<g id="edge5" class="edge">
<title>A4&#45;&gt;A5</title>
<path fill="none" stroke="#000000" d="M181.0975,-331.9551C181.0975,-323.8828 181.0975,-314.1764 181.0975,-305.1817"/>
<polygon fill="#000000" stroke="#000000" points="181.0975,-295.0904 185.5976,-305.0903 181.0975,-300.0904 181.0976,-305.0904 181.0976,-305.0904 181.0976,-305.0904 181.0975,-300.0904 176.5976,-305.0904 181.0975,-295.0904 181.0975,-295.0904"/>
</g>
<!-- A6 -->
<g id="node7" class="node">
<title>A6</title>
<path fill="none" stroke="#000000" d="M133.1653,-211C133.1653,-211 39.0297,-211 39.0297,-211 33.0297,-211 27.0297,-205 27.0297,-199 27.0297,-199 27.0297,-187 27.0297,-187 27.0297,-181 33.0297,-175 39.0297,-175 39.0297,-175 133.1653,-175 133.1653,-175 139.1653,-175 145.1653,-181 145.1653,-187 145.1653,-187 145.1653,-199 145.1653,-199 145.1653,-205 139.1653,-211 133.1653,-211"/>
<text text-anchor="middle" x="86.0975" y="-190" font-family="Helvetica,sans-Serif" font-size="10.00" fill="#000000">执行广播转发流程</text>
</g>
<!-- A5&#45;&gt;A6 -->
<g id="edge8" class="edge">
<title>A5&#45;&gt;A6</title>
<path fill="none" stroke="#000000" d="M152.5359,-258.8836C144.7325,-253.4752 136.464,-247.2996 129.3195,-241 121.7836,-234.3553 114.2286,-226.4824 107.5907,-219.0548"/>
<polygon fill="#000000" stroke="#000000" points="100.7923,-211.2491 110.7535,-215.8344 104.0762,-215.0195 107.3601,-218.7899 107.3601,-218.7899 107.3601,-218.7899 104.0762,-215.0195 103.9667,-221.7455 100.7923,-211.2491 100.7923,-211.2491"/>
<text text-anchor="middle" x="147.9865" y="-232" font-family="Helvetica,sans-Serif" font-size="10.00" fill="#000000">广播地址</text>
</g>
<!-- A7 -->
<g id="node8" class="node">
<title>A7</title>
<path fill="none" stroke="#000000" d="M214.6715,-103C214.6715,-103 145.5235,-103 145.5235,-103 139.5235,-103 133.5235,-97 133.5235,-91 133.5235,-91 133.5235,-79 133.5235,-79 133.5235,-73 139.5235,-67 145.5235,-67 145.5235,-67 214.6715,-67 214.6715,-67 220.6715,-67 226.6715,-73 226.6715,-79 226.6715,-79 226.6715,-91 226.6715,-91 226.6715,-97 220.6715,-103 214.6715,-103"/>
<text text-anchor="middle" x="180.0975" y="-82" font-family="Helvetica,sans-Serif" font-size="10.00" fill="#000000">执行上传流程</text>
</g>
<!-- A5&#45;&gt;A7 -->
<g id="edge10" class="edge">
<title>A5&#45;&gt;A7</title>
<path fill="none" stroke="#000000" d="M181.0034,-258.9371C180.8288,-225.4168 180.4536,-153.3617 180.2449,-113.3098"/>
<polygon fill="#000000" stroke="#000000" points="180.1921,-103.1548 184.7442,-113.1311 180.2181,-108.1547 180.2442,-113.1546 180.2442,-113.1546 180.2442,-113.1546 180.2181,-108.1547 175.7443,-113.1781 180.1921,-103.1548 180.1921,-103.1548"/>
<text text-anchor="middle" x="202.88" y="-190" font-family="Helvetica,sans-Serif" font-size="10.00" fill="#000000">本节点地址</text>
</g>
<!-- A9 -->
<g id="node10" class="node">
<title>A9</title>
<path fill="none" stroke="#000000" d="M300.2849,-157C300.2849,-157 209.9101,-157 209.9101,-157 203.9101,-157 197.9101,-151 197.9101,-145 197.9101,-145 197.9101,-133 197.9101,-133 197.9101,-127 203.9101,-121 209.9101,-121 209.9101,-121 300.2849,-121 300.2849,-121 306.2849,-121 312.2849,-127 312.2849,-133 312.2849,-133 312.2849,-145 312.2849,-145 312.2849,-151 306.2849,-157 300.2849,-157"/>
<text text-anchor="middle" x="255.0975" y="-136" font-family="Helvetica,sans-Serif" font-size="10.00" fill="#000000">执行单播转发流程</text>
</g>
<!-- A5&#45;&gt;A9 -->
<g id="edge12" class="edge">
<title>A5&#45;&gt;A9</title>
<path fill="none" stroke="#000000" d="M197.5129,-258.7686C208.2413,-246.0993 221.9153,-228.4224 231.0975,-211 238.3917,-197.1599 244.0825,-180.6697 248.0882,-166.9649"/>
<polygon fill="#000000" stroke="#000000" points="250.8214,-157.1177 252.4828,-167.957 249.4841,-161.9355 248.1468,-166.7534 248.1468,-166.7534 248.1468,-166.7534 249.4841,-161.9355 243.8107,-165.5498 250.8214,-157.1177 250.8214,-157.1177"/>
<text text-anchor="middle" x="249.4585" y="-232" font-family="Helvetica,sans-Serif" font-size="10.00" fill="#000000">其他节点地址</text>
</g>
<!-- A6&#45;&gt;A7 -->
<g id="edge9" class="edge">
<title>A6&#45;&gt;A7</title>
<path fill="none" stroke="#000000" d="M102.0433,-174.6793C117.3277,-157.1185 140.5427,-130.4459 157.6844,-110.7512"/>
<polygon fill="#000000" stroke="#000000" points="164.3872,-103.0502 161.2163,-113.5476 161.1045,-106.8217 157.8219,-110.5932 157.8219,-110.5932 157.8219,-110.5932 161.1045,-106.8217 154.4275,-107.6389 164.3872,-103.0502 164.3872,-103.0502"/>
</g>
<!-- A8 -->
<g id="node9" class="node">
<title>A8</title>
<ellipse fill="none" stroke="#000000" cx="217.0975" cy="-15" rx="11" ry="11"/>
<ellipse fill="none" stroke="#000000" cx="217.0975" cy="-15" rx="15" ry="15"/>
</g>
<!-- A7&#45;&gt;A8 -->
<g id="edge11" class="edge">
<title>A7&#45;&gt;A8</title>
<path fill="none" stroke="#000000" d="M189.6259,-66.9733C194.3793,-57.9803 200.1754,-47.0148 205.2163,-37.478"/>
<polygon fill="#000000" stroke="#000000" points="209.9389,-28.5434 209.2442,-39.4872 207.6023,-32.9639 205.2657,-37.3843 205.2657,-37.3843 205.2657,-37.3843 207.6023,-32.9639 201.2873,-35.2814 209.9389,-28.5434 209.9389,-28.5434"/>
</g>
<!-- A9&#45;&gt;A8 -->
<g id="edge13" class="edge">
<title>A9&#45;&gt;A8</title>
<path fill="none" stroke="#000000" d="M250.7927,-120.818C247.209,-106.1806 241.7891,-85.1317 236.0975,-67 233.1595,-57.6405 229.5442,-47.4787 226.2586,-38.6419"/>
<polygon fill="#000000" stroke="#000000" points="222.6134,-29.0045 230.3602,-36.7658 224.3823,-33.6812 226.1512,-38.3578 226.1512,-38.3578 226.1512,-38.3578 224.3823,-33.6812 221.9422,-39.9499 222.6134,-29.0045 222.6134,-29.0045"/>
</g>
</g>
</svg>
