<?xml version="1.0" encoding="UTF-8" standalone="no"?>
<!DOCTYPE svg PUBLIC "-//W3C//DTD SVG 1.1//EN"
 "http://www.w3.org/Graphics/SVG/1.1/DTD/svg11.dtd">
<!-- Generated by graphviz version 2.40.1 (20161225.0304)
 -->
<!-- Title: G Pages: 1 -->
<svg width="249pt" height="511pt"
 viewBox="0.00 0.00 248.93 511.00" xmlns="http://www.w3.org/2000/svg" xmlns:xlink="http://www.w3.org/1999/xlink">
<g id="graph0" class="graph" transform="scale(1 1) rotate(0) translate(4 507)">
<title>G</title>
<polygon fill="#ffffff" stroke="transparent" points="-4,4 -4,-507 244.9285,-507 244.9285,4 -4,4"/>
<!-- A0 -->
<g id="node1" class="node">
<title>A0</title>
<path fill="none" stroke="#000000" d="M120.5822,-359C120.5822,-359 19.1198,-359 19.1198,-359 13.1198,-359 7.1198,-353 7.1198,-347 7.1198,-347 7.1198,-335 7.1198,-335 7.1198,-329 13.1198,-323 19.1198,-323 19.1198,-323 120.5822,-323 120.5822,-323 126.5822,-323 132.5822,-329 132.5822,-335 132.5822,-335 132.5822,-347 132.5822,-347 132.5822,-353 126.5822,-359 120.5822,-359"/>
<text text-anchor="middle" x="69.851" y="-338" font-family="Helvetica,sans-Serif" font-size="10.00" fill="#000000">接收到下行用户数据包</text>
</g>
<!-- A1 -->
<g id="node2" class="node">
<title>A1</title>
<path fill="none" stroke="#000000" d="M102.0854,-287C102.0854,-287 37.6166,-287 37.6166,-287 31.6166,-287 25.6166,-281 25.6166,-275 25.6166,-275 25.6166,-263 25.6166,-263 25.6166,-257 31.6166,-251 37.6166,-251 37.6166,-251 102.0854,-251 102.0854,-251 108.0854,-251 114.0854,-257 114.0854,-263 114.0854,-263 114.0854,-275 114.0854,-275 114.0854,-281 108.0854,-287 102.0854,-287"/>
<text text-anchor="middle" x="69.851" y="-266" font-family="Helvetica,sans-Serif" font-size="10.00" fill="#000000">确定下跳地址</text>
</g>
<!-- A0&#45;&gt;A1 -->
<g id="edge1" class="edge">
<title>A0&#45;&gt;A1</title>
<path fill="none" stroke="#000000" d="M69.851,-322.8314C69.851,-315.131 69.851,-305.9743 69.851,-297.4166"/>
<polygon fill="#000000" stroke="#000000" points="69.851,-287.4133 74.3511,-297.4132 69.851,-292.4133 69.8511,-297.4133 69.8511,-297.4133 69.8511,-297.4133 69.851,-292.4133 65.3511,-297.4133 69.851,-287.4133 69.851,-287.4133"/>
</g>
<!-- A2 -->
<g id="node3" class="node">
<title>A2</title>
<path fill="none" stroke="#000000" d="M127.5533,-215C127.5533,-215 12.1487,-215 12.1487,-215 6.1487,-215 .1487,-209 .1487,-203 .1487,-203 .1487,-191 .1487,-191 .1487,-185 6.1487,-179 12.1487,-179 12.1487,-179 127.5533,-179 127.5533,-179 133.5533,-179 139.5533,-185 139.5533,-191 139.5533,-191 139.5533,-203 139.5533,-203 139.5533,-209 133.5533,-215 127.5533,-215"/>
<text text-anchor="middle" x="69.851" y="-194" font-family="Helvetica,sans-Serif" font-size="10.00" fill="#000000">加入待传输优先级队列</text>
</g>
<!-- A1&#45;&gt;A2 -->
<g id="edge2" class="edge">
<title>A1&#45;&gt;A2</title>
<path fill="none" stroke="#000000" d="M69.851,-250.8314C69.851,-243.131 69.851,-233.9743 69.851,-225.4166"/>
<polygon fill="#000000" stroke="#000000" points="69.851,-215.4133 74.3511,-225.4132 69.851,-220.4133 69.8511,-225.4133 69.8511,-225.4133 69.8511,-225.4133 69.851,-220.4133 65.3511,-225.4133 69.851,-215.4133 69.851,-215.4133"/>
</g>
<!-- A3 -->
<g id="node4" class="node">
<title>A3</title>
<polygon fill="#d3d3d3" stroke="#000000" stroke-width="4" points="113.851,-138.5 113.851,-142.5 149.851,-142.5 149.851,-138.5 113.851,-138.5"/>
<text text-anchor="middle" x="122.49" y="-140.2" font-family="Helvetica,sans-Serif" font-size="1.00" fill="#000000"> </text>
<polyline fill="none" stroke="#000000" stroke-width="4" points="131.1289,-138.5 131.1289,-142.5 "/>
<text text-anchor="middle" x="140.2679" y="-140.2" font-family="Helvetica,sans-Serif" font-size="1.00" fill="#000000"> </text>
</g>
<!-- A2&#45;&gt;A3 -->
<g id="edge3" class="edge">
<title>A2&#45;&gt;A3:n</title>
<path fill="none" stroke="#000000" d="M100.9879,-178.9425C109.8206,-171.9278 117.944,-163.0347 121.2666,-152.5581"/>
<polygon fill="#000000" stroke="#000000" points="122.851,-142.5 125.7401,-153.0785 122.0729,-147.4391 121.2949,-152.3782 121.2949,-152.3782 121.2949,-152.3782 122.0729,-147.4391 116.8497,-151.6779 122.851,-142.5 122.851,-142.5"/>
</g>
<!-- A9 -->
<g id="node10" class="node">
<title>A9</title>
<path fill="none" stroke="#000000" d="M167.8453,-102C167.8453,-102 95.8567,-102 95.8567,-102 89.8567,-102 83.8567,-96 83.8567,-90 83.8567,-90 83.8567,-78 83.8567,-78 83.8567,-72 89.8567,-66 95.8567,-66 95.8567,-66 167.8453,-66 167.8453,-66 173.8453,-66 179.8453,-72 179.8453,-78 179.8453,-78 179.8453,-90 179.8453,-90 179.8453,-96 173.8453,-102 167.8453,-102"/>
<text text-anchor="middle" x="131.851" y="-81" font-family="Helvetica,sans-Serif" font-size="10.00" fill="#000000">传输至物理层</text>
</g>
<!-- A3&#45;&gt;A9 -->
<g id="edge9" class="edge">
<title>A3&#45;&gt;A9</title>
<path fill="none" stroke="#000000" d="M131.851,-138.0723C131.851,-133.4782 131.851,-123.0295 131.851,-112.5293"/>
<polygon fill="#000000" stroke="#000000" points="131.851,-102.2269 136.3511,-112.2269 131.851,-107.2269 131.8511,-112.2269 131.8511,-112.2269 131.8511,-112.2269 131.851,-107.2269 127.3511,-112.227 131.851,-102.2269 131.851,-102.2269"/>
</g>
<!-- A4 -->
<g id="node5" class="node">
<title>A4</title>
<path fill="none" stroke="#000000" d="M225.2248,-503C225.2248,-503 160.4772,-503 160.4772,-503 154.4772,-503 148.4772,-497 148.4772,-491 148.4772,-491 148.4772,-479 148.4772,-479 148.4772,-473 154.4772,-467 160.4772,-467 160.4772,-467 225.2248,-467 225.2248,-467 231.2248,-467 237.2248,-473 237.2248,-479 237.2248,-479 237.2248,-491 237.2248,-491 237.2248,-497 231.2248,-503 225.2248,-503"/>
<text text-anchor="middle" x="192.851" y="-482" font-family="Helvetica,sans-Serif" font-size="10.00" fill="#000000">数据时隙中断</text>
</g>
<!-- A5 -->
<g id="node6" class="node">
<title>A5</title>
<path fill="none" stroke="#000000" d="M229.0061,-431C229.0061,-431 156.6959,-431 156.6959,-431 150.6959,-431 144.6959,-425 144.6959,-419 144.6959,-419 144.6959,-407 144.6959,-407 144.6959,-401 150.6959,-395 156.6959,-395 156.6959,-395 229.0061,-395 229.0061,-395 235.0061,-395 241.0061,-401 241.0061,-407 241.0061,-407 241.0061,-419 241.0061,-419 241.0061,-425 235.0061,-431 229.0061,-431"/>
<text text-anchor="middle" x="192.851" y="-410" font-family="Helvetica,sans-Serif" font-size="10.00" fill="#000000">确定收发模式</text>
</g>
<!-- A4&#45;&gt;A5 -->
<g id="edge4" class="edge">
<title>A4&#45;&gt;A5</title>
<path fill="none" stroke="#000000" d="M192.851,-466.8314C192.851,-459.131 192.851,-449.9743 192.851,-441.4166"/>
<polygon fill="#000000" stroke="#000000" points="192.851,-431.4133 197.3511,-441.4132 192.851,-436.4133 192.8511,-441.4133 192.8511,-441.4133 192.8511,-441.4133 192.851,-436.4133 188.3511,-441.4133 192.851,-431.4133 192.851,-431.4133"/>
</g>
<!-- A6 -->
<g id="node7" class="node">
<title>A6</title>
<path fill="none" stroke="#000000" d="M223.5863,-359C223.5863,-359 162.1157,-359 162.1157,-359 156.1157,-359 150.1157,-353 150.1157,-347 150.1157,-347 150.1157,-335 150.1157,-335 150.1157,-329 156.1157,-323 162.1157,-323 162.1157,-323 223.5863,-323 223.5863,-323 229.5863,-323 235.5863,-329 235.5863,-335 235.5863,-335 235.5863,-347 235.5863,-347 235.5863,-353 229.5863,-359 223.5863,-359"/>
<text text-anchor="middle" x="192.851" y="-338" font-family="Helvetica,sans-Serif" font-size="10.00" fill="#000000">确定目标地址</text>
</g>
<!-- A5&#45;&gt;A6 -->
<g id="edge5" class="edge">
<title>A5&#45;&gt;A6</title>
<path fill="none" stroke="#000000" d="M192.851,-394.8314C192.851,-387.131 192.851,-377.9743 192.851,-369.4166"/>
<polygon fill="#000000" stroke="#000000" points="192.851,-359.4133 197.3511,-369.4132 192.851,-364.4133 192.8511,-369.4133 192.8511,-369.4133 192.8511,-369.4133 192.851,-364.4133 188.3511,-369.4133 192.851,-359.4133 192.851,-359.4133"/>
</g>
<!-- A7 -->
<g id="node8" class="node">
<title>A7</title>
<path fill="none" stroke="#000000" d="M223.265,-287C223.265,-287 162.437,-287 162.437,-287 156.437,-287 150.437,-281 150.437,-275 150.437,-275 150.437,-263 150.437,-263 150.437,-257 156.437,-251 162.437,-251 162.437,-251 223.265,-251 223.265,-251 229.265,-251 235.265,-257 235.265,-263 235.265,-263 235.265,-275 235.265,-275 235.265,-281 229.265,-287 223.265,-287"/>
<text text-anchor="middle" x="192.851" y="-266" font-family="Helvetica,sans-Serif" font-size="10.00" fill="#000000">确定天线指向</text>
</g>
<!-- A6&#45;&gt;A7 -->
<g id="edge6" class="edge">
<title>A6&#45;&gt;A7</title>
<path fill="none" stroke="#000000" d="M192.851,-322.8314C192.851,-315.131 192.851,-305.9743 192.851,-297.4166"/>
<polygon fill="#000000" stroke="#000000" points="192.851,-287.4133 197.3511,-297.4132 192.851,-292.4133 192.8511,-297.4133 192.8511,-297.4133 192.8511,-297.4133 192.851,-292.4133 188.3511,-297.4133 192.851,-287.4133 192.851,-287.4133"/>
</g>
<!-- A8 -->
<g id="node9" class="node">
<title>A8</title>
<path fill="none" stroke="#000000" d="M216.0904,-215C216.0904,-215 169.6116,-215 169.6116,-215 163.6116,-215 157.6116,-209 157.6116,-203 157.6116,-203 157.6116,-191 157.6116,-191 157.6116,-185 163.6116,-179 169.6116,-179 169.6116,-179 216.0904,-179 216.0904,-179 222.0904,-179 228.0904,-185 228.0904,-191 228.0904,-191 228.0904,-203 228.0904,-203 228.0904,-209 222.0904,-215 216.0904,-215"/>
<text text-anchor="middle" x="192.851" y="-194" font-family="Helvetica,sans-Serif" font-size="10.00" fill="#000000">准备传输</text>
</g>
<!-- A7&#45;&gt;A8 -->
<g id="edge7" class="edge">
<title>A7&#45;&gt;A8</title>
<path fill="none" stroke="#000000" d="M192.851,-250.8314C192.851,-243.131 192.851,-233.9743 192.851,-225.4166"/>
<polygon fill="#000000" stroke="#000000" points="192.851,-215.4133 197.3511,-225.4132 192.851,-220.4133 192.8511,-225.4133 192.8511,-225.4133 192.8511,-225.4133 192.851,-220.4133 188.3511,-225.4133 192.851,-215.4133 192.851,-215.4133"/>
</g>
<!-- A8&#45;&gt;A3 -->
<g id="edge8" class="edge">
<title>A8&#45;&gt;A3:n</title>
<path fill="none" stroke="#000000" d="M161.7141,-178.9425C152.8814,-171.9278 144.758,-163.0347 141.4354,-152.5581"/>
<polygon fill="#000000" stroke="#000000" points="139.851,-142.5 145.8523,-151.6779 140.6291,-147.4391 141.4071,-152.3782 141.4071,-152.3782 141.4071,-152.3782 140.6291,-147.4391 136.9619,-153.0785 139.851,-142.5 139.851,-142.5"/>
</g>
<!-- A10 -->
<g id="node11" class="node">
<title>A10</title>
<ellipse fill="none" stroke="#000000" cx="131.851" cy="-15" rx="11" ry="11"/>
<ellipse fill="none" stroke="#000000" cx="131.851" cy="-15" rx="15" ry="15"/>
</g>
<!-- A9&#45;&gt;A10 -->
<g id="edge10" class="edge">
<title>A9&#45;&gt;A10</title>
<path fill="none" stroke="#000000" d="M131.851,-65.8711C131.851,-58.1224 131.851,-48.9394 131.851,-40.5226"/>
<polygon fill="#000000" stroke="#000000" points="131.851,-30.4366 136.3511,-40.4366 131.851,-35.4366 131.8511,-40.4366 131.8511,-40.4366 131.8511,-40.4366 131.851,-35.4366 127.3511,-40.4367 131.851,-30.4366 131.851,-30.4366"/>
</g>
</g>
</svg>
