<svg height="751" viewBox="0 0 1063 751" width="1063" xmlns:xlink="http://www.w3.org/1999/xlink" xmlns="http://www.w3.org/2000/svg">
    <style type="text/css"><![CDATA[
.st2 {fill:#303030;font-family:SimHei;font-size:16pt}
.st4 {fill:#303030;font-family:SimSun;font-size:10pt}
.st1 {fill:#303030;font-family:SimSun;font-size:16pt}
.st5 {fill:#303030;font-family:Times New Roman;font-size:10pt}
.st3 {font-family:Times New Roman}
]]></style>
    <defs/>
    <g transform="translate(-2256,-1586)">
        <g transform="translate(2504.32,1916.78)" id="shape1">
            <text class="st1">
                <tspan x="138" y="46">...</tspan>
            </text>
        </g>
        <g transform="translate(2871.21,1916.78)" id="shape2">
            <text class="st1">
                <tspan x="138" y="46">...</tspan>
            </text>
        </g>
        <g transform="translate(2504.32,1989)" id="shape3">
            <text class="st1">
                <tspan x="138" y="46">...</tspan>
            </text>
        </g>
        <g transform="translate(2517.84,1746)" id="shape4">
            <text class="st2">
                <tspan x="5.3" y="22" class="st3">SDAP</tspan>
                <tspan>层</tspan>
            </text>
        </g>
        <g transform="translate(2316.5,1867)" id="shape5">
            <path fill="none" d="M151,38L151,0L0,0L0,38L151,38z" stroke="#000000"/>
            <text class="st4">
                <tspan x="43" y="23">路由表管理</tspan>
            </text>
        </g>
        <g transform="translate(2545.86,2153.1)" id="shape6">
            <path fill="none" d="M595.2,38L595.2,0L0,0L0,38L595.2,38z" stroke="#000000"/>
            <text class="st4">
                <tspan x="272.1" y="23">时隙控制</tspan>
            </text>
        </g>
        <g transform="translate(2316.51,1705)" id="shape7">
            <path fill="none" d="M151,38L151,0L0,0L0,38L151,38z" stroke="#000000"/>
            <text class="st5">
                <tspan x="63" y="22.5">RRC</tspan>
            </text>
        </g>
        <g transform="matrix(1,0,0,-1,2517.8,1905)" id="shape8">
            <path fill="none" d="M20,37L260,37L280,0L0,0L20,37z" stroke="#000000"/>
            <text transform="matrix(1,0,0,-1,0,37)" class="st4">
                <tspan x="98" y="22.5">转发控制/下行</tspan>
            </text>
        </g>
        <g transform="translate(2541.35,2014.55)" id="shape9">
            <path fill="none" d="M75.5,38L75.5,0L0,0L0,38L75.5,38z" stroke="#000000"/>
            <text class="st4">
                <tspan x="8.3" y="23">优先队列1</tspan>
            </text>
        </g>
        <g transform="translate(2690.49,2014.55)" id="shape10">
            <path fill="none" d="M93.2,38L93.2,0L0,0L0,38L93.2,38z" stroke="#000000"/>
            <text class="st4">
                <tspan x="14.1" y="23">优先队列20</tspan>
            </text>
        </g>
        <g transform="translate(2546.35,2225.55)" id="shape11">
            <path fill="none" d="M594.7,38L594.7,0L0,0L0,38L594.7,38z" stroke="#000000"/>
            <text class="st4">
                <tspan x="271.4" y="23">传输控制</tspan>
            </text>
        </g>
        <g transform="translate(2316.51,2153.1)" id="shape12">
            <path fill="none" d="M151,38L151,0L0,0L0,38L151,38z" stroke="#000000"/>
            <text class="st4">
                <tspan x="50" y="23">时隙管理</tspan>
            </text>
        </g>
        <g transform="translate(2547.35,2298)" id="shape13">
            <path fill="none" d="M593.7,38L593.7,0L0,0L0,38L593.7,38z" stroke="#000000"/>
            <text class="st4">
                <tspan x="277.4" y="23">物理层</tspan>
            </text>
        </g>
        <g transform="translate(2316.51,2014.55)" id="shape14">
            <path fill="none" d="M151,38L151,0L0,0L0,38L151,38z" stroke="#000000"/>
            <text class="st4">
                <tspan x="50" y="23">队列管理</tspan>
            </text>
        </g>
        <path fill="none" transform="matrix(0,1,-1,0,2499.1,1595)" stroke-dasharray="11,5" d="M0,0L189,0" stroke="#000000" id="shape15"/>
        <path fill="none" transform="translate(2261,1784)" stroke-dasharray="11,5" d="M0,0L963.1,0" stroke="#000000" id="shape16"/>
        <g transform="translate(2467.5,1886)" id="shape17">
            <path fill="none" d="M4.4,0L18.3,0L56,.4" stroke="#000000"/>
            <path fill="#000000" d="M0,0L5.2,3C4.7,2.1,4.4,1.1,4.4,0C4.4,-1.1,4.7,-2.1,5.2,-3L0,0" stroke="#000000" stroke-linecap="round" stroke-width="1"/>
            <path fill="#000000" d="M60.3,.5L55.2,-2.6C55.7,-1.7,56,-0.6,56,.4C55.9,1.5,55.6,2.6,55.1,3.4L60.3,.5" stroke="#000000" stroke-linecap="round" stroke-width="1"/>
        </g>
        <g transform="translate(2467.51,2033.55)" id="shape18">
            <path fill="none" d="M4.4,0L69.4,0" stroke="#000000"/>
            <path fill="#000000" d="M0,0L5.2,3C4.7,2.1,4.4,1.1,4.4,0C4.4,-1.1,4.7,-2.1,5.2,-3L0,0" stroke="#000000" stroke-linecap="round" stroke-width="1"/>
            <path fill="#000000" d="M73.8,0L68.6,-3C69.2,-2.1,69.4,-1.1,69.4,0C69.4,1.1,69.2,2.1,68.6,3L73.8,0" stroke="#000000" stroke-linecap="round" stroke-width="1"/>
        </g>
        <g transform="translate(2467.51,2172.1)" id="shape19">
            <path fill="none" d="M4.4,0L74,0" stroke="#000000"/>
            <path fill="#000000" d="M0,0L5.2,3C4.7,2.1,4.4,1.1,4.4,0C4.4,-1.1,4.7,-2.1,5.2,-3L0,0" stroke="#000000" stroke-linecap="round" stroke-width="1"/>
            <path fill="#000000" d="M78.4,0L73.2,-3C73.7,-2.1,74,-1.1,74,0C74,1.1,73.7,2.1,73.2,3L78.4,0" stroke="#000000" stroke-linecap="round" stroke-width="1"/>
        </g>
        <g transform="translate(2316.49,1784)" id="shape20">
            <text class="st2">
                <tspan x="9.5" y="22" class="st3">MAC</tspan>
                <tspan>层</tspan>
            </text>
        </g>
        <g transform="translate(2316.49,2290.1)" id="shape21">
            <text class="st2">
                <tspan x="12.5" y="23">物理层</tspan>
            </text>
        </g>
        <path fill="none" transform="translate(2326.08,2282.1)" stroke-dasharray="11,5" d="M0,0L899,0" stroke="#000000" id="shape22"/>
        <g transform="translate(2316.51,1724)" id="shape23">
            <path fill="none" d="M0,0L-32,0L-32,162L-4.4,162" stroke="#000000"/>
            <path fill="#000000" d="M-0,162L-5.2,159C-4.7,159.9,-4.4,160.9,-4.4,162C-4.4,163.1,-4.7,164.1,-5.2,165L-0,162" stroke="#000000" stroke-linecap="round" stroke-width="1"/>
        </g>
        <g transform="translate(2316.51,1724)" id="shape24">
            <path fill="none" d="M0,0L-32,0L-32,309.6L-4.4,309.6" stroke="#000000"/>
            <path fill="#000000" d="M0,309.6L-5.2,306.6C-4.7,307.4,-4.4,308.5,-4.4,309.6C-4.4,310.6,-4.7,311.7,-5.2,312.6L0,309.6" stroke="#000000" stroke-linecap="round" stroke-width="1"/>
        </g>
        <g transform="translate(2316.51,1724)" id="shape25">
            <path fill="none" d="M0,0L-32,0L-32,448.1L-4.4,448.1" stroke="#000000"/>
            <path fill="#000000" d="M0,448.1L-5.2,445.1C-4.7,446,-4.4,447,-4.4,448.1C-4.4,449.2,-4.7,450.2,-5.2,451.1L0,448.1" stroke="#000000" stroke-linecap="round" stroke-width="1"/>
        </g>
        <g transform="translate(2316.51,1724)" id="shape26">
            <path fill="none" d="M0,0L-32,0L-32,520.5L-4.4,520.5" stroke="#000000"/>
            <path fill="#000000" d="M0,520.5L-5.2,517.5C-4.7,518.4,-4.4,519.5,-4.4,520.5C-4.4,521.6,-4.7,522.7,-5.2,523.5L0,520.5" stroke="#000000" stroke-linecap="round" stroke-width="1"/>
        </g>
        <g transform="translate(2843.47,2191.1)" id="shape27">
            <path fill="none" d="M0,11.3L0,18.4L.1,23.1" stroke="#000000" stroke-width="6.66667"/>
            <path fill="#000000" d="M0,0L-7.7,13.4C-5.5,12.1,-2.8,11.3,0,11.3C2.8,11.3,5.5,12.1,7.7,13.4L0,0" stroke="#000000" stroke-linecap="round" stroke-width="1"/>
            <path fill="#000000" d="M.2,34.5L7.8,20.9C5.5,22.3,2.9,23.1,.1,23.1C-2.8,23.2,-5.4,22.4,-7.7,21.2L.2,34.5" stroke="#000000" stroke-linecap="round" stroke-width="1"/>
        </g>
        <g transform="translate(2843.72,2263.55)" id="shape28">
            <path fill="none" d="M0,11.3L0,18.4L.1,23.1" stroke="#000000" stroke-width="6.66667"/>
            <path fill="#000000" d="M0,0L-7.7,13.4C-5.5,12.1,-2.8,11.3,0,11.3C2.8,11.3,5.5,12.1,7.7,13.4L0,0" stroke="#000000" stroke-linecap="round" stroke-width="1"/>
            <path fill="#000000" d="M.5,34.5L7.8,20.8C5.6,22.2,3,23,.1,23.1C-2.7,23.2,-5.3,22.5,-7.7,21.3L.5,34.5" stroke="#000000" stroke-linecap="round" stroke-width="1"/>
        </g>
        <g transform="translate(2316.51,2225.55)" id="shape29">
            <path fill="none" d="M151,38L151,0L0,0L0,38L151,38z" stroke="#000000"/>
            <text class="st4">
                <tspan x="50" y="23">波束管理</tspan>
            </text>
        </g>
        <g transform="translate(2541.35,1945)" id="shape30">
            <path fill="none" d="M75.5,38L75.5,0L0,0L0,38L75.5,38z" stroke="#000000"/>
            <text class="st4">
                <tspan x="8.3" y="23">重传控制1</tspan>
            </text>
        </g>
        <g transform="translate(2695.78,1945)" id="shape31">
            <path fill="none" d="M82.6,38L82.6,0L0,0L0,38L82.6,38z" stroke="#000000"/>
            <text class="st4">
                <tspan x="9.3" y="16">重传控制20</tspan>
                <tspan x="28.3" y="30">下行</tspan>
            </text>
        </g>
        <g transform="translate(2657.85,1905)" id="shape32">
            <path fill="none" d="M0,0L-68.6,34.9" stroke="#000000" stroke-width="6.66667"/>
            <path fill="#000000" d="M-78.8,40L-63.3,40.8C-65.5,39.4,-67.4,37.4,-68.6,34.9C-69.9,32.3,-70.4,29.6,-70.3,27L-78.8,40" stroke="#000000" stroke-linecap="round" stroke-width="1"/>
        </g>
        <g transform="translate(2657.85,1905)" id="shape33">
            <path fill="none" d="M0,0L69.1,34.9" stroke="#000000" stroke-width="6.66667"/>
            <path fill="#000000" d="M79.3,40L70.8,27C70.9,29.7,70.4,32.4,69.1,34.9C67.9,37.4,66,39.4,63.8,40.9L79.3,40" stroke="#000000" stroke-linecap="round" stroke-width="1"/>
        </g>
        <g transform="translate(2579.1,1983)" id="shape34">
            <path fill="none" d="M0,0L0,20.2" stroke="#000000" stroke-width="6.66667"/>
            <path fill="#000000" d="M0,31.6L7.7,18.1C5.5,19.5,2.8,20.2,0,20.2C-2.8,20.2,-5.5,19.5,-7.7,18.1L0,31.6" stroke="#000000" stroke-linecap="round" stroke-width="1"/>
        </g>
        <g transform="translate(2737.1,1983)" id="shape35">
            <path fill="none" d="M0,0L0,20.2" stroke="#000000" stroke-width="6.66667"/>
            <path fill="#000000" d="M0,31.5L7.7,18.1C5.5,19.5,2.8,20.2,0,20.2C-2.8,20.2,-5.5,19.5,-7.7,18.1L0,31.5" stroke="#000000" stroke-linecap="round" stroke-width="1"/>
        </g>
        <g transform="matrix(1,0,0,-1,2884.7,1905)" id="shape36">
            <path fill="none" d="M20,37L260,37L280,0L0,0L20,37z" stroke="#000000"/>
            <text transform="matrix(1,0,0,-1,0,37)" class="st4">
                <tspan x="98" y="22.5">转发控制/上行</tspan>
            </text>
        </g>
        <g transform="translate(2894.74,1886.5)" id="shape37">
            <path fill="none" d="M0,0L-95.6,0" stroke="#000000" stroke-width="6.66667"/>
            <path fill="#000000" d="M-106.9,0L-93.5,7.7C-94.8,5.5,-95.6,2.8,-95.6,0C-95.6,-2.8,-94.8,-5.5,-93.5,-7.7L-106.9,0" stroke="#000000" stroke-linecap="round" stroke-width="1"/>
        </g>
        <g transform="translate(2903.24,1945)" id="shape38">
            <path fill="none" d="M75.5,38L75.5,0L0,0L0,38L75.5,38z" stroke="#000000"/>
            <text class="st4">
                <tspan x="8.3" y="16">重传控制1</tspan>
                <tspan x="25.3" y="30">上行</tspan>
            </text>
        </g>
        <g transform="translate(3061,1945)" id="shape39">
            <path fill="none" d="M85.8,38L85.8,0L0,0L0,38L85.8,38z" stroke="#000000"/>
            <text class="st4">
                <tspan x="10.4" y="16">重传控制20</tspan>
                <tspan x="30.4" y="30">上行</tspan>
            </text>
        </g>
        <g transform="translate(2517.85,2085.5)" id="shape40">
            <path fill="none" d="M20,37L260,37L280,0L0,0L20,37z" stroke="#000000"/>
            <text class="st4">
                <tspan x="127" y="22.5">组包</tspan>
            </text>
        </g>
        <g transform="translate(2884.74,2085.5)" id="shape41">
            <path fill="none" d="M20,37L260,37L280,0L0,0L20,37z" stroke="#000000"/>
            <text class="st4">
                <tspan x="127" y="22.5">解包</tspan>
            </text>
        </g>
        <g transform="translate(3024.74,2085.5)" id="shape42">
            <path fill="none" d="M0,0L0,-70.5L-83.8,-70.5L-83.8,-91.2" stroke="#000000" stroke-width="6.66667"/>
            <path fill="#000000" d="M-83.8,-102.5L-91.5,-89.1C-89.2,-90.4,-86.6,-91.2,-83.8,-91.2C-80.9,-91.2,-78.3,-90.4,-76,-89.1L-83.8,-102.5" stroke="#000000" stroke-linecap="round" stroke-width="1"/>
        </g>
        <g transform="translate(3024.74,2085.5)" id="shape43">
            <path fill="none" d="M0,0L0,-70.5L79.1,-70.5L79.1,-91.2" stroke="#000000" stroke-width="6.66667"/>
            <path fill="#000000" d="M79.1,-102.5L71.4,-89.1C73.7,-90.4,76.3,-91.2,79.1,-91.2C82,-91.2,84.6,-90.4,86.9,-89.1L79.1,-102.5" stroke="#000000" stroke-linecap="round" stroke-width="1"/>
        </g>
        <g transform="translate(2579.1,2052.55)" id="shape44">
            <path fill="none" d="M0,0L0,21.1" stroke="#000000" stroke-width="6.66667"/>
            <path fill="#000000" d="M0,32.5L7.7,19C5.5,20.4,2.8,21.1,0,21.1C-2.8,21.1,-5.5,20.4,-7.7,19L0,32.5" stroke="#000000" stroke-linecap="round" stroke-width="1"/>
        </g>
        <g transform="translate(2737.1,2052.55)" id="shape45">
            <path fill="none" d="M0,0L0,21.1" stroke="#000000" stroke-width="6.66667"/>
            <path fill="#000000" d="M0,32.4L7.7,19C5.5,20.4,2.8,21.1,0,21.1C-2.8,21.1,-5.5,20.4,-7.7,19L0,32.4" stroke="#000000" stroke-linecap="round" stroke-width="1"/>
        </g>
        <g transform="translate(2940.99,1945)" id="shape46">
            <path fill="none" d="M0,0L0,-28.7" stroke="#000000" stroke-width="6.66667"/>
            <path fill="#000000" d="M0,-40L-7.7,-26.6C-5.5,-27.9,-2.8,-28.7,0,-28.7C2.8,-28.7,5.5,-27.9,7.7,-26.6L0,-40" stroke="#000000" stroke-linecap="round" stroke-width="1"/>
        </g>
        <g transform="translate(3103.88,1945)" id="shape47">
            <path fill="none" d="M0,0L0,-28.7" stroke="#000000" stroke-width="6.66667"/>
            <path fill="#000000" d="M0,-40L-7.7,-26.6C-5.5,-27.9,-2.8,-28.7,0,-28.7C2.8,-28.7,5.5,-27.9,7.7,-26.6L0,-40" stroke="#000000" stroke-linecap="round" stroke-width="1"/>
        </g>
        <g transform="translate(2582.35,1705)" id="shape48">
            <path fill="none" d="M151,38L151,0L0,0L0,38L151,38z" stroke="#000000"/>
            <text class="st4">
                <tspan x="46" y="22.5" class="st3">SDAP</tspan>
                <tspan>下行</tspan>
            </text>
        </g>
        <g transform="translate(2949.24,1705)" id="shape49">
            <path fill="none" d="M151,38L151,0L0,0L0,38L151,38z" stroke="#000000"/>
            <text class="st4">
                <tspan x="46" y="22.5" class="st3">SDAP</tspan>
                <tspan>上行</tspan>
            </text>
        </g>
        <g transform="translate(2467.51,2244.55)" id="shape50">
            <path fill="none" d="M4.4,0L74.4,0" stroke="#000000"/>
            <path fill="#000000" d="M0,0L5.2,3C4.7,2.1,4.4,1.1,4.4,0C4.4,-1.1,4.7,-2.1,5.2,-3L0,0" stroke="#000000" stroke-linecap="round" stroke-width="1"/>
            <path fill="#000000" d="M78.8,0L73.6,-3C74.2,-2.1,74.4,-1.1,74.4,0C74.4,1.1,74.2,2.1,73.6,3L78.8,0" stroke="#000000" stroke-linecap="round" stroke-width="1"/>
        </g>
        <path fill="none" transform="matrix(0,1,-1,0,3225.1,1785)" stroke-dasharray="11,5" d="M0,0L499,0" stroke="#000000" id="shape51"/>
        <g transform="translate(3284.75,2188)">
            <path fill="#ffffff" d="M0,0L11,15.2L22,0L0,0z" stroke="#000000" id="shape52"/>
            <path fill="none" transform="translate(11,0)" d="M0,0L0,38" stroke="#000000" id="shape53"/>
        </g>
        <g transform="translate(3273.5,2225.55)" id="shape54">
            <path fill="none" d="M44.5,38L44.5,0L0,0L0,38L44.5,38z" stroke="#000000"/>
            <text class="st4">
                <tspan x="9.3" y="16">天线</tspan>
                <tspan x="9.3" y="30">调度</tspan>
            </text>
        </g>
        <g transform="translate(3141.08,2244.55)" id="shape55">
            <path fill="none" d="M4.4,0L128,0" stroke="#000000"/>
            <path fill="#000000" d="M0,0L5.2,3C4.7,2.1,4.4,1.1,4.4,0C4.4,-1.1,4.7,-2.1,5.2,-3L0,0" stroke="#000000" stroke-linecap="round" stroke-width="1"/>
            <path fill="#000000" d="M132.4,0L127.2,-3C127.7,-2.1,128,-1.1,128,0C128,1.1,127.7,2.1,127.2,3L132.4,0" stroke="#000000" stroke-linecap="round" stroke-width="1"/>
        </g>
        <g transform="translate(2657.85,2122.5)" id="shape56">
            <path fill="none" d="M0,0L0,18.2" stroke="#000000" stroke-width="6.66667"/>
            <path fill="#000000" d="M0,29.5L7.7,16.1C5.5,17.4,2.8,18.2,0,18.2C-2.8,18.2,-5.5,17.4,-7.7,16.1L0,29.5" stroke="#000000" stroke-linecap="round" stroke-width="1"/>
        </g>
        <g transform="translate(3024,2151)" id="shape57">
            <path fill="none" d="M0,0L0,-17.2" stroke="#000000" stroke-width="6.66667"/>
            <path fill="#000000" d="M0,-28.5L-7.7,-15.1C-5.5,-16.4,-2.8,-17.2,0,-17.2C2.8,-17.2,5.5,-16.4,7.7,-15.1L0,-28.5" stroke="#000000" stroke-linecap="round" stroke-width="1"/>
        </g>
        <g transform="translate(2316.51,1945)" id="shape58">
            <path fill="none" d="M151,38L151,0L0,0L0,38L151,38z" stroke="#000000"/>
            <text class="st4">
                <tspan x="50" y="23">重传管理</tspan>
            </text>
        </g>
        <g transform="translate(2316.51,1724)" id="shape59">
            <path fill="none" d="M0,0L-32,0L-32,240L-4.4,240" stroke="#000000"/>
            <path fill="#000000" d="M0,240L-5.2,237C-4.7,237.9,-4.4,238.9,-4.4,240C-4.4,241.1,-4.7,242.1,-5.2,243L0,240" stroke="#000000" stroke-linecap="round" stroke-width="1"/>
        </g>
        <g transform="translate(2467.51,1964)" id="shape60">
            <path fill="none" d="M4.4,0L69.4,0" stroke="#000000"/>
            <path fill="#000000" d="M0,0L5.2,3C4.7,2.1,4.4,1.1,4.4,0C4.4,-1.1,4.7,-2.1,5.2,-3L0,0" stroke="#000000" stroke-linecap="round" stroke-width="1"/>
            <path fill="#000000" d="M73.8,0L68.6,-3C69.2,-2.1,69.4,-1.1,69.4,0C69.4,1.1,69.2,2.1,68.6,3L73.8,0" stroke="#000000" stroke-linecap="round" stroke-width="1"/>
        </g>
        <g transform="translate(2657.85,1743)" id="shape61">
            <path fill="none" d="M0,0L0,48.7" stroke="#000000" stroke-width="6.66667"/>
            <path fill="#000000" d="M0,60L7.7,46.6C5.5,47.9,2.8,48.7,0,48.7C-2.8,48.7,-5.5,47.9,-7.7,46.6L0,60" stroke="#000000" stroke-linecap="round" stroke-width="1"/>
        </g>
        <g transform="translate(3024.74,1868)" id="shape62">
            <path fill="none" d="M0,0L0,-15.7" stroke="#000000" stroke-width="6.66667"/>
            <path fill="#000000" d="M0,-27L-7.7,-13.6C-5.5,-14.9,-2.8,-15.7,0,-15.7C2.8,-15.7,5.5,-14.9,7.7,-13.6L0,-27" stroke="#000000" stroke-linecap="round" stroke-width="1"/>
        </g>
        <g transform="translate(2582.35,1803)" id="shape63">
            <path fill="none" d="M151,38L151,0L0,0L0,38L151,38z" stroke="#000000"/>
            <text class="st4">
                <tspan x="20" y="23">EMAC地址映射/下行</tspan>
            </text>
        </g>
        <g transform="translate(2949.24,1803)" id="shape64">
            <path fill="none" d="M151,38L151,0L0,0L0,38L151,38z" stroke="#000000"/>
            <text class="st4">
                <tspan x="20" y="23">EMAC地址映射/上行</tspan>
            </text>
        </g>
        <g transform="translate(2657.85,1841)" id="shape65">
            <path fill="none" d="M0,0L0,15.7" stroke="#000000" stroke-width="6.66667"/>
            <path fill="#000000" d="M0,27L7.7,13.6C5.5,14.9,2.8,15.7,0,15.7C-2.8,15.7,-5.5,14.9,-7.7,13.6L0,27" stroke="#000000" stroke-linecap="round" stroke-width="1"/>
        </g>
        <g transform="translate(3024.74,1803)" id="shape66">
            <path fill="none" d="M0,0L0,-48.7" stroke="#000000" stroke-width="6.66667"/>
            <path fill="#000000" d="M0,-60L-7.7,-46.6C-5.5,-47.9,-2.8,-48.7,0,-48.7C2.8,-48.7,5.5,-47.9,7.7,-46.6L0,-60" stroke="#000000" stroke-linecap="round" stroke-width="1"/>
        </g>
        <path fill="none" transform="translate(2499,1678)" stroke-dasharray="11,5" d="M0,0L726,0" stroke="#000000" id="shape67"/>
        <g transform="translate(3071.32,1644)" id="shape68">
            <text class="st2">
                <tspan x="5.3" y="22">以太网</tspan>
                <tspan class="st3">MAC</tspan>
                <tspan>层</tspan>
            </text>
        </g>
        <g transform="translate(2582.34,1595)" id="shape69">
            <path fill="none" d="M516.7,38L516.7,0L0,0L0,38L516.7,38z" stroke="#000000"/>
            <text class="st5">
                <tspan x="237.3" y="22.5">ETHER</tspan>
            </text>
        </g>
        <g transform="translate(2657.85,1705)" id="shape70">
            <path fill="none" d="M0,-11.3L0,-72" stroke="#000000" stroke-width="6.66667"/>
            <path fill="#000000" d="M0,0L7.7,-13.4C5.5,-12.1,2.8,-11.3,0,-11.3C-2.8,-11.3,-5.5,-12.1,-7.7,-13.4L0,0" stroke="#000000" stroke-linecap="round" stroke-width="1"/>
        </g>
        <g transform="translate(3024.74,1705)" id="shape71">
            <path fill="none" d="M0,0L0,-60.7" stroke="#000000" stroke-width="6.66667"/>
            <path fill="#000000" d="M0,-72L-7.7,-58.6C-5.5,-59.9,-2.8,-60.7,0,-60.7C2.8,-60.7,5.5,-59.9,7.7,-58.6L0,-72" stroke="#000000" stroke-linecap="round" stroke-width="1"/>
        </g>
        <g transform="translate(2467.51,2172.1)" id="shape72">
            <path fill="none" d="M4.4,0L18.3,0L18.3,-68.1L55.9,-68.1" stroke="#000000"/>
            <path fill="#000000" d="M0,0L5.2,3C4.7,2.1,4.4,1.1,4.4,0C4.4,-1.1,4.7,-2.1,5.2,-3L0,0" stroke="#000000" stroke-linecap="round" stroke-width="1"/>
            <path fill="#000000" d="M60.3,-68.1L55.1,-71.1C55.7,-70.2,55.9,-69.2,55.9,-68.1C55.9,-67,55.7,-66,55.1,-65.1L60.3,-68.1" stroke="#000000" stroke-linecap="round" stroke-width="1"/>
        </g>
    </g>
</svg>
