<?xml version="1.0" encoding="UTF-8" standalone="no"?>
<!DOCTYPE svg PUBLIC "-//W3C//DTD SVG 1.1//EN"
 "http://www.w3.org/Graphics/SVG/1.1/DTD/svg11.dtd">
<!-- Generated by graphviz version 2.40.1 (20161225.0304)
 -->
<!-- Title: G Pages: 1 -->
<svg width="349pt" height="425pt"
 viewBox="0.00 0.00 349.18 425.00" xmlns="http://www.w3.org/2000/svg" xmlns:xlink="http://www.w3.org/1999/xlink">
<g id="graph0" class="graph" transform="scale(1 1) rotate(0) translate(4 421)">
<title>G</title>
<polygon fill="#ffffff" stroke="transparent" points="-4,4 -4,-421 345.177,-421 345.177,4 -4,4"/>
<!-- A0 -->
<g id="node1" class="node">
<title>A0</title>
<ellipse fill="none" stroke="#000000" cx="109.37" cy="-406" rx="11" ry="11"/>
</g>
<!-- A1 -->
<g id="node2" class="node">
<title>A1</title>
<path fill="none" stroke="#000000" d="M163.9397,-359C163.9397,-359 54.8003,-359 54.8003,-359 48.8003,-359 42.8003,-353 42.8003,-347 42.8003,-347 42.8003,-335 42.8003,-335 42.8003,-329 48.8003,-323 54.8003,-323 54.8003,-323 163.9397,-323 163.9397,-323 169.9397,-323 175.9397,-329 175.9397,-335 175.9397,-335 175.9397,-347 175.9397,-347 175.9397,-353 169.9397,-359 163.9397,-359"/>
<text text-anchor="middle" x="109.37" y="-338" font-family="Helvetica,sans-Serif" font-size="10.00" fill="#000000">1.接收到下行用户数据包</text>
</g>
<!-- A0&#45;&gt;A1 -->
<g id="edge1" class="edge">
<title>A0&#45;&gt;A1</title>
<path fill="none" stroke="#000000" d="M109.37,-394.9736C109.37,-387.9446 109.37,-378.49 109.37,-369.4584"/>
<polygon fill="#000000" stroke="#000000" points="109.37,-359.2209 113.8701,-369.2209 109.37,-364.2209 109.3701,-369.2209 109.3701,-369.2209 109.3701,-369.2209 109.37,-364.2209 104.8701,-369.221 109.37,-359.2209 109.37,-359.2209"/>
</g>
<!-- A2 -->
<g id="node3" class="node">
<title>A2</title>
<path fill="none" stroke="#000000" d="M206.6102,-287C206.6102,-287 12.1298,-287 12.1298,-287 6.1298,-287 .1298,-281 .1298,-275 .1298,-275 .1298,-263 .1298,-263 .1298,-257 6.1298,-251 12.1298,-251 12.1298,-251 206.6102,-251 206.6102,-251 212.6102,-251 218.6102,-257 218.6102,-263 218.6102,-263 218.6102,-275 218.6102,-275 218.6102,-281 212.6102,-287 206.6102,-287"/>
<text text-anchor="middle" x="109.37" y="-266" font-family="Helvetica,sans-Serif" font-size="10.00" fill="#000000">2.根据转发表确定下跳地址ADDR_NEXT</text>
</g>
<!-- A1&#45;&gt;A2 -->
<g id="edge2" class="edge">
<title>A1&#45;&gt;A2</title>
<path fill="none" stroke="#000000" d="M109.37,-322.8314C109.37,-315.131 109.37,-305.9743 109.37,-297.4166"/>
<polygon fill="#000000" stroke="#000000" points="109.37,-287.4133 113.8701,-297.4132 109.37,-292.4133 109.3701,-297.4133 109.3701,-297.4133 109.3701,-297.4133 109.37,-292.4133 104.8701,-297.4133 109.37,-287.4133 109.37,-287.4133"/>
</g>
<!-- A3 -->
<g id="node4" class="node">
<title>A3</title>
<path fill="none" stroke="#000000" d="M179.5842,-215C179.5842,-215 39.1558,-215 39.1558,-215 33.1558,-215 27.1558,-209 27.1558,-203 27.1558,-203 27.1558,-191 27.1558,-191 27.1558,-185 33.1558,-179 39.1558,-179 39.1558,-179 179.5842,-179 179.5842,-179 185.5842,-179 191.5842,-185 191.5842,-191 191.5842,-191 191.5842,-203 191.5842,-203 191.5842,-209 185.5842,-215 179.5842,-215"/>
<text text-anchor="middle" x="109.37" y="-194" font-family="Helvetica,sans-Serif" font-size="10.00" fill="#000000">3.将加入到待传输优先级队列</text>
</g>
<!-- A2&#45;&gt;A3 -->
<g id="edge3" class="edge">
<title>A2&#45;&gt;A3</title>
<path fill="none" stroke="#000000" d="M109.37,-250.8314C109.37,-243.131 109.37,-233.9743 109.37,-225.4166"/>
<polygon fill="#000000" stroke="#000000" points="109.37,-215.4133 113.8701,-225.4132 109.37,-220.4133 109.3701,-225.4133 109.3701,-225.4133 109.3701,-225.4133 109.37,-220.4133 104.8701,-225.4133 109.37,-215.4133 109.37,-215.4133"/>
</g>
<!-- A4 -->
<g id="node5" class="node">
<title>A4</title>
<polygon fill="#d3d3d3" stroke="#000000" stroke-width="4" points="174.37,-138.5 174.37,-142.5 210.37,-142.5 210.37,-138.5 174.37,-138.5"/>
<text text-anchor="middle" x="183.009" y="-140.2" font-family="Helvetica,sans-Serif" font-size="1.00" fill="#000000"> </text>
<polyline fill="none" stroke="#000000" stroke-width="4" points="191.6479,-138.5 191.6479,-142.5 "/>
<text text-anchor="middle" x="200.7869" y="-140.2" font-family="Helvetica,sans-Serif" font-size="1.00" fill="#000000"> </text>
</g>
<!-- A3&#45;&gt;A4 -->
<g id="edge4" class="edge">
<title>A3&#45;&gt;A4:n</title>
<path fill="none" stroke="#000000" d="M157.9034,-178.9787C168.8004,-172.3528 178.2144,-163.6508 181.8116,-152.4766"/>
<polygon fill="#000000" stroke="#000000" points="183.37,-142.5 186.2727,-153.0747 182.5983,-147.4401 181.8266,-152.3802 181.8266,-152.3802 181.8266,-152.3802 182.5983,-147.4401 177.3805,-151.6857 183.37,-142.5 183.37,-142.5"/>
</g>
<!-- A6 -->
<g id="node7" class="node">
<title>A6</title>
<path fill="none" stroke="#000000" d="M285.2834,-102C285.2834,-102 99.4566,-102 99.4566,-102 93.4566,-102 87.4566,-96 87.4566,-90 87.4566,-90 87.4566,-78 87.4566,-78 87.4566,-72 93.4566,-66 99.4566,-66 99.4566,-66 285.2834,-66 285.2834,-66 291.2834,-66 297.2834,-72 297.2834,-78 297.2834,-78 297.2834,-90 297.2834,-90 297.2834,-96 291.2834,-102 285.2834,-102"/>
<text text-anchor="middle" x="192.37" y="-81" font-family="Helvetica,sans-Serif" font-size="10.00" fill="#000000">将位于队列最前端的数据传送至物理层</text>
</g>
<!-- A4&#45;&gt;A6 -->
<g id="edge6" class="edge">
<title>A4&#45;&gt;A6</title>
<path fill="none" stroke="#000000" d="M192.37,-138.0723C192.37,-133.4782 192.37,-123.0295 192.37,-112.5293"/>
<polygon fill="#000000" stroke="#000000" points="192.37,-102.2269 196.8701,-112.2269 192.37,-107.2269 192.3701,-112.2269 192.3701,-112.2269 192.3701,-112.2269 192.37,-107.2269 187.8701,-112.227 192.37,-102.2269 192.37,-102.2269"/>
</g>
<!-- A5 -->
<g id="node6" class="node">
<title>A5</title>
<path fill="none" stroke="#000000" d="M328.9846,-215C328.9846,-215 221.7554,-215 221.7554,-215 215.7554,-215 209.7554,-209 209.7554,-203 209.7554,-203 209.7554,-191 209.7554,-191 209.7554,-185 215.7554,-179 221.7554,-179 221.7554,-179 328.9846,-179 328.9846,-179 334.9846,-179 340.9846,-185 340.9846,-191 340.9846,-191 340.9846,-203 340.9846,-203 340.9846,-209 334.9846,-215 328.9846,-215"/>
<text text-anchor="middle" x="275.37" y="-194" font-family="Helvetica,sans-Serif" font-size="10.00" fill="#000000">5.物理层传输许可指令</text>
</g>
<!-- A5&#45;&gt;A4 -->
<g id="edge5" class="edge">
<title>A5&#45;&gt;A4:n</title>
<path fill="none" stroke="#000000" d="M225.7616,-178.8819C214.8651,-172.2808 205.4966,-163.6122 201.9193,-152.4605"/>
<polygon fill="#000000" stroke="#000000" points="200.37,-142.5 206.3535,-151.6895 201.1385,-147.4406 201.907,-152.3812 201.907,-152.3812 201.907,-152.3812 201.1385,-147.4406 197.4605,-153.0728 200.37,-142.5 200.37,-142.5"/>
</g>
<!-- A7 -->
<g id="node8" class="node">
<title>A7</title>
<ellipse fill="none" stroke="#000000" cx="192.37" cy="-15" rx="11" ry="11"/>
<ellipse fill="none" stroke="#000000" cx="192.37" cy="-15" rx="15" ry="15"/>
</g>
<!-- A6&#45;&gt;A7 -->
<g id="edge7" class="edge">
<title>A6&#45;&gt;A7</title>
<path fill="none" stroke="#000000" d="M192.37,-65.8711C192.37,-58.1224 192.37,-48.9394 192.37,-40.5226"/>
<polygon fill="#000000" stroke="#000000" points="192.37,-30.4366 196.8701,-40.4366 192.37,-35.4366 192.3701,-40.4366 192.3701,-40.4366 192.3701,-40.4366 192.37,-35.4366 187.8701,-40.4367 192.37,-30.4366 192.37,-30.4366"/>
</g>
</g>
</svg>
