<?xml version="1.0" encoding="UTF-8" standalone="no"?>
<!DOCTYPE svg PUBLIC "-//W3C//DTD SVG 1.1//EN"
 "http://www.w3.org/Graphics/SVG/1.1/DTD/svg11.dtd">
<!-- Generated by graphviz version 2.40.1 (20161225.0304)
 -->
<!-- Title: G Pages: 1 -->
<svg width="296pt" height="980pt"
 viewBox="0.00 0.00 296.00 980.00" xmlns="http://www.w3.org/2000/svg" xmlns:xlink="http://www.w3.org/1999/xlink">
<g id="graph0" class="graph" transform="scale(1 1) rotate(0) translate(4 976)">
<title>G</title>
<polygon fill="#ffffff" stroke="transparent" points="-4,4 -4,-976 292,-976 292,4 -4,4"/>
<!-- A0 -->
<g id="node1" class="node">
<title>A0</title>
<ellipse fill="none" stroke="#000000" cx="158" cy="-961" rx="11" ry="11"/>
</g>
<!-- A1 -->
<g id="node2" class="node">
<title>A1</title>
<path fill="none" stroke="#000000" d="M218.2732,-913C218.2732,-913 97.7268,-913 97.7268,-913 91.7268,-913 85.7268,-907 85.7268,-901 85.7268,-901 85.7268,-889 85.7268,-889 85.7268,-883 91.7268,-877 97.7268,-877 97.7268,-877 218.2732,-877 218.2732,-877 224.2732,-877 230.2732,-883 230.2732,-889 230.2732,-889 230.2732,-901 230.2732,-901 230.2732,-907 224.2732,-913 218.2732,-913"/>
<text text-anchor="middle" x="158" y="-892" font-family="Helvetica,sans-Serif" font-size="10.00" fill="#000000">确定收发模式rti~b(1,0.5)</text>
</g>
<!-- A0&#45;&gt;A1 -->
<g id="edge1" class="edge">
<title>A0&#45;&gt;A1</title>
<path fill="none" stroke="#000000" d="M158,-949.804C158,-942.5358 158,-932.7135 158,-923.3916"/>
<polygon fill="#000000" stroke="#000000" points="158,-913.2423 162.5001,-923.2423 158,-918.2423 158.0001,-923.2423 158.0001,-923.2423 158.0001,-923.2423 158,-918.2423 153.5001,-923.2424 158,-913.2423 158,-913.2423"/>
</g>
<!-- A2 -->
<g id="node3" class="node">
<title>A2</title>
<polygon fill="#d3d3d3" stroke="#000000" stroke-width="4" points="154,-835.5 154,-839.5 190,-839.5 190,-835.5 154,-835.5"/>
<text text-anchor="middle" x="158.139" y="-837.2" font-family="Helvetica,sans-Serif" font-size="1.00" fill="#000000"> </text>
<polyline fill="none" stroke="#000000" stroke-width="4" points="162.2779,-835.5 162.2779,-839.5 "/>
<text text-anchor="middle" x="166.9169" y="-837.2" font-family="Helvetica,sans-Serif" font-size="1.00" fill="#000000"> </text>
<polyline fill="none" stroke="#000000" stroke-width="4" points="171.5558,-835.5 171.5558,-839.5 "/>
<text text-anchor="middle" x="176.1948" y="-837.2" font-family="Helvetica,sans-Serif" font-size="1.00" fill="#000000"> </text>
<polyline fill="none" stroke="#000000" stroke-width="4" points="180.8337,-835.5 180.8337,-839.5 "/>
<text text-anchor="middle" x="184.9726" y="-837.2" font-family="Helvetica,sans-Serif" font-size="1.00" fill="#000000"> </text>
</g>
<!-- A1&#45;&gt;A2 -->
<g id="edge2" class="edge">
<title>A1&#45;&gt;A2:n</title>
<path fill="none" stroke="#000000" d="M158,-876.5C158,-868.5749 158,-858.9869 158,-849.5678"/>
<polygon fill="#000000" stroke="#000000" points="158,-839.5 162.5001,-849.5 158,-844.5 158.0001,-849.5 158.0001,-849.5 158.0001,-849.5 158,-844.5 153.5001,-849.5 158,-839.5 158,-839.5"/>
</g>
<!-- A3 -->
<g id="node4" class="node">
<title>A3</title>
<path fill="none" stroke="#000000" d="M165.6441,-787C165.6441,-787 102.3559,-787 102.3559,-787 96.3559,-787 90.3559,-781 90.3559,-775 90.3559,-775 90.3559,-763 90.3559,-763 90.3559,-757 96.3559,-751 102.3559,-751 102.3559,-751 165.6441,-751 165.6441,-751 171.6441,-751 177.6441,-757 177.6441,-763 177.6441,-763 177.6441,-775 177.6441,-775 177.6441,-781 171.6441,-787 165.6441,-787"/>
<text text-anchor="middle" x="134" y="-766" font-family="Helvetica,sans-Serif" font-size="10.00" fill="#000000">设定天线指向</text>
</g>
<!-- A2&#45;&gt;A3 -->
<g id="edge3" class="edge">
<title>A2&#45;&gt;A3</title>
<path fill="none" stroke="#000000" d="M164.7842,-835.4172C156.6517,-832.6532 143.7667,-826.9267 137.623,-817 134.0441,-811.2174 132.3744,-804.261 131.7617,-797.4614"/>
<polygon fill="#000000" stroke="#000000" points="131.5466,-787.0964 136.2532,-797.0009 131.6504,-792.0954 131.7542,-797.0943 131.7542,-797.0943 131.7542,-797.0943 131.6504,-792.0954 127.2551,-797.1877 131.5466,-787.0964 131.5466,-787.0964"/>
<text text-anchor="middle" x="167.1885" y="-808" font-family="Helvetica,sans-Serif" font-size="10.00" fill="#000000">Ni时隙开始</text>
</g>
<!-- A4 -->
<g id="node5" class="node">
<title>A4</title>
<path fill="none" stroke="#000000" d="M171.8131,-703C171.8131,-703 78.1869,-703 78.1869,-703 72.1869,-703 66.1869,-697 66.1869,-691 66.1869,-691 66.1869,-679 66.1869,-679 66.1869,-673 72.1869,-667 78.1869,-667 78.1869,-667 171.8131,-667 171.8131,-667 177.8131,-667 183.8131,-673 183.8131,-679 183.8131,-679 183.8131,-691 183.8131,-691 183.8131,-697 177.8131,-703 171.8131,-703"/>
<text text-anchor="middle" x="125" y="-682" font-family="Helvetica,sans-Serif" font-size="10.00" fill="#000000">ND1/ND2/ND3时隙</text>
</g>
<!-- A3&#45;&gt;A4 -->
<g id="edge4" class="edge">
<title>A3&#45;&gt;A4</title>
<path fill="none" stroke="#000000" d="M132.0471,-750.7733C130.8796,-739.8758 129.3709,-725.7946 128.0491,-713.4587"/>
<polygon fill="#000000" stroke="#000000" points="126.9491,-703.1912 132.4889,-712.6548 127.4818,-708.1627 128.0145,-713.1343 128.0145,-713.1343 128.0145,-713.1343 127.4818,-708.1627 123.5401,-713.6137 126.9491,-703.1912 126.9491,-703.1912"/>
</g>
<!-- A5 -->
<g id="node6" class="node">
<title>A5</title>
<polygon fill="none" stroke="#000000" points="69,-587 69,-619 169,-619 169,-587 69,-587"/>
<text text-anchor="start" x="112.0515" y="-600" font-family="Helvetica,sans-Serif" font-size="10.00" fill="#000000">i++</text>
<polygon fill="none" stroke="#000000" points="69,-555 69,-587 169,-587 169,-555 69,-555"/>
<text text-anchor="start" x="78.7075" y="-568" font-family="Helvetica,sans-Serif" font-size="10.00" fill="#000000">i==num_n[mode]?</text>
</g>
<!-- A4&#45;&gt;A5 -->
<g id="edge5" class="edge">
<title>A4&#45;&gt;A5</title>
<path fill="none" stroke="#000000" d="M123.8714,-666.5669C123.2286,-656.0669 122.3948,-642.449 121.5994,-629.4561"/>
<polygon fill="#000000" stroke="#000000" points="120.974,-619.2416 126.0768,-628.9478 121.2796,-624.2322 121.5852,-629.2229 121.5852,-629.2229 121.5852,-629.2229 121.2796,-624.2322 117.0936,-629.4979 120.974,-619.2416 120.974,-619.2416"/>
<text text-anchor="middle" x="148.578" y="-640" font-family="Helvetica,sans-Serif" font-size="10.00" fill="#000000">Ni时隙结束</text>
</g>
<!-- A5&#45;&gt;A2 -->
<g id="edge7" class="edge">
<title>A5&#45;&gt;A2:n</title>
<path fill="none" stroke="#000000" d="M86.2967,-619.0598C74.6956,-632.6322 63.0295,-649.377 57,-667 51.8205,-682.1385 54.7808,-687.1547 57,-703 62.3854,-741.452 58.6679,-755.2379 81,-787 107.7271,-825.0129 141.0152,-840.1957 157.2213,-842.2469"/>
<polygon fill="#000000" stroke="#000000" points="167,-839.5 158.5896,-846.5368 162.1863,-840.8522 157.3726,-842.2044 157.3726,-842.2044 157.3726,-842.2044 162.1863,-840.8522 156.1556,-837.8721 167,-839.5 167,-839.5"/>
<text text-anchor="middle" x="63.6095" y="-724" font-family="Helvetica,sans-Serif" font-size="10.00" fill="#000000">N</text>
</g>
<!-- A6 -->
<g id="node7" class="node">
<title>A6</title>
<path fill="none" stroke="#000000" d="M172.3101,-507C172.3101,-507 65.6899,-507 65.6899,-507 59.6899,-507 53.6899,-501 53.6899,-495 53.6899,-495 53.6899,-483 53.6899,-483 53.6899,-477 59.6899,-471 65.6899,-471 65.6899,-471 172.3101,-471 172.3101,-471 178.3101,-471 184.3101,-477 184.3101,-483 184.3101,-483 184.3101,-495 184.3101,-495 184.3101,-501 178.3101,-507 172.3101,-507"/>
<text text-anchor="middle" x="119" y="-486" font-family="Helvetica,sans-Serif" font-size="10.00" fill="#000000">si = si + s_offset[mode]</text>
</g>
<!-- A5&#45;&gt;A6 -->
<g id="edge6" class="edge">
<title>A5&#45;&gt;A6</title>
<path fill="none" stroke="#000000" d="M119,-554.9111C119,-542.7733 119,-529.0575 119,-517.2931"/>
<polygon fill="#000000" stroke="#000000" points="119,-507.139 123.5001,-517.1389 119,-512.139 119.0001,-517.139 119.0001,-517.139 119.0001,-517.139 119,-512.139 114.5001,-517.139 119,-507.139 119,-507.139"/>
<text text-anchor="middle" x="122.3345" y="-528" font-family="Helvetica,sans-Serif" font-size="10.00" fill="#000000">Y</text>
</g>
<!-- A7 -->
<g id="node8" class="node">
<title>A7</title>
<path fill="none" stroke="#000000" d="M171.7033,-434C171.7033,-434 66.2967,-434 66.2967,-434 60.2967,-434 54.2967,-428 54.2967,-422 54.2967,-422 54.2967,-410 54.2967,-410 54.2967,-404 60.2967,-398 66.2967,-398 66.2967,-398 171.7033,-398 171.7033,-398 177.7033,-398 183.7033,-404 183.7033,-410 183.7033,-410 183.7033,-422 183.7033,-422 183.7033,-428 177.7033,-434 171.7033,-434"/>
<text text-anchor="middle" x="119" y="-413" font-family="Helvetica,sans-Serif" font-size="10.00" fill="#000000">si%c_nos[mode] == 0?</text>
</g>
<!-- A6&#45;&gt;A7 -->
<g id="edge8" class="edge">
<title>A6&#45;&gt;A7</title>
<path fill="none" stroke="#000000" d="M119,-470.9551C119,-462.8828 119,-453.1764 119,-444.1817"/>
<polygon fill="#000000" stroke="#000000" points="119,-434.0904 123.5001,-444.0903 119,-439.0904 119.0001,-444.0904 119.0001,-444.0904 119.0001,-444.0904 119,-439.0904 114.5001,-444.0904 119,-434.0904 119,-434.0904"/>
</g>
<!-- A8 -->
<g id="node9" class="node">
<title>A8</title>
<path fill="none" stroke="#000000" d="M208,-350C208,-350 178,-350 178,-350 172,-350 166,-344 166,-338 166,-338 166,-326 166,-326 166,-320 172,-314 178,-314 178,-314 208,-314 208,-314 214,-314 220,-320 220,-326 220,-326 220,-338 220,-338 220,-344 214,-350 208,-350"/>
<text text-anchor="middle" x="193" y="-329" font-family="Helvetica,sans-Serif" font-size="10.00" fill="#000000">i=0</text>
</g>
<!-- A7&#45;&gt;A8 -->
<g id="edge9" class="edge">
<title>A7&#45;&gt;A8</title>
<path fill="none" stroke="#000000" d="M135.0569,-397.7733C145.3358,-386.1053 158.8301,-370.7874 170.2099,-357.8699"/>
<polygon fill="#000000" stroke="#000000" points="176.9744,-350.1912 173.7407,-360.6694 173.6693,-353.943 170.3641,-357.6948 170.3641,-357.6948 170.3641,-357.6948 173.6693,-353.943 166.9875,-354.7201 176.9744,-350.1912 176.9744,-350.1912"/>
<text text-anchor="middle" x="163.6095" y="-371" font-family="Helvetica,sans-Serif" font-size="10.00" fill="#000000">N</text>
</g>
<!-- A9 -->
<g id="node10" class="node">
<title>A9</title>
<path fill="none" stroke="#000000" d="M135,-350C135,-350 105,-350 105,-350 99,-350 93,-344 93,-338 93,-338 93,-326 93,-326 93,-320 99,-314 105,-314 105,-314 135,-314 135,-314 141,-314 147,-320 147,-326 147,-326 147,-338 147,-338 147,-344 141,-350 135,-350"/>
<text text-anchor="middle" x="120" y="-329" font-family="Helvetica,sans-Serif" font-size="10.00" fill="#000000">ci++</text>
</g>
<!-- A7&#45;&gt;A9 -->
<g id="edge11" class="edge">
<title>A7&#45;&gt;A9</title>
<path fill="none" stroke="#000000" d="M119.217,-397.7733C119.3467,-386.8758 119.5143,-372.7946 119.6612,-360.4587"/>
<polygon fill="#000000" stroke="#000000" points="119.7834,-350.1912 124.164,-360.2441 119.7239,-355.1908 119.6643,-360.1905 119.6643,-360.1905 119.6643,-360.1905 119.7239,-355.1908 115.1646,-360.1369 119.7834,-350.1912 119.7834,-350.1912"/>
<text text-anchor="middle" x="122.3345" y="-371" font-family="Helvetica,sans-Serif" font-size="10.00" fill="#000000">Y</text>
</g>
<!-- A8&#45;&gt;A2 -->
<g id="edge10" class="edge">
<title>A8&#45;&gt;A2:n</title>
<path fill="none" stroke="#000000" d="M199.5387,-350.086C205.0347,-366.9196 212,-392.8248 212,-416 212,-769 212,-769 212,-769 212,-789.9737 197.7769,-834.0113 190,-839.5 188.8085,-840.3409 187.4065,-841.1294 185.9581,-841.7638"/>
<polygon fill="#000000" stroke="#000000" points="176,-839.5 186.7488,-837.3288 180.8756,-840.6084 185.7512,-841.7169 185.7512,-841.7169 185.7512,-841.7169 180.8756,-840.6084 184.7536,-846.1049 176,-839.5 176,-839.5"/>
</g>
<!-- A10 -->
<g id="node11" class="node">
<title>A10</title>
<path fill="none" stroke="#000000" d="M226.032,-277C226.032,-277 121.968,-277 121.968,-277 115.968,-277 109.968,-271 109.968,-265 109.968,-265 109.968,-253 109.968,-253 109.968,-247 115.968,-241 121.968,-241 121.968,-241 226.032,-241 226.032,-241 232.032,-241 238.032,-247 238.032,-253 238.032,-253 238.032,-265 238.032,-265 238.032,-271 232.032,-277 226.032,-277"/>
<text text-anchor="middle" x="174" y="-256" font-family="Helvetica,sans-Serif" font-size="10.00" fill="#000000">ci%r_noc[mode] == 0?</text>
</g>
<!-- A9&#45;&gt;A10 -->
<g id="edge12" class="edge">
<title>A9&#45;&gt;A10</title>
<path fill="none" stroke="#000000" d="M133.3483,-313.9551C139.7739,-305.2686 147.5993,-294.6898 154.6621,-285.142"/>
<polygon fill="#000000" stroke="#000000" points="160.6181,-277.0904 158.2888,-287.806 157.6446,-281.1101 154.671,-285.1299 154.671,-285.1299 154.671,-285.1299 157.6446,-281.1101 151.0533,-282.4537 160.6181,-277.0904 160.6181,-277.0904"/>
</g>
<!-- A10&#45;&gt;A2 -->
<g id="edge14" class="edge">
<title>A10&#45;&gt;A2:n</title>
<path fill="none" stroke="#000000" d="M210.6643,-277.0747C230.0989,-289.4795 250,-308.0333 250,-332 250,-769 250,-769 250,-769 250,-784.982 213.4375,-828.6337 195.1563,-840.4709"/>
<polygon fill="#000000" stroke="#000000" points="185,-839.5 195.3829,-835.9721 189.9773,-839.9758 194.9546,-840.4517 194.9546,-840.4517 194.9546,-840.4517 189.9773,-839.9758 194.5264,-844.9313 185,-839.5 185,-839.5"/>
<text text-anchor="middle" x="253.6095" y="-528" font-family="Helvetica,sans-Serif" font-size="10.00" fill="#000000">N</text>
</g>
<!-- A11 -->
<g id="node12" class="node">
<title>A11</title>
<path fill="none" stroke="#000000" d="M189,-193C189,-193 159,-193 159,-193 153,-193 147,-187 147,-181 147,-181 147,-169 147,-169 147,-163 153,-157 159,-157 159,-157 189,-157 189,-157 195,-157 201,-163 201,-169 201,-169 201,-181 201,-181 201,-187 195,-193 189,-193"/>
<text text-anchor="middle" x="174" y="-172" font-family="Helvetica,sans-Serif" font-size="10.00" fill="#000000">ri++</text>
</g>
<!-- A10&#45;&gt;A11 -->
<g id="edge13" class="edge">
<title>A10&#45;&gt;A11</title>
<path fill="none" stroke="#000000" d="M174,-240.7733C174,-229.8758 174,-215.7946 174,-203.4587"/>
<polygon fill="#000000" stroke="#000000" points="174,-193.1912 178.5001,-203.1911 174,-198.1912 174.0001,-203.1912 174.0001,-203.1912 174.0001,-203.1912 174,-198.1912 169.5001,-203.1912 174,-193.1912 174,-193.1912"/>
<text text-anchor="middle" x="177.3345" y="-214" font-family="Helvetica,sans-Serif" font-size="10.00" fill="#000000">Y</text>
</g>
<!-- A12 -->
<g id="node13" class="node">
<title>A12</title>
<path fill="none" stroke="#000000" d="M226.6904,-120C226.6904,-120 121.3096,-120 121.3096,-120 115.3096,-120 109.3096,-114 109.3096,-108 109.3096,-108 109.3096,-96 109.3096,-96 109.3096,-90 115.3096,-84 121.3096,-84 121.3096,-84 226.6904,-84 226.6904,-84 232.6904,-84 238.6904,-90 238.6904,-96 238.6904,-96 238.6904,-108 238.6904,-108 238.6904,-114 232.6904,-120 226.6904,-120"/>
<text text-anchor="middle" x="174" y="-99" font-family="Helvetica,sans-Serif" font-size="10.00" fill="#000000">ri%m_nor[mode] == 0?</text>
</g>
<!-- A11&#45;&gt;A12 -->
<g id="edge15" class="edge">
<title>A11&#45;&gt;A12</title>
<path fill="none" stroke="#000000" d="M174,-156.9551C174,-148.8828 174,-139.1764 174,-130.1817"/>
<polygon fill="#000000" stroke="#000000" points="174,-120.0904 178.5001,-130.0903 174,-125.0904 174.0001,-130.0904 174.0001,-130.0904 174.0001,-130.0904 174,-125.0904 169.5001,-130.0904 174,-120.0904 174,-120.0904"/>
</g>
<!-- A12&#45;&gt;A1 -->
<g id="edge16" class="edge">
<title>A12&#45;&gt;A1</title>
<path fill="none" stroke="#000000" d="M109.2088,-116.5454C59.7382,-129.5909 0,-150.4306 0,-175 0,-837.5 0,-837.5 0,-837.5 0,-855.6643 37.3412,-869.757 75.7172,-879.444"/>
<polygon fill="#000000" stroke="#000000" points="85.474,-881.8116 74.6948,-883.8264 80.615,-880.6325 75.756,-879.4533 75.756,-879.4533 75.756,-879.4533 80.615,-880.6325 76.8173,-875.0802 85.474,-881.8116 85.474,-881.8116"/>
<text text-anchor="middle" x="3.6095" y="-486" font-family="Helvetica,sans-Serif" font-size="10.00" fill="#000000">N</text>
</g>
<!-- A13 -->
<g id="node14" class="node">
<title>A13</title>
<path fill="none" stroke="#000000" d="M224.1848,-36C224.1848,-36 183.8152,-36 183.8152,-36 177.8152,-36 171.8152,-30 171.8152,-24 171.8152,-24 171.8152,-12 171.8152,-12 171.8152,-6 177.8152,0 183.8152,0 183.8152,0 224.1848,0 224.1848,0 230.1848,0 236.1848,-6 236.1848,-12 236.1848,-12 236.1848,-24 236.1848,-24 236.1848,-30 230.1848,-36 224.1848,-36"/>
<text text-anchor="middle" x="204" y="-15" font-family="Helvetica,sans-Serif" font-size="10.00" fill="#000000">mode++</text>
</g>
<!-- A12&#45;&gt;A13 -->
<g id="edge17" class="edge">
<title>A12&#45;&gt;A13</title>
<path fill="none" stroke="#000000" d="M180.5096,-83.7733C184.4801,-72.6557 189.6342,-58.2244 194.1024,-45.7132"/>
<polygon fill="#000000" stroke="#000000" points="197.5032,-36.1912 198.3776,-47.1221 195.8214,-40.8999 194.1397,-45.6086 194.1397,-45.6086 194.1397,-45.6086 195.8214,-40.8999 189.9019,-44.0951 197.5032,-36.1912 197.5032,-36.1912"/>
<text text-anchor="middle" x="193.3345" y="-57" font-family="Helvetica,sans-Serif" font-size="10.00" fill="#000000">Y</text>
</g>
<!-- A13&#45;&gt;A1 -->
<g id="edge18" class="edge">
<title>A13&#45;&gt;A1</title>
<path fill="none" stroke="#000000" d="M236.2364,-33.9388C259.9248,-48.1706 288,-71.4766 288,-102 288,-837.5 288,-837.5 288,-837.5 288,-851.1913 263.5785,-863.8161 235.9052,-873.7269"/>
<polygon fill="#000000" stroke="#000000" points="226.4263,-876.9815 234.423,-869.4779 231.1553,-875.3578 235.8843,-873.734 235.8843,-873.734 235.8843,-873.734 231.1553,-875.3578 237.3457,-877.9901 226.4263,-876.9815 226.4263,-876.9815"/>
</g>
</g>
</svg>
