<svg xmlns="http://www.w3.org/2000/svg" width="505" height="403" xmlns:xlink="http://www.w3.org/1999/xlink" viewBox="0 0 505 403">
    <style type="text/css"><![CDATA[
.st2 {fill:#1f6391;font-family:宋体;font-size:10pt}
.st3 {fill:#1f6391;font-family:宋体;font-size:6pt}
.st1 {fill:#7030a0;font-family:宋体;font-size:10pt}
.st4 {fill:#ffffff;font-family:宋体;font-size:16pt}
]]></style>
    <defs/>
    <g transform="translate(-37.5,-23)">
        <g id="table1" transform="translate(53,274)">
            <g>
                <path d="M79.7,0L129.8,0L129.8,40L79.7,40L79.7,0z" fill="none" stroke="#a0a0a4"/>
                <text class="st1">
                    <tspan y="24.5" x="88.7">ND1</tspan>
                </text>
            </g>
            <g>
                <path d="M129.8,0L179.8,0L179.8,40L129.8,40L129.8,0z" fill="none" stroke="#a0a0a4"/>
                <text class="st1">
                    <tspan y="24.5" x="138.8">ND2</tspan>
                </text>
            </g>
            <g>
                <path d="M0,0L79.7,0L79.7,40L0,40L0,0z" fill="none" stroke="#a0a0a4"/>
                <text class="st1">
                    <tspan y="24.5" x="9">节点\时隙</tspan>
                </text>
            </g>
            <g>
                <path d="M179.8,0L229.8,0L229.8,40L179.8,40L179.8,0z" fill="none" stroke="#a0a0a4"/>
                <text class="st1">
                    <tspan y="24.5" x="188.8">ND3</tspan>
                </text>
            </g>
            <g>
                <path d="M79.7,40L129.8,40L129.8,80L79.7,80L79.7,40z" fill="none" stroke="#a0a0a4"/>
                <text class="st1">
                    <tspan y="64.5" x="88.7">发射</tspan>
                </text>
            </g>
            <g>
                <path d="M129.8,40L179.8,40L179.8,80L129.8,80L129.8,40z" fill="none" stroke="#a0a0a4"/>
                <text class="st1">
                    <tspan y="64.5" x="138.8">接收</tspan>
                </text>
            </g>
            <g>
                <path d="M0,40L79.7,40L79.7,80L0,80L0,40z" fill="none" stroke="#a0a0a4"/>
                <text class="st1"/>
            </g>
            <g>
                <path d="M179.8,40L229.8,40L229.8,80L179.8,80L179.8,40z" fill="none" stroke="#a0a0a4"/>
                <text class="st1">
                    <tspan y="64.5" x="188.8">发射</tspan>
                </text>
            </g>
            <g>
                <path d="M79.7,80L129.8,80L129.8,120L79.7,120L79.7,80z" fill="none" stroke="#a0a0a4"/>
                <text class="st1">
                    <tspan y="104.5" x="88.7">接收</tspan>
                </text>
            </g>
            <g>
                <path d="M129.8,80L179.8,80L179.8,120L129.8,120L129.8,80z" fill="none" stroke="#a0a0a4"/>
                <text class="st1">
                    <tspan y="104.5" x="138.8">发射</tspan>
                </text>
            </g>
            <g>
                <path d="M0,80L79.7,80L79.7,120L0,120L0,80z" fill="none" stroke="#a0a0a4"/>
                <text class="st1"/>
            </g>
            <g>
                <path d="M179.8,80L229.8,80L229.8,120L179.8,120L179.8,80z" fill="none" stroke="#a0a0a4"/>
                <text class="st1">
                    <tspan y="104.5" x="188.8">接收</tspan>
                </text>
            </g>
        </g>
        <path d="M19,16.5L9.5,0L0,16.5L19,16.5z" id="shape2" transform="translate(455,307.19)" fill="#3498db" stroke="#3498db"/>
        <path d="M19,16.5L9.5,0L0,16.5L19,16.5z" id="shape3" transform="matrix(1,0,0,-1,108,137.4)" fill="#3498db" stroke="#3498db"/>
        <g id="shape4" transform="matrix(0,-1,1,0,117.5,129.2)">
            <path d="M0,0L71,0" fill="none" stroke="#236ea1"/>
            <path d="M76.2,0L65.8,-3L71,0L65.8,3L76.2,0" stroke-linecap="round" fill="#236ea1" stroke-width="1" stroke="#236ea1"/>
        </g>
        <g id="shape5" transform="matrix(0,-1,1,0,464.5,315.4)">
            <path d="M0,0L71,0" fill="none" stroke="#236ea1"/>
            <path d="M76.2,0L65.8,-3L71,0L65.8,3L76.2,0" stroke-linecap="round" fill="#236ea1" stroke-width="1" stroke="#236ea1"/>
        </g>
        <path stroke-dasharray="11,5,2.5,5" d="M0,0L393.8,0" id="shape6" transform="matrix(0.88,0.47,-0.47,0.88,117.5,129.2)" fill="none" stroke="#236ea1"/>
        <g id="shape7" transform="matrix(0.88,0.47,-0.47,0.88,117.5,129.2)">
            <path d="M43.8,-6.9C41.7,-19.8,34.1,-31.2,22.7,-38C9.3,-46,-7.3,-46.4,-21,-39" fill="none" stroke="#3498db"/>
            <path d="M44.3,0L47.2,-14.1L43.8,-6.9L39.2,-13.5L44.3,0" stroke-linecap="round" fill="#3498db" stroke-width="1" stroke="#3498db"/>
            <text class="st1">
                <tspan y="-43.7" x="18.1">γ</tspan>
            </text>
        </g>
        <path stroke-dasharray="11,5,2.5,5" d="M0,0L80.8,0" id="shape8" transform="matrix(0,1,-1,0,464.5,315.4)" fill="none" stroke="#236ea1"/>
        <g id="shape9" transform="matrix(-0.88,-0.47,0.47,-0.88,464.5,315.4)">
            <path d="M43.8,-6.9C41.7,-19.8,34.1,-31.2,22.7,-38C9.3,-46,-7.3,-46.4,-21,-39" fill="none" stroke="#3498db"/>
            <path d="M44.3,0L47.2,-14.1L43.8,-6.9L39.2,-13.5L44.3,0" stroke-linecap="round" fill="#3498db" stroke-width="1" stroke="#3498db"/>
            <text class="st1" transform="matrix(-1,0,0,-1,44.3,-94.5)">
                <tspan y="-43.7" x="18.1">γ</tspan>
            </text>
        </g>
        <g id="shape10" transform="matrix(0.88,0.47,-0.47,0.88,117.5,129.2)">
            <path d="M0,0L77.8,0" fill="none" stroke="#236ea1"/>
            <path d="M82.1,0L76.9,-3C77.5,-2.1,77.8,-1.1,77.8,0C77.8,1.1,77.5,2.1,76.9,3L82.1,0" stroke-linecap="round" fill="#236ea1" stroke-width="1" stroke="#236ea1"/>
        </g>
        <g id="shape11" transform="matrix(-0.88,-0.47,0.47,-0.88,464.5,315.4)">
            <path d="M0,0L83.5,0" fill="none" stroke="#236ea1"/>
            <path d="M87.9,0L82.7,-3C83.2,-2.1,83.5,-1.1,83.5,0C83.5,1.1,83.2,2.1,82.7,3L87.9,0" stroke-linecap="round" fill="#236ea1" stroke-width="1" stroke="#236ea1"/>
        </g>
        <g id="shape12" transform="translate(78.5,24)">
            <text class="st2">
                <tspan y="24.5" x="34">N</tspan>
            </text>
        </g>
        <g id="shape13" transform="translate(425.5,204.96)">
            <text class="st2">
                <tspan y="24.5" x="34">N</tspan>
            </text>
        </g>
        <g id="shape14" transform="translate(425.5,384.96)">
            <text class="st2">
                <tspan y="24.5" x="35">S</tspan>
            </text>
        </g>
        <g id="shape15" transform="translate(38.5,111.19)">
            <text class="st2">
                <tspan y="22.5" x="5">主动节点</tspan>
            </text>
        </g>
        <g id="shape16" transform="translate(479,297.41)">
            <text class="st2">
                <tspan y="22.5" x="5">被动节点</tspan>
            </text>
        </g>
        <path d="M19,16.5L9.5,0L0,16.5L19,16.5z" id="shape17" transform="matrix(1,0,0,-1,59.5,342.2)" fill="#3498db" stroke="#3498db"/>
        <path d="M91.5,0C91.5,-15.8,87.4,-31.4,79.6,-45.2L0,0L91.5,0" id="shape18" transform="matrix(0.74,0.68,-0.68,0.74,117.5,129.2)" fill="none" stroke="#3498db"/>
        <path d="M104,0C104,-16.4,100.2,-32.6,92.7,-47.2L0,0L104,0" id="shape19" transform="matrix(-0.74,-0.67,0.67,-0.74,464.5,315.4)" fill="none" stroke="#3498db"/>
        <g id="shape20" transform="translate(127,177)">
            <text class="st3">
                <tspan y="20.5" x="15">发射波束</tspan>
            </text>
        </g>
        <g id="shape21" transform="translate(334,287.64)">
            <text class="st3">
                <tspan y="20.5" x="15">接收波束</tspan>
            </text>
        </g>
        <g transform="translate(488,57.4)">
            <path d="M0,26C0,11.6,11.6,0,26,0C40.4,0,52,11.6,52,26C52,40.4,40.4,52,26,52C11.6,52,0,40.4,0,26z" id="shape22" transform="translate(0,11.96)" fill="none" stroke-width="2" stroke="#2da2bf"/>
            <g id="shape23" transform="translate(6.24,0)">
                <path d="M19.8,0L0,67.6L19.8,57.5L39.5,67.6L19.8,0z" fill="#3498db" stroke="#2da2bf"/>
                <text class="st4">
                    <tspan y="52.4" x="11.4">N</tspan>
                </text>
            </g>
        </g>
        <path stroke-dasharray="11,5,2.5,5" d="M0,0L80.8,0" id="shape24" transform="matrix(0,1,-1,0,117.5,129.2)" fill="none" stroke="#236ea1"/>
        <g id="shape25" transform="translate(78.5,197.89)">
            <text class="st2">
                <tspan y="24.5" x="35">S</tspan>
            </text>
        </g>
        <path d="M19,16.5L9.5,0L0,16.5L19,16.5z" id="shape26" transform="translate(59.5,363)" fill="#3498db" stroke="#3498db"/>
        <g id="shape27" transform="translate(74,315.41)">
            <text class="st2">
                <tspan y="22.5" x="5">主动节点</tspan>
            </text>
        </g>
        <g id="shape28" transform="translate(74,353.23)">
            <text class="st2">
                <tspan y="22.5" x="5">被动节点</tspan>
            </text>
        </g>
    </g>
</svg>
