<svg xmlns="http://www.w3.org/2000/svg" xmlns:xlink="http://www.w3.org/1999/xlink" height="438" width="779" viewBox="0 0 779 438">
    <style type="text/css"><![CDATA[
.st1 {fill:#303030;font-family:Times New Roman;font-size:10pt}
.st2 {fill:#303030;font-family:Times New Roman;font-size:16pt}
]]></style>
    <defs/>
    <g transform="translate(-2278.5,-175)">
        <g transform="translate(2278.5,175)" id="table1">
            <g>
                <path d="M0,0L259.7,0L259.7,438L0,438L0,0z" stroke-width="1.33333" fill="none" stroke="#000000" stroke-dasharray="11,5"/>
                <text class="st1"/>
            </g>
            <g>
                <path d="M259.7,0L519.3,0L519.3,438L259.7,438L259.7,0z" stroke-width="1.33333" fill="none" stroke="#000000" stroke-dasharray="11,5"/>
                <text class="st1"/>
            </g>
            <g>
                <path d="M519.3,0L779,0L779,438L519.3,438L519.3,0z" stroke-width="1.33333" fill="none" stroke="#000000" stroke-dasharray="11,5"/>
                <text class="st1"/>
            </g>
        </g>
        <g transform="translate(2331.5,499)" id="shape2">
            <path d="M128,46L128,0L0,0L0,46L128,46z" fill="none" stroke="#000000"/>
            <text class="st1">
                <tspan y="26.5" x="51">PHY</tspan>
            </text>
        </g>
        <g transform="translate(2331.5,453)" id="shape3">
            <path d="M128,46L128,0L0,0L0,46L128,46z" fill="none" stroke="#000000"/>
            <text class="st1">
                <tspan y="26.5" x="49">MAC</tspan>
            </text>
        </g>
        <g transform="translate(2331.5,407)" id="shape4">
            <path d="M128,46L128,0L0,0L0,46L128,46z" fill="none" stroke="#000000"/>
            <text class="st1">
                <tspan y="26.5" x="51">RLC</tspan>
            </text>
        </g>
        <g transform="translate(2331.5,361)" id="shape5">
            <path d="M128,46L128,0L0,0L0,46L128,46z" fill="none" stroke="#000000"/>
            <text class="st1">
                <tspan y="26.5" x="47">SDAP</tspan>
            </text>
        </g>
        <g transform="translate(2331.5,315)" id="shape6">
            <path d="M128,46L128,0L0,0L0,46L128,46z" fill="none" stroke="#000000"/>
            <text class="st1">
                <tspan y="26.5" x="46">CONV</tspan>
            </text>
        </g>
        <g transform="translate(2607.5,499)" id="shape7">
            <path d="M128,46L128,0L0,0L0,46L128,46z" fill="none" stroke="#000000"/>
            <text class="st1">
                <tspan y="26.5" x="51">PHY</tspan>
            </text>
        </g>
        <g transform="translate(2607.5,453)" id="shape8">
            <path d="M128,46L128,0L0,0L0,46L128,46z" fill="none" stroke="#000000"/>
            <text class="st1">
                <tspan y="26.5" x="49">MAC</tspan>
            </text>
        </g>
        <g transform="translate(2607.5,407)" id="shape9">
            <path d="M128,46L128,0L0,0L0,46L128,46z" fill="none" stroke="#000000"/>
            <text class="st1">
                <tspan y="26.5" x="51">RLC</tspan>
            </text>
        </g>
        <g transform="translate(2607.5,361)" id="shape10">
            <path d="M128,46L128,0L0,0L0,46L128,46z" fill="none" stroke="#000000"/>
            <text class="st1">
                <tspan y="26.5" x="47">SDAP</tspan>
            </text>
        </g>
        <g transform="translate(2607.5,315)" id="shape11">
            <path d="M128,46L128,0L0,0L0,46L128,46z" fill="none" stroke="#000000"/>
            <text class="st1">
                <tspan y="26.5" x="46">CONV</tspan>
            </text>
        </g>
        <g transform="translate(2479.5,482)">
            <path d="M0,0L11,15.2L22,0L0,0z" fill="#ffffff" id="shape12" stroke="#000000"/>
            <path d="M0,0L0,38" transform="translate(11,0)" fill="none" id="shape13" stroke="#000000"/>
        </g>
        <g transform="translate(2331.5,229.6)" id="shape14">
            <path d="M128,46L128,0L0,0L0,46L128,46z" fill="none" stroke="#000000"/>
            <text class="st1">
                <tspan y="26.5" x="52">APP</tspan>
            </text>
        </g>
        <g transform="translate(2572.5,482)">
            <path d="M0,0L11,15.2L22,0L0,0z" fill="#ffffff" id="shape15" stroke="#000000"/>
            <path d="M0,0L0,38" transform="translate(11,0)" fill="none" id="shape16" stroke="#000000"/>
        </g>
        <path d="M0,0L31,0L31,-2" transform="translate(2459.5,522)" fill="none" id="shape17" stroke="#000000"/>
        <path d="M0,0L0,2L24,2" transform="translate(2583.5,520)" fill="none" id="shape18" stroke="#000000"/>
        <g transform="translate(2354.5,275)" id="shape19">
            <path stroke-width="7" d="M0,0L0,273C0,293.4,16.6,310,37,310L242,310C262.4,310,279,293.4,279,273L279,177C279,157.1,295.1,141,315,141L315,141C334.9,141,351,157.1,351,177L351,275C351,295.4,367.6,312,388,312L526,312C546.4,312,563,295.4,563,275L563,17.5" fill="none" stroke="#7e7e7e"/>
            <path stroke-width="1" d="M563,2L552.4,20.3C555.5,18.5,559.1,17.5,563,17.5C566.9,17.5,570.5,18.5,573.6,20.3L563,2" stroke-linecap="round" fill="#7e7e7e" stroke="#7e7e7e"/>
        </g>
        <g transform="translate(2891.5,499)" id="shape20">
            <path d="M128,46L128,0L0,0L0,46L128,46z" fill="none" stroke="#000000"/>
            <text class="st1">
                <tspan y="26.5" x="51">PHY</tspan>
            </text>
        </g>
        <g transform="translate(2891.5,453.6)" id="shape21">
            <path d="M128,46L128,0L0,0L0,46L128,46z" fill="none" stroke="#000000"/>
            <text class="st1">
                <tspan y="26.5" x="49">MAC</tspan>
            </text>
        </g>
        <g transform="translate(2891.5,407.6)" id="shape22">
            <path d="M128,46L128,0L0,0L0,46L128,46z" fill="none" stroke="#000000"/>
            <text class="st1">
                <tspan y="26.5" x="51">RLC</tspan>
            </text>
        </g>
        <g transform="translate(2891.5,361.6)" id="shape23">
            <path d="M128,46L128,0L0,0L0,46L128,46z" fill="none" stroke="#000000"/>
            <text class="st1">
                <tspan y="26.5" x="47">SDAP</tspan>
            </text>
        </g>
        <g transform="translate(2891.5,315.6)" id="shape24">
            <path d="M128,46L128,0L0,0L0,46L128,46z" fill="none" stroke="#000000"/>
            <text class="st1">
                <tspan y="26.5" x="46">CONV</tspan>
            </text>
        </g>
        <g transform="translate(2891.5,229.6)" id="shape25">
            <path d="M128,46L128,0L0,0L0,46L128,46z" fill="none" stroke="#000000"/>
            <text class="st1">
                <tspan y="26.5" x="52">APP</tspan>
            </text>
        </g>
        <g transform="translate(2747.5,482)">
            <path d="M0,0L11,15.2L22,0L0,0z" fill="#ffffff" id="shape26" stroke="#000000"/>
            <path d="M0,0L0,38" transform="translate(11,0)" fill="none" id="shape27" stroke="#000000"/>
        </g>
        <path d="M0,0L23,0L23,-2" transform="translate(2735.5,522)" fill="none" id="shape28" stroke="#000000"/>
        <g transform="translate(2849.5,484)">
            <path d="M0,0L11,15.2L22,0L0,0z" fill="#ffffff" id="shape29" stroke="#000000"/>
            <path d="M0,0L0,38" transform="translate(11,0)" fill="none" id="shape30" stroke="#000000"/>
        </g>
        <path d="M0,0L-31,0" transform="translate(2891.5,522)" fill="none" id="shape31" stroke="#000000"/>
        <g transform="translate(2351.75,182.5)" id="shape32">
            <text class="st2">
                <tspan y="28.5" x="12.3">源节点</tspan>
            </text>
        </g>
        <g transform="translate(2619.63,182.5)" id="shape33">
            <text class="st2">
                <tspan y="28.5" x="6.4">中继节点</tspan>
            </text>
        </g>
        <g transform="translate(2907.13,182.5)" id="shape34">
            <text class="st2">
                <tspan y="28.5" x="6.4">目的节点</tspan>
            </text>
        </g>
        <g transform="translate(2607.5,229.6)" id="shape35">
            <path d="M128,46L128,0L0,0L0,46L128,46z" fill="none" stroke="#000000"/>
            <text class="st1">
                <tspan y="26.5" x="52">APP</tspan>
            </text>
        </g>
    </g>
</svg>
