<?xml version="1.0" encoding="UTF-8" standalone="no"?>
<!DOCTYPE svg PUBLIC "-//W3C//DTD SVG 1.1//EN"
 "http://www.w3.org/Graphics/SVG/1.1/DTD/svg11.dtd">
<!-- Generated by graphviz version 2.40.1 (20161225.0304)
 -->
<!-- Title: G Pages: 1 -->
<svg width="246pt" height="442pt"
 viewBox="0.00 0.00 246.23 442.00" xmlns="http://www.w3.org/2000/svg" xmlns:xlink="http://www.w3.org/1999/xlink">
<g id="graph0" class="graph" transform="scale(1 1) rotate(0) translate(4 438)">
<title>G</title>
<polygon fill="#ffffff" stroke="transparent" points="-4,4 -4,-438 242.228,-438 242.228,4 -4,4"/>
<!-- A0 -->
<g id="node1" class="node">
<title>A0</title>
<ellipse fill="none" stroke="#000000" cx="119.671" cy="-423" rx="11" ry="11"/>
</g>
<!-- A1 -->
<g id="node2" class="node">
<title>A1</title>
<path fill="none" stroke="#000000" d="M165.0577,-364C165.0577,-364 74.2843,-364 74.2843,-364 68.2843,-364 62.2843,-358 62.2843,-352 62.2843,-352 62.2843,-340 62.2843,-340 62.2843,-334 68.2843,-328 74.2843,-328 74.2843,-328 165.0577,-328 165.0577,-328 171.0577,-328 177.0577,-334 177.0577,-340 177.0577,-340 177.0577,-352 177.0577,-352 177.0577,-358 171.0577,-364 165.0577,-364"/>
<text text-anchor="middle" x="119.671" y="-343" font-family="Helvetica,sans-Serif" font-size="10.00" fill="#000000">更新邻接矩阵权重</text>
</g>
<!-- A0&#45;&gt;A1 -->
<g id="edge1" class="edge">
<title>A0&#45;&gt;A1</title>
<path fill="none" stroke="#000000" d="M119.671,-411.9678C119.671,-402.124 119.671,-387.2813 119.671,-374.1664"/>
<polygon fill="#000000" stroke="#000000" points="119.671,-364.1474 124.1711,-374.1473 119.671,-369.1474 119.6711,-374.1474 119.6711,-374.1474 119.6711,-374.1474 119.671,-369.1474 115.1711,-374.1474 119.671,-364.1474 119.671,-364.1474"/>
<text text-anchor="middle" x="174.572" y="-385" font-family="Helvetica,sans-Serif" font-size="10.00" fill="#000000">收到链路状态广播信息</text>
</g>
<!-- A2 -->
<g id="node3" class="node">
<title>A2</title>
<path fill="none" stroke="#000000" d="M171.679,-291C171.679,-291 67.663,-291 67.663,-291 61.663,-291 55.663,-285 55.663,-279 55.663,-279 55.663,-267 55.663,-267 55.663,-261 61.663,-255 67.663,-255 67.663,-255 171.679,-255 171.679,-255 177.679,-255 183.679,-261 183.679,-267 183.679,-267 183.679,-279 183.679,-279 183.679,-285 177.679,-291 171.679,-291"/>
<text text-anchor="middle" x="119.671" y="-270" font-family="Helvetica,sans-Serif" font-size="10.00" fill="#000000">执行Dijkstra计算流程</text>
</g>
<!-- A1&#45;&gt;A2 -->
<g id="edge2" class="edge">
<title>A1&#45;&gt;A2</title>
<path fill="none" stroke="#000000" d="M119.671,-327.9551C119.671,-319.8828 119.671,-310.1764 119.671,-301.1817"/>
<polygon fill="#000000" stroke="#000000" points="119.671,-291.0904 124.1711,-301.0903 119.671,-296.0904 119.6711,-301.0904 119.6711,-301.0904 119.6711,-301.0904 119.671,-296.0904 115.1711,-301.0904 119.671,-291.0904 119.671,-291.0904"/>
</g>
<!-- A3 -->
<g id="node4" class="node">
<title>A3</title>
<path fill="none" stroke="#000000" d="M99.5135,-218C99.5135,-218 11.8285,-218 11.8285,-218 5.8285,-218 -.1715,-212 -.1715,-206 -.1715,-206 -.1715,-194 -.1715,-194 -.1715,-188 5.8285,-182 11.8285,-182 11.8285,-182 99.5135,-182 99.5135,-182 105.5135,-182 111.5135,-188 111.5135,-194 111.5135,-194 111.5135,-206 111.5135,-206 111.5135,-212 105.5135,-218 99.5135,-218"/>
<text text-anchor="middle" x="55.671" y="-197" font-family="Helvetica,sans-Serif" font-size="10.00" fill="#000000">计算单播转发表</text>
</g>
<!-- A2&#45;&gt;A3 -->
<g id="edge3" class="edge">
<title>A2&#45;&gt;A3</title>
<path fill="none" stroke="#000000" d="M103.8508,-254.9551C96.1584,-246.1809 86.7732,-235.4759 78.3366,-225.853"/>
<polygon fill="#000000" stroke="#000000" points="71.531,-218.0904 81.5071,-222.6432 74.8272,-221.8501 78.1234,-225.6098 78.1234,-225.6098 78.1234,-225.6098 74.8272,-221.8501 74.7397,-228.5763 71.531,-218.0904 71.531,-218.0904"/>
</g>
<!-- A7 -->
<g id="node8" class="node">
<title>A7</title>
<path fill="none" stroke="#000000" d="M226.2851,-218C226.2851,-218 141.0569,-218 141.0569,-218 135.0569,-218 129.0569,-212 129.0569,-206 129.0569,-206 129.0569,-194 129.0569,-194 129.0569,-188 135.0569,-182 141.0569,-182 141.0569,-182 226.2851,-182 226.2851,-182 232.2851,-182 238.2851,-188 238.2851,-194 238.2851,-194 238.2851,-206 238.2851,-206 238.2851,-212 232.2851,-218 226.2851,-218"/>
<text text-anchor="middle" x="183.671" y="-197" font-family="Helvetica,sans-Serif" font-size="10.00" fill="#000000">计算MPR节点表</text>
</g>
<!-- A2&#45;&gt;A7 -->
<g id="edge7" class="edge">
<title>A2&#45;&gt;A7</title>
<path fill="none" stroke="#000000" d="M135.4912,-254.9551C143.1836,-246.1809 152.5688,-235.4759 161.0054,-225.853"/>
<polygon fill="#000000" stroke="#000000" points="167.811,-218.0904 164.6023,-228.5763 164.5148,-221.8501 161.2186,-225.6098 161.2186,-225.6098 161.2186,-225.6098 164.5148,-221.8501 157.8349,-222.6432 167.811,-218.0904 167.811,-218.0904"/>
</g>
<!-- A4 -->
<g id="node5" class="node">
<title>A4</title>
<polygon fill="#d3d3d3" stroke="#000000" stroke-width="4" points="100.671,-140.5 100.671,-144.5 136.671,-144.5 136.671,-140.5 100.671,-140.5"/>
<text text-anchor="middle" x="118.3099" y="-142.2" font-family="Helvetica,sans-Serif" font-size="1.00" fill="#000000"> </text>
</g>
<!-- A3&#45;&gt;A4 -->
<g id="edge4" class="edge">
<title>A3&#45;&gt;A4:n</title>
<path fill="none" stroke="#000000" d="M94.1332,-181.833C104.3805,-174.7824 113.5931,-165.6595 117.1332,-154.4295"/>
<polygon fill="#000000" stroke="#000000" points="118.671,-144.5 121.5875,-155.0709 117.9057,-149.4411 117.1405,-154.3822 117.1405,-154.3822 117.1405,-154.3822 117.9057,-149.4411 112.6935,-153.6935 118.671,-144.5 118.671,-144.5"/>
</g>
<!-- A5 -->
<g id="node6" class="node">
<title>A5</title>
<path fill="none" stroke="#000000" d="M182.5224,-103C182.5224,-103 54.8196,-103 54.8196,-103 48.8196,-103 42.8196,-97 42.8196,-91 42.8196,-91 42.8196,-79 42.8196,-79 42.8196,-73 48.8196,-67 54.8196,-67 54.8196,-67 182.5224,-67 182.5224,-67 188.5224,-67 194.5224,-73 194.5224,-79 194.5224,-79 194.5224,-91 194.5224,-91 194.5224,-97 188.5224,-103 182.5224,-103"/>
<text text-anchor="middle" x="118.671" y="-82" font-family="Helvetica,sans-Serif" font-size="10.00" fill="#000000">更新转发表和MPR节点表</text>
</g>
<!-- A4&#45;&gt;A5 -->
<g id="edge5" class="edge">
<title>A4&#45;&gt;A5</title>
<path fill="none" stroke="#000000" d="M118.671,-140.0293C118.671,-135.2727 118.671,-124.3488 118.671,-113.4769"/>
<polygon fill="#000000" stroke="#000000" points="118.671,-103.2724 123.1711,-113.2723 118.671,-108.2724 118.6711,-113.2724 118.6711,-113.2724 118.6711,-113.2724 118.671,-108.2724 114.1711,-113.2724 118.671,-103.2724 118.671,-103.2724"/>
</g>
<!-- A6 -->
<g id="node7" class="node">
<title>A6</title>
<ellipse fill="none" stroke="#000000" cx="118.671" cy="-15" rx="11" ry="11"/>
<ellipse fill="none" stroke="#000000" cx="118.671" cy="-15" rx="15" ry="15"/>
</g>
<!-- A5&#45;&gt;A6 -->
<g id="edge6" class="edge">
<title>A5&#45;&gt;A6</title>
<path fill="none" stroke="#000000" d="M118.671,-66.9733C118.671,-58.9095 118.671,-49.2597 118.671,-40.4761"/>
<polygon fill="#000000" stroke="#000000" points="118.671,-30.3564 123.1711,-40.3563 118.671,-35.3564 118.6711,-40.3564 118.6711,-40.3564 118.6711,-40.3564 118.671,-35.3564 114.1711,-40.3564 118.671,-30.3564 118.671,-30.3564"/>
</g>
<!-- A7&#45;&gt;A4 -->
<g id="edge8" class="edge">
<title>A7&#45;&gt;A4</title>
<path fill="none" stroke="#000000" d="M163.1046,-181.8066C151.6212,-171.6482 137.8295,-159.4479 128.6892,-151.3623"/>
<polygon fill="#000000" stroke="#000000" points="121.1397,-144.6839 131.6113,-147.9391 124.8847,-147.9967 128.6297,-151.3096 128.6297,-151.3096 128.6297,-151.3096 124.8847,-147.9967 125.6481,-154.6801 121.1397,-144.6839 121.1397,-144.6839"/>
</g>
</g>
</svg>
