<?xml version="1.0" encoding="UTF-8" standalone="no"?>
<!DOCTYPE svg PUBLIC "-//W3C//DTD SVG 1.1//EN"
 "http://www.w3.org/Graphics/SVG/1.1/DTD/svg11.dtd">
<!-- Generated by graphviz version 2.40.1 (20161225.0304)
 -->
<!-- Title: G Pages: 1 -->
<svg width="269pt" height="804pt"
 viewBox="0.00 0.00 268.94 804.00" xmlns="http://www.w3.org/2000/svg" xmlns:xlink="http://www.w3.org/1999/xlink">
<g id="graph0" class="graph" transform="scale(1 1) rotate(0) translate(4 800)">
<title>G</title>
<polygon fill="#ffffff" stroke="transparent" points="-4,4 -4,-800 264.942,-800 264.942,4 -4,4"/>
<!-- A0 -->
<g id="node1" class="node">
<title>A0</title>
<ellipse fill="none" stroke="#000000" cx="119.7835" cy="-785" rx="11" ry="11"/>
</g>
<!-- A1 -->
<g id="node2" class="node">
<title>A1</title>
<path fill="none" stroke="#000000" d="M160.3992,-737C160.3992,-737 79.1678,-737 79.1678,-737 73.1678,-737 67.1678,-731 67.1678,-725 67.1678,-725 67.1678,-713 67.1678,-713 67.1678,-707 73.1678,-701 79.1678,-701 79.1678,-701 160.3992,-701 160.3992,-701 166.3992,-701 172.3992,-707 172.3992,-713 172.3992,-713 172.3992,-725 172.3992,-725 172.3992,-731 166.3992,-737 160.3992,-737"/>
<text text-anchor="middle" x="119.7835" y="-716" font-family="Helvetica,sans-Serif" font-size="10.00" fill="#000000">读取配置文件</text>
</g>
<!-- A0&#45;&gt;A1 -->
<g id="edge1" class="edge">
<title>A0&#45;&gt;A1</title>
<path fill="none" stroke="#000000" d="M119.7835,-773.804C119.7835,-766.5358 119.7835,-756.7135 119.7835,-747.3916"/>
<polygon fill="#000000" stroke="#000000" points="119.7835,-737.2423 124.2836,-747.2423 119.7835,-742.2423 119.7836,-747.2423 119.7836,-747.2423 119.7836,-747.2423 119.7835,-742.2423 115.2836,-747.2424 119.7835,-737.2423 119.7835,-737.2423"/>
</g>
<!-- A2 -->
<g id="node3" class="node">
<title>A2</title>
<path fill="none" stroke="#000000" d="M156.0129,-664C156.0129,-664 83.5541,-664 83.5541,-664 77.5541,-664 71.5541,-658 71.5541,-652 71.5541,-652 71.5541,-640 71.5541,-640 71.5541,-634 77.5541,-628 83.5541,-628 83.5541,-628 156.0129,-628 156.0129,-628 162.0129,-628 168.0129,-634 168.0129,-640 168.0129,-640 168.0129,-652 168.0129,-652 168.0129,-658 162.0129,-664 156.0129,-664"/>
<text text-anchor="middle" x="119.7835" y="-643" font-family="Helvetica,sans-Serif" font-size="10.00" fill="#000000">初始化状态变量</text>
</g>
<!-- A1&#45;&gt;A2 -->
<g id="edge2" class="edge">
<title>A1&#45;&gt;A2</title>
<path fill="none" stroke="#000000" d="M119.7835,-700.9551C119.7835,-692.8828 119.7835,-683.1764 119.7835,-674.1817"/>
<polygon fill="#000000" stroke="#000000" points="119.7835,-664.0904 124.2836,-674.0903 119.7835,-669.0904 119.7836,-674.0904 119.7836,-674.0904 119.7836,-674.0904 119.7835,-669.0904 115.2836,-674.0904 119.7835,-664.0904 119.7835,-664.0904"/>
</g>
<!-- A3 -->
<g id="node4" class="node">
<title>A3</title>
<path fill="none" stroke="#000000" d="M148.996,-591C148.996,-591 90.571,-591 90.571,-591 84.571,-591 78.571,-585 78.571,-579 78.571,-579 78.571,-567 78.571,-567 78.571,-561 84.571,-555 90.571,-555 90.571,-555 148.996,-555 148.996,-555 154.996,-555 160.996,-561 160.996,-567 160.996,-567 160.996,-579 160.996,-579 160.996,-585 154.996,-591 148.996,-591"/>
<text text-anchor="middle" x="119.7835" y="-570" font-family="Helvetica,sans-Serif" font-size="10.00" fill="#000000">初始化物理层</text>
</g>
<!-- A2&#45;&gt;A3 -->
<g id="edge3" class="edge">
<title>A2&#45;&gt;A3</title>
<path fill="none" stroke="#000000" d="M119.7835,-627.9551C119.7835,-619.8828 119.7835,-610.1764 119.7835,-601.1817"/>
<polygon fill="#000000" stroke="#000000" points="119.7835,-591.0904 124.2836,-601.0903 119.7835,-596.0904 119.7836,-601.0904 119.7836,-601.0904 119.7836,-601.0904 119.7835,-596.0904 115.2836,-601.0904 119.7835,-591.0904 119.7835,-591.0904"/>
</g>
<!-- A4 -->
<g id="node5" class="node">
<title>A4</title>
<path fill="none" stroke="#000000" d="M152.4086,-518C152.4086,-518 87.1584,-518 87.1584,-518 81.1584,-518 75.1584,-512 75.1584,-506 75.1584,-506 75.1584,-494 75.1584,-494 75.1584,-488 81.1584,-482 87.1584,-482 87.1584,-482 152.4086,-482 152.4086,-482 158.4086,-482 164.4086,-488 164.4086,-494 164.4086,-494 164.4086,-506 164.4086,-506 164.4086,-512 158.4086,-518 152.4086,-518"/>
<text text-anchor="middle" x="119.7835" y="-497" font-family="Helvetica,sans-Serif" font-size="10.00" fill="#000000">初始化MAC层</text>
</g>
<!-- A3&#45;&gt;A4 -->
<g id="edge4" class="edge">
<title>A3&#45;&gt;A4</title>
<path fill="none" stroke="#000000" d="M119.7835,-554.9551C119.7835,-546.8828 119.7835,-537.1764 119.7835,-528.1817"/>
<polygon fill="#000000" stroke="#000000" points="119.7835,-518.0904 124.2836,-528.0903 119.7835,-523.0904 119.7836,-528.0904 119.7836,-528.0904 119.7836,-528.0904 119.7835,-523.0904 115.2836,-528.0904 119.7835,-518.0904 119.7835,-518.0904"/>
</g>
<!-- A5 -->
<g id="node6" class="node">
<title>A5</title>
<path fill="none" stroke="#000000" d="M72.5718,-434C72.5718,-434 20.9952,-434 20.9952,-434 14.9952,-434 8.9952,-428 8.9952,-422 8.9952,-422 8.9952,-410 8.9952,-410 8.9952,-404 14.9952,-398 20.9952,-398 20.9952,-398 72.5718,-398 72.5718,-398 78.5718,-398 84.5718,-404 84.5718,-410 84.5718,-410 84.5718,-422 84.5718,-422 84.5718,-428 78.5718,-434 72.5718,-434"/>
<text text-anchor="middle" x="46.7835" y="-413" font-family="Helvetica,sans-Serif" font-size="10.00" fill="#000000">初始化RLC</text>
</g>
<!-- A4&#45;&gt;A5 -->
<g id="edge5" class="edge">
<title>A4&#45;&gt;A5</title>
<path fill="none" stroke="#000000" d="M103.9436,-481.7733C93.8036,-470.1053 80.4916,-454.7874 69.2657,-441.8699"/>
<polygon fill="#000000" stroke="#000000" points="62.5925,-434.1912 72.5487,-438.7874 65.8723,-437.9652 69.1521,-441.7392 69.1521,-441.7392 69.1521,-441.7392 65.8723,-437.9652 65.7555,-444.691 62.5925,-434.1912 62.5925,-434.1912"/>
</g>
<!-- A9 -->
<g id="node10" class="node">
<title>A9</title>
<path fill="none" stroke="#000000" d="M172.2924,-380C172.2924,-380 67.2746,-380 67.2746,-380 61.2746,-380 55.2746,-374 55.2746,-368 55.2746,-368 55.2746,-356 55.2746,-356 55.2746,-350 61.2746,-344 67.2746,-344 67.2746,-344 172.2924,-344 172.2924,-344 178.2924,-344 184.2924,-350 184.2924,-356 184.2924,-356 184.2924,-368 184.2924,-368 184.2924,-374 178.2924,-380 172.2924,-380"/>
<text text-anchor="middle" x="119.7835" y="-359" font-family="Helvetica,sans-Serif" font-size="10.00" fill="#000000">进入网络组建阶段</text>
</g>
<!-- A4&#45;&gt;A9 -->
<g id="edge9" class="edge">
<title>A4&#45;&gt;A9</title>
<path fill="none" stroke="#000000" d="M119.7835,-481.9589C119.7835,-458.6106 119.7835,-417.6738 119.7835,-390.2014"/>
<polygon fill="#000000" stroke="#000000" points="119.7835,-380.0455 124.2836,-390.0455 119.7835,-385.0455 119.7836,-390.0455 119.7836,-390.0455 119.7836,-390.0455 119.7835,-385.0455 115.2836,-390.0456 119.7835,-380.0455 119.7835,-380.0455"/>
<text text-anchor="middle" x="137.753" y="-455" font-family="Helvetica,sans-Serif" font-size="10.00" fill="#000000">[有时统]</text>
</g>
<!-- A10 -->
<g id="node11" class="node">
<title>A10</title>
<path fill="none" stroke="#000000" d="M249.1009,-272C249.1009,-272 148.4661,-272 148.4661,-272 142.4661,-272 136.4661,-266 136.4661,-260 136.4661,-260 136.4661,-248 136.4661,-248 136.4661,-242 142.4661,-236 148.4661,-236 148.4661,-236 249.1009,-236 249.1009,-236 255.1009,-236 261.1009,-242 261.1009,-248 261.1009,-248 261.1009,-260 261.1009,-260 261.1009,-266 255.1009,-272 249.1009,-272"/>
<text text-anchor="middle" x="198.7835" y="-251" font-family="Helvetica,sans-Serif" font-size="10.00" fill="#000000">进入时间同步阶段</text>
</g>
<!-- A4&#45;&gt;A10 -->
<g id="edge11" class="edge">
<title>A4&#45;&gt;A10</title>
<path fill="none" stroke="#000000" d="M144.3792,-481.6589C150.0677,-476.4666 155.6553,-470.4537 159.7835,-464 196.0871,-407.2461 200.5045,-325.2761 200.0099,-282.468"/>
<polygon fill="#000000" stroke="#000000" points="199.7869,-272.2215 204.5036,-282.1211 199.8958,-277.2203 200.0046,-282.2191 200.0046,-282.2191 200.0046,-282.2191 199.8958,-277.2203 195.5057,-282.3171 199.7869,-272.2215 199.7869,-272.2215"/>
<text text-anchor="middle" x="205.753" y="-413" font-family="Helvetica,sans-Serif" font-size="10.00" fill="#000000">[无时统]</text>
</g>
<!-- A6 -->
<g id="node7" class="node">
<title>A6</title>
<path fill="none" stroke="#000000" d="M71.3516,-326C71.3516,-326 12.2154,-326 12.2154,-326 6.2154,-326 .2154,-320 .2154,-314 .2154,-314 .2154,-302 .2154,-302 .2154,-296 6.2154,-290 12.2154,-290 12.2154,-290 71.3516,-290 71.3516,-290 77.3516,-290 83.3516,-296 83.3516,-302 83.3516,-302 83.3516,-314 83.3516,-314 83.3516,-320 77.3516,-326 71.3516,-326"/>
<text text-anchor="middle" x="41.7835" y="-305" font-family="Helvetica,sans-Serif" font-size="10.00" fill="#000000">初始化PDCP</text>
</g>
<!-- A5&#45;&gt;A6 -->
<g id="edge6" class="edge">
<title>A5&#45;&gt;A6</title>
<path fill="none" stroke="#000000" d="M45.9353,-397.6793C45.1548,-380.821 43.9856,-355.5651 43.0866,-336.147"/>
<polygon fill="#000000" stroke="#000000" points="42.6192,-326.0502 47.5769,-335.8313 42.8504,-331.0448 43.0817,-336.0395 43.0817,-336.0395 43.0817,-336.0395 42.8504,-331.0448 38.5865,-336.2476 42.6192,-326.0502 42.6192,-326.0502"/>
</g>
<!-- A7 -->
<g id="node8" class="node">
<title>A7</title>
<path fill="none" stroke="#000000" d="M78.3005,-218C78.3005,-218 19.2665,-218 19.2665,-218 13.2665,-218 7.2665,-212 7.2665,-206 7.2665,-206 7.2665,-194 7.2665,-194 7.2665,-188 13.2665,-182 19.2665,-182 19.2665,-182 78.3005,-182 78.3005,-182 84.3005,-182 90.3005,-188 90.3005,-194 90.3005,-194 90.3005,-206 90.3005,-206 90.3005,-212 84.3005,-218 78.3005,-218"/>
<text text-anchor="middle" x="48.7835" y="-197" font-family="Helvetica,sans-Serif" font-size="10.00" fill="#000000">初始化SDAP</text>
</g>
<!-- A6&#45;&gt;A7 -->
<g id="edge7" class="edge">
<title>A6&#45;&gt;A7</title>
<path fill="none" stroke="#000000" d="M42.971,-289.6793C44.0636,-272.821 45.7006,-247.5651 46.9592,-228.147"/>
<polygon fill="#000000" stroke="#000000" points="47.6136,-218.0502 51.4573,-228.3203 47.2901,-223.0397 46.9667,-228.0292 46.9667,-228.0292 46.9667,-228.0292 47.2901,-223.0397 42.4761,-227.7381 47.6136,-218.0502 47.6136,-218.0502"/>
</g>
<!-- A8 -->
<g id="node9" class="node">
<title>A8</title>
<polygon fill="#d3d3d3" stroke="#000000" stroke-width="4" points="102.7835,-140.5 102.7835,-144.5 138.7835,-144.5 138.7835,-140.5 102.7835,-140.5"/>
<text text-anchor="middle" x="108.4225" y="-142.2" font-family="Helvetica,sans-Serif" font-size="1.00" fill="#000000"> </text>
<polyline fill="none" stroke="#000000" stroke-width="4" points="114.0614,-140.5 114.0614,-144.5 "/>
<text text-anchor="middle" x="120.2004" y="-142.2" font-family="Helvetica,sans-Serif" font-size="1.00" fill="#000000"> </text>
<polyline fill="none" stroke="#000000" stroke-width="4" points="126.3393,-140.5 126.3393,-144.5 "/>
<text text-anchor="middle" x="132.4783" y="-142.2" font-family="Helvetica,sans-Serif" font-size="1.00" fill="#000000"> </text>
</g>
<!-- A7&#45;&gt;A8 -->
<g id="edge8" class="edge">
<title>A7&#45;&gt;A8:n</title>
<path fill="none" stroke="#000000" d="M84.7249,-181.9133C94.6082,-174.8467 103.5953,-165.7525 107.1602,-154.707"/>
<polygon fill="#000000" stroke="#000000" points="108.7835,-144.5 111.6569,-155.0827 107.9981,-149.4379 107.2128,-154.3759 107.2128,-154.3759 107.2128,-154.3759 107.9981,-149.4379 102.7686,-153.6691 108.7835,-144.5 108.7835,-144.5"/>
</g>
<!-- A11 -->
<g id="node12" class="node">
<title>A11</title>
<path fill="none" stroke="#000000" d="M145.9702,-103C145.9702,-103 95.5968,-103 95.5968,-103 89.5968,-103 83.5968,-97 83.5968,-91 83.5968,-91 83.5968,-79 83.5968,-79 83.5968,-73 89.5968,-67 95.5968,-67 95.5968,-67 145.9702,-67 145.9702,-67 151.9702,-67 157.9702,-73 157.9702,-79 157.9702,-79 157.9702,-91 157.9702,-91 157.9702,-97 151.9702,-103 145.9702,-103"/>
<text text-anchor="middle" x="120.7835" y="-82" font-family="Helvetica,sans-Serif" font-size="10.00" fill="#000000">初始化完成</text>
</g>
<!-- A8&#45;&gt;A11 -->
<g id="edge13" class="edge">
<title>A8&#45;&gt;A11</title>
<path fill="none" stroke="#000000" d="M120.7835,-140.0293C120.7835,-135.2727 120.7835,-124.3488 120.7835,-113.4769"/>
<polygon fill="#000000" stroke="#000000" points="120.7835,-103.2724 125.2836,-113.2723 120.7835,-108.2724 120.7836,-113.2724 120.7836,-113.2724 120.7836,-113.2724 120.7835,-108.2724 116.2836,-113.2724 120.7835,-103.2724 120.7835,-103.2724"/>
</g>
<!-- A9&#45;&gt;A8 -->
<g id="edge10" class="edge">
<title>A9&#45;&gt;A8:n</title>
<path fill="none" stroke="#000000" d="M119.7835,-343.9541C119.7835,-308.361 119.7835,-226.3298 119.7835,-154.5539"/>
<polygon fill="#000000" stroke="#000000" points="119.7835,-144.5 124.2836,-154.5 119.7835,-149.5 119.7836,-154.5 119.7836,-154.5 119.7836,-154.5 119.7835,-149.5 115.2836,-154.5 119.7835,-144.5 119.7835,-144.5"/>
</g>
<!-- A10&#45;&gt;A8 -->
<g id="edge12" class="edge">
<title>A10&#45;&gt;A8:n</title>
<path fill="none" stroke="#000000" d="M179.3383,-235.8428C161.6951,-217.5006 137.7952,-187.2817 133.4691,-154.6828"/>
<polygon fill="#000000" stroke="#000000" points="132.7835,-144.5 137.9452,-154.1751 133.1194,-149.4887 133.4554,-154.4774 133.4554,-154.4774 133.4554,-154.4774 133.1194,-149.4887 128.9655,-154.7797 132.7835,-144.5 132.7835,-144.5"/>
</g>
<!-- A12 -->
<g id="node13" class="node">
<title>A12</title>
<ellipse fill="none" stroke="#000000" cx="120.7835" cy="-15" rx="11" ry="11"/>
<ellipse fill="none" stroke="#000000" cx="120.7835" cy="-15" rx="15" ry="15"/>
</g>
<!-- A11&#45;&gt;A12 -->
<g id="edge14" class="edge">
<title>A11&#45;&gt;A12</title>
<path fill="none" stroke="#000000" d="M120.7835,-66.9733C120.7835,-58.9095 120.7835,-49.2597 120.7835,-40.4761"/>
<polygon fill="#000000" stroke="#000000" points="120.7835,-30.3564 125.2836,-40.3563 120.7835,-35.3564 120.7836,-40.3564 120.7836,-40.3564 120.7836,-40.3564 120.7835,-35.3564 116.2836,-40.3564 120.7835,-30.3564 120.7835,-30.3564"/>
</g>
</g>
</svg>
