<?xml version="1.0" encoding="UTF-8" standalone="no"?>
<!DOCTYPE svg PUBLIC "-//W3C//DTD SVG 1.1//EN"
 "http://www.w3.org/Graphics/SVG/1.1/DTD/svg11.dtd">
<!-- Generated by graphviz version 2.40.1 (20161225.0304)
 -->
<!-- Title: G Pages: 1 -->
<svg width="226pt" height="400pt"
 viewBox="0.00 0.00 225.57 400.00" xmlns="http://www.w3.org/2000/svg" xmlns:xlink="http://www.w3.org/1999/xlink">
<g id="graph0" class="graph" transform="scale(1 1) rotate(0) translate(4 396)">
<title>G</title>
<polygon fill="#ffffff" stroke="transparent" points="-4,4 -4,-396 221.5715,-396 221.5715,4 -4,4"/>
<!-- A0 -->
<g id="node1" class="node">
<title>A0</title>
<ellipse fill="none" stroke="#000000" cx="95.7895" cy="-381" rx="11" ry="11"/>
</g>
<!-- A1 -->
<g id="node2" class="node">
<title>A1</title>
<path fill="none" stroke="#000000" d="M119.4407,-333C119.4407,-333 72.1383,-333 72.1383,-333 66.1383,-333 60.1383,-327 60.1383,-321 60.1383,-321 60.1383,-309 60.1383,-309 60.1383,-303 66.1383,-297 72.1383,-297 72.1383,-297 119.4407,-297 119.4407,-297 125.4407,-297 131.4407,-303 131.4407,-309 131.4407,-309 131.4407,-321 131.4407,-321 131.4407,-327 125.4407,-333 119.4407,-333"/>
<text text-anchor="middle" x="95.7895" y="-312" font-family="Helvetica,sans-Serif" font-size="10.00" fill="#000000">接收SDU</text>
</g>
<!-- A0&#45;&gt;A1 -->
<g id="edge1" class="edge">
<title>A0&#45;&gt;A1</title>
<path fill="none" stroke="#000000" d="M95.7895,-369.804C95.7895,-362.5358 95.7895,-352.7135 95.7895,-343.3916"/>
<polygon fill="#000000" stroke="#000000" points="95.7895,-333.2423 100.2896,-343.2423 95.7895,-338.2423 95.7896,-343.2423 95.7896,-343.2423 95.7896,-343.2423 95.7895,-338.2423 91.2896,-343.2424 95.7895,-333.2423 95.7895,-333.2423"/>
</g>
<!-- A2 -->
<g id="node3" class="node">
<title>A2</title>
<polygon fill="none" stroke="#000000" points="95.7895,-260 77.7895,-242 95.7895,-224 113.7895,-242 95.7895,-260"/>
</g>
<!-- A1&#45;&gt;A2 -->
<g id="edge2" class="edge">
<title>A1&#45;&gt;A2</title>
<path fill="none" stroke="#000000" d="M95.7895,-296.9551C95.7895,-288.8828 95.7895,-279.1764 95.7895,-270.1817"/>
<polygon fill="#000000" stroke="#000000" points="95.7895,-260.0904 100.2896,-270.0903 95.7895,-265.0904 95.7896,-270.0904 95.7896,-270.0904 95.7896,-270.0904 95.7895,-265.0904 91.2896,-270.0904 95.7895,-260.0904 95.7895,-260.0904"/>
</g>
<!-- A3 -->
<g id="node4" class="node">
<title>A3</title>
<path fill="none" stroke="#000000" d="M91.3694,-176C91.3694,-176 12.2096,-176 12.2096,-176 6.2096,-176 .2096,-170 .2096,-164 .2096,-164 .2096,-152 .2096,-152 .2096,-146 6.2096,-140 12.2096,-140 12.2096,-140 91.3694,-140 91.3694,-140 97.3694,-140 103.3694,-146 103.3694,-152 103.3694,-152 103.3694,-164 103.3694,-164 103.3694,-170 97.3694,-176 91.3694,-176"/>
<text text-anchor="middle" x="51.7895" y="-155" font-family="Helvetica,sans-Serif" font-size="10.00" fill="#000000">分离包头提取PDU</text>
</g>
<!-- A2&#45;&gt;A3 -->
<g id="edge3" class="edge">
<title>A2&#45;&gt;A3</title>
<path fill="none" stroke="#000000" d="M82.9224,-236.4497C71.3994,-230.6964 55.2378,-220.5001 48.0075,-206 45.021,-200.0107 44.2725,-193.0729 44.6542,-186.3655"/>
<polygon fill="#000000" stroke="#000000" points="46.0251,-176.1846 49.1502,-186.6958 45.3578,-181.1399 44.6905,-186.0952 44.6905,-186.0952 44.6905,-186.0952 45.3578,-181.1399 40.2307,-185.4946 46.0251,-176.1846 46.0251,-176.1846"/>
<text text-anchor="middle" x="90.1805" y="-197" font-family="Helvetica,sans-Serif" font-size="10.00" fill="#000000">[RRC配置了包头]</text>
</g>
<!-- A4 -->
<g id="node5" class="node">
<title>A4</title>
<path fill="none" stroke="#000000" d="M145.4196,-103C145.4196,-103 50.1594,-103 50.1594,-103 44.1594,-103 38.1594,-97 38.1594,-91 38.1594,-91 38.1594,-79 38.1594,-79 38.1594,-73 44.1594,-67 50.1594,-67 50.1594,-67 145.4196,-67 145.4196,-67 151.4196,-67 157.4196,-73 157.4196,-79 157.4196,-79 157.4196,-91 157.4196,-91 157.4196,-97 151.4196,-103 145.4196,-103"/>
<text text-anchor="middle" x="97.7895" y="-82" font-family="Helvetica,sans-Serif" font-size="10.00" fill="#000000">将PDU传送至上层</text>
</g>
<!-- A2&#45;&gt;A4 -->
<g id="edge4" class="edge">
<title>A2&#45;&gt;A4</title>
<path fill="none" stroke="#000000" d="M106.6301,-234.5668C114.9968,-228.118 125.9365,-217.9535 130.7895,-206 143.4996,-174.6934 128.6761,-136.8818 115.0283,-111.9541"/>
<polygon fill="#000000" stroke="#000000" points="109.915,-103.0715 118.804,-109.4931 112.4095,-107.4049 114.904,-111.7382 114.904,-111.7382 114.904,-111.7382 112.4095,-107.4049 111.004,-113.9832 109.915,-103.0715 109.915,-103.0715"/>
<text text-anchor="middle" x="176.1805" y="-155" font-family="Helvetica,sans-Serif" font-size="10.00" fill="#000000">[RRC未配置包头]</text>
</g>
<!-- A3&#45;&gt;A4 -->
<g id="edge5" class="edge">
<title>A3&#45;&gt;A4</title>
<path fill="none" stroke="#000000" d="M63.1603,-139.9551C68.5233,-131.4441 75.0312,-121.1165 80.951,-111.7219"/>
<polygon fill="#000000" stroke="#000000" points="86.3901,-103.0904 84.866,-113.9498 83.7245,-107.3206 81.0588,-111.5508 81.0588,-111.5508 81.0588,-111.5508 83.7245,-107.3206 77.2517,-109.1517 86.3901,-103.0904 86.3901,-103.0904"/>
</g>
<!-- A5 -->
<g id="node6" class="node">
<title>A5</title>
<ellipse fill="none" stroke="#000000" cx="97.7895" cy="-15" rx="11" ry="11"/>
<ellipse fill="none" stroke="#000000" cx="97.7895" cy="-15" rx="15" ry="15"/>
</g>
<!-- A4&#45;&gt;A5 -->
<g id="edge6" class="edge">
<title>A4&#45;&gt;A5</title>
<path fill="none" stroke="#000000" d="M97.7895,-66.9733C97.7895,-58.9095 97.7895,-49.2597 97.7895,-40.4761"/>
<polygon fill="#000000" stroke="#000000" points="97.7895,-30.3564 102.2896,-40.3563 97.7895,-35.3564 97.7896,-40.3564 97.7896,-40.3564 97.7896,-40.3564 97.7895,-35.3564 93.2896,-40.3564 97.7895,-30.3564 97.7895,-30.3564"/>
</g>
</g>
</svg>
