<?xml version="1.0" encoding="UTF-8" standalone="no"?>
<!DOCTYPE svg PUBLIC "-//W3C//DTD SVG 1.1//EN"
 "http://www.w3.org/Graphics/SVG/1.1/DTD/svg11.dtd">
<!-- Generated by graphviz version 2.40.1 (20161225.0304)
 -->
<!-- Title: G Pages: 1 -->
<svg width="336pt" height="411pt"
 viewBox="0.00 0.00 335.96 411.00" xmlns="http://www.w3.org/2000/svg" xmlns:xlink="http://www.w3.org/1999/xlink">
<g id="graph0" class="graph" transform="scale(1 1) rotate(0) translate(4 407)">
<title>G</title>
<polygon fill="#ffffff" stroke="transparent" points="-4,4 -4,-407 331.9595,-407 331.9595,4 -4,4"/>
<!-- A0 -->
<g id="node1" class="node">
<title>A0</title>
<ellipse fill="none" stroke="#000000" cx="111.1775" cy="-392" rx="11" ry="11"/>
</g>
<!-- A1 -->
<g id="node2" class="node">
<title>A1</title>
<path fill="none" stroke="#000000" d="M138.0067,-344C138.0067,-344 84.3483,-344 84.3483,-344 78.3483,-344 72.3483,-338 72.3483,-332 72.3483,-332 72.3483,-320 72.3483,-320 72.3483,-314 78.3483,-308 84.3483,-308 84.3483,-308 138.0067,-308 138.0067,-308 144.0067,-308 150.0067,-314 150.0067,-320 150.0067,-320 150.0067,-332 150.0067,-332 150.0067,-338 144.0067,-344 138.0067,-344"/>
<text text-anchor="middle" x="111.1775" y="-323" font-family="Helvetica,sans-Serif" font-size="10.00" fill="#000000">{接收SDU}</text>
</g>
<!-- A0&#45;&gt;A1 -->
<g id="edge1" class="edge">
<title>A0&#45;&gt;A1</title>
<path fill="none" stroke="#000000" d="M111.1775,-380.804C111.1775,-373.5358 111.1775,-363.7135 111.1775,-354.3916"/>
<polygon fill="#000000" stroke="#000000" points="111.1775,-344.2423 115.6776,-354.2423 111.1775,-349.2423 111.1776,-354.2423 111.1776,-354.2423 111.1776,-354.2423 111.1775,-349.2423 106.6776,-354.2424 111.1775,-344.2423 111.1775,-344.2423"/>
</g>
<!-- A2 -->
<g id="node3" class="node">
<title>A2</title>
<path fill="none" stroke="#000000" d="M74.5332,-260C74.5332,-260 11.8218,-260 11.8218,-260 5.8218,-260 -.1782,-254 -.1782,-248 -.1782,-248 -.1782,-236 -.1782,-236 -.1782,-230 5.8218,-224 11.8218,-224 11.8218,-224 74.5332,-224 74.5332,-224 80.5332,-224 86.5332,-230 86.5332,-236 86.5332,-236 86.5332,-248 86.5332,-248 86.5332,-254 80.5332,-260 74.5332,-260"/>
<text text-anchor="middle" x="43.1775" y="-239" font-family="Helvetica,sans-Serif" font-size="10.00" fill="#000000">{映射到DRB0}</text>
</g>
<!-- A1&#45;&gt;A2 -->
<g id="edge2" class="edge">
<title>A1&#45;&gt;A2</title>
<path fill="none" stroke="#000000" d="M76.732,-307.9981C69.6027,-302.9693 62.7139,-296.9452 57.5915,-290 53.2888,-284.1661 50.26,-277.0457 48.1317,-270.0939"/>
<polygon fill="#000000" stroke="#000000" points="45.6143,-260.199 52.441,-268.7807 46.8471,-265.0447 48.08,-269.8903 48.08,-269.8903 48.08,-269.8903 46.8471,-265.0447 43.7189,-270.9998 45.6143,-260.199 45.6143,-260.199"/>
<text text-anchor="middle" x="105.9705" y="-281" font-family="Helvetica,sans-Serif" font-size="10.00" fill="#000000">[没有配置映射规则]</text>
</g>
<!-- A3 -->
<g id="node4" class="node">
<title>A3</title>
<path fill="none" stroke="#000000" d="M243.4846,-260C243.4846,-260 116.8704,-260 116.8704,-260 110.8704,-260 104.8704,-254 104.8704,-248 104.8704,-248 104.8704,-236 104.8704,-236 104.8704,-230 110.8704,-224 116.8704,-224 116.8704,-224 243.4846,-224 243.4846,-224 249.4846,-224 255.4846,-230 255.4846,-236 255.4846,-236 255.4846,-248 255.4846,-248 255.4846,-254 249.4846,-260 243.4846,-260"/>
<text text-anchor="middle" x="180.1775" y="-239" font-family="Helvetica,sans-Serif" font-size="10.00" fill="#000000">{根据规则映射到对应的DRB}</text>
</g>
<!-- A1&#45;&gt;A3 -->
<g id="edge3" class="edge">
<title>A1&#45;&gt;A3</title>
<path fill="none" stroke="#000000" d="M135.2104,-307.9044C141.4784,-302.5417 147.9376,-296.3841 153.1775,-290 158.2654,-283.8011 162.9176,-276.5116 166.8735,-269.5116"/>
<polygon fill="#000000" stroke="#000000" points="171.8119,-260.275 171.0653,-271.2155 169.4544,-264.6844 167.0969,-269.0937 167.0969,-269.0937 167.0969,-269.0937 169.4544,-264.6844 163.1285,-266.972 171.8119,-260.275 171.8119,-260.275"/>
<text text-anchor="middle" x="187.579" y="-281" font-family="Helvetica,sans-Serif" font-size="10.00" fill="#000000">[有映射规则]</text>
</g>
<!-- A4 -->
<g id="node5" class="node">
<title>A4</title>
<path fill="none" stroke="#000000" d="M205.8202,-176C205.8202,-176 132.5348,-176 132.5348,-176 126.5348,-176 120.5348,-170 120.5348,-164 120.5348,-164 120.5348,-152 120.5348,-152 120.5348,-146 126.5348,-140 132.5348,-140 132.5348,-140 205.8202,-140 205.8202,-140 211.8202,-140 217.8202,-146 217.8202,-152 217.8202,-152 217.8202,-164 217.8202,-164 217.8202,-170 211.8202,-176 205.8202,-176"/>
<text text-anchor="middle" x="169.1775" y="-155" font-family="Helvetica,sans-Serif" font-size="10.00" fill="#000000">{添加SDAP包头}</text>
</g>
<!-- A2&#45;&gt;A4 -->
<g id="edge5" class="edge">
<title>A2&#45;&gt;A4</title>
<path fill="none" stroke="#000000" d="M54.0289,-223.6437C60.6226,-213.7755 69.8041,-202.0222 80.3955,-194 89.5221,-187.0872 100.1598,-181.2891 110.8359,-176.506"/>
<polygon fill="#000000" stroke="#000000" points="120.1909,-172.5615 112.7249,-180.5933 115.5837,-174.5042 110.9765,-176.4468 110.9765,-176.4468 110.9765,-176.4468 115.5837,-174.5042 109.2282,-172.3003 120.1909,-172.5615 120.1909,-172.5615"/>
<text text-anchor="middle" x="122.5685" y="-197" font-family="Helvetica,sans-Serif" font-size="10.00" fill="#000000">[RRC配置了包头]</text>
</g>
<!-- A5 -->
<g id="node6" class="node">
<title>A5</title>
<path fill="none" stroke="#000000" d="M213.7613,-103C213.7613,-103 124.5937,-103 124.5937,-103 118.5937,-103 112.5937,-97 112.5937,-91 112.5937,-91 112.5937,-79 112.5937,-79 112.5937,-73 118.5937,-67 124.5937,-67 124.5937,-67 213.7613,-67 213.7613,-67 219.7613,-67 225.7613,-73 225.7613,-79 225.7613,-79 225.7613,-91 225.7613,-91 225.7613,-97 219.7613,-103 213.7613,-103"/>
<text text-anchor="middle" x="169.1775" y="-82" font-family="Helvetica,sans-Serif" font-size="10.00" fill="#000000">{传送给PDCP层}</text>
</g>
<!-- A2&#45;&gt;A5 -->
<g id="edge7" class="edge">
<title>A2&#45;&gt;A5</title>
<path fill="none" stroke="#000000" d="M33.4857,-223.7053C23.388,-201.8572 11.2405,-165.1197 28.3955,-140 37.5486,-126.5972 70.7281,-113.305 102.5769,-103.1459"/>
<polygon fill="#000000" stroke="#000000" points="112.3902,-100.0971 104.1756,-107.3615 107.6153,-101.5806 102.8404,-103.0641 102.8404,-103.0641 102.8404,-103.0641 107.6153,-101.5806 101.5053,-98.7667 112.3902,-100.0971 112.3902,-100.0971"/>
<text text-anchor="middle" x="70.5685" y="-155" font-family="Helvetica,sans-Serif" font-size="10.00" fill="#000000">[RRC未配置包头]</text>
</g>
<!-- A3&#45;&gt;A4 -->
<g id="edge4" class="edge">
<title>A3&#45;&gt;A4</title>
<path fill="none" stroke="#000000" d="M172.3023,-223.64C170.2894,-218.0782 168.4088,-211.8824 167.3955,-206 166.3254,-199.7877 166.0426,-193.0588 166.1755,-186.6602"/>
<polygon fill="#000000" stroke="#000000" points="166.7261,-176.353 170.6862,-186.5788 166.4593,-181.3459 166.1926,-186.3388 166.1926,-186.3388 166.1926,-186.3388 166.4593,-181.3459 161.699,-186.0987 166.7261,-176.353 166.7261,-176.353"/>
<text text-anchor="middle" x="209.5685" y="-197" font-family="Helvetica,sans-Serif" font-size="10.00" fill="#000000">[RRC配置了包头]</text>
</g>
<!-- A3&#45;&gt;A5 -->
<g id="edge6" class="edge">
<title>A3&#45;&gt;A5</title>
<path fill="none" stroke="#000000" d="M231.8993,-223.9989C239.1763,-219.2615 245.6929,-213.3492 250.1775,-206 252.9556,-201.4473 251.244,-199.2256 250.1775,-194 244.961,-168.4406 242.0636,-161.4219 227.1775,-140 219.5543,-129.0299 209.4629,-118.5329 199.8375,-109.7044"/>
<polygon fill="#000000" stroke="#000000" points="192.2741,-103.0047 202.7435,-106.267 196.0169,-106.3201 199.7596,-109.6355 199.7596,-109.6355 199.7596,-109.6355 196.0169,-106.3201 196.7758,-113.004 192.2741,-103.0047 192.2741,-103.0047"/>
<text text-anchor="middle" x="286.5685" y="-155" font-family="Helvetica,sans-Serif" font-size="10.00" fill="#000000">[RRC未配置包头]</text>
</g>
<!-- A4&#45;&gt;A5 -->
<g id="edge8" class="edge">
<title>A4&#45;&gt;A5</title>
<path fill="none" stroke="#000000" d="M169.1775,-139.9551C169.1775,-131.8828 169.1775,-122.1764 169.1775,-113.1817"/>
<polygon fill="#000000" stroke="#000000" points="169.1775,-103.0904 173.6776,-113.0903 169.1775,-108.0904 169.1776,-113.0904 169.1776,-113.0904 169.1776,-113.0904 169.1775,-108.0904 164.6776,-113.0904 169.1775,-103.0904 169.1775,-103.0904"/>
</g>
<!-- A6 -->
<g id="node7" class="node">
<title>A6</title>
<ellipse fill="none" stroke="#000000" cx="169.1775" cy="-15" rx="11" ry="11"/>
<ellipse fill="none" stroke="#000000" cx="169.1775" cy="-15" rx="15" ry="15"/>
</g>
<!-- A5&#45;&gt;A6 -->
<g id="edge9" class="edge">
<title>A5&#45;&gt;A6</title>
<path fill="none" stroke="#000000" d="M169.1775,-66.9733C169.1775,-58.9095 169.1775,-49.2597 169.1775,-40.4761"/>
<polygon fill="#000000" stroke="#000000" points="169.1775,-30.3564 173.6776,-40.3563 169.1775,-35.3564 169.1776,-40.3564 169.1776,-40.3564 169.1776,-40.3564 169.1775,-35.3564 164.6776,-40.3564 169.1775,-30.3564 169.1775,-30.3564"/>
</g>
</g>
</svg>
