<svg xmlns="http://www.w3.org/2000/svg" width="516" height="275" xmlns:xlink="http://www.w3.org/1999/xlink" viewBox="0 0 516 275">
    <style type="text/css"><![CDATA[
.st1 {fill:#1f6391;font-family:宋体;font-size:10pt}
.st2 {fill:#7030a0;font-family:宋体;font-size:10pt}
]]></style>
    <defs/>
    <g transform="translate(-37,-63)">
        <g transform="translate(38,172)">
            <path d="M0,37C0,16.6,16.6,0,37,0C57.4,0,74,16.6,74,37C74,57.4,57.4,74,37,74C16.6,74,0,57.4,0,37z" id="shape1" fill="#e8eff8" stroke="#83b3e3"/>
            <path d="M0,29.6C0,13.3,13.3,0,29.6,0C45.9,0,59.2,13.3,59.2,29.6C59.2,45.9,45.9,59.2,29.6,59.2C13.3,59.2,0,45.9,0,29.6z" id="shape2" transform="translate(7.4,7.4)" fill="#e8eff8" stroke="#83b3e3"/>
            <text class="st1">
                <tspan y="32" x="24">节点</tspan>
                <tspan y="51" x="24">开机</tspan>
            </text>
        </g>
        <g id="shape3" transform="translate(184.5,172)">
            <path d="M0,37C-0,16.6,16.6,0,37,0C57.4,-0,74,16.6,74,37C74,57.4,57.4,74,37,74C16.6,74,0,57.4,0,37z" fill="#e8eff8" stroke="#83b3e3"/>
            <text class="st2">
                <tspan y="32" x="24">时间</tspan>
                <tspan y="51" x="24">同步</tspan>
            </text>
        </g>
        <g id="shape4" transform="translate(331,172)">
            <path d="M0,37C-0,16.6,16.6,0,37,0C57.4,-0,74,16.6,74,37C74,57.4,57.4,74,37,74C16.6,74,0,57.4,0,37z" fill="#e8eff8" stroke="#83b3e3"/>
            <text class="st2">
                <tspan y="32" x="24">网络</tspan>
                <tspan y="51" x="24">组建</tspan>
            </text>
        </g>
        <g id="shape5" transform="translate(477.5,172)">
            <path d="M0,37C-0,16.6,16.6,0,37,0C57.4,-0,74,16.6,74,37C74,57.4,57.4,74,37,74C16.6,74,0,57.4,0,37z" fill="#e8eff8" stroke="#83b3e3"/>
            <text class="st2">
                <tspan y="32" x="24">网络</tspan>
                <tspan y="51" x="24">维持</tspan>
            </text>
        </g>
        <g id="shape6" transform="translate(112,209)">
            <path d="M0,0L68.1,0" fill="none" stroke="#236ea1"/>
            <path d="M72.5,0L67.3,-3C67.8,-2.1,68.1,-1.1,68.1,0C68.1,1.1,67.8,2.1,67.3,3L72.5,0" stroke-linecap="round" fill="#236ea1" stroke-width="1" stroke="#236ea1"/>
            <rect width="39.9" y="-9.5" height="19" fill="#ffffff" x="16.9"/>
            <text class="st1">
                <tspan y="4.5" x="16.8">无时统</tspan>
            </text>
        </g>
        <g id="shape7" transform="translate(75,246)">
            <path d="M0,0C149.6,115.2,214,55,289.4,2.5" fill="none" stroke="#236ea1"/>
            <path d="M293,0L287,.5C287.9,.9,288.8,1.6,289.4,2.5C290,3.4,290.4,4.4,290.4,5.4L293,0" stroke-linecap="round" fill="#236ea1" stroke-width="1" stroke="#236ea1"/>
            <text class="st1">
                <tspan y="83.5" x="127">有时统</tspan>
            </text>
        </g>
        <g id="shape8" transform="translate(368,172)">
            <path d="M0,0C107,-121.8,-110.7,-104.4,-3.2,-3" fill="none" stroke="#236ea1"/>
            <path d="M0,0L-1.8,-5.7C-2,-4.7,-2.5,-3.8,-3.2,-3C-4,-2.2,-4.9,-1.6,-5.9,-1.3L0,0" stroke-linecap="round" fill="#236ea1" stroke-width="1" stroke="#236ea1"/>
            <text class="st1">
                <tspan y="-91.5" x="-32.5">未发现邻居</tspan>
            </text>
        </g>
        <g id="shape9" transform="translate(405,209)">
            <path d="M0,0C12.6,-22.5,56.3,-20.4,70.1,-3.7" fill="none" stroke="#236ea1"/>
            <path d="M72.5,0L72.2,-6C71.7,-5.1,71,-4.3,70.1,-3.7C69.2,-3.1,68.2,-2.8,67.1,-2.7L72.5,0" stroke-linecap="round" fill="#236ea1" stroke-width="1" stroke="#236ea1"/>
            <text class="st1">
                <tspan y="-23.5" x="10.3">发现邻居</tspan>
            </text>
        </g>
        <g id="shape10" transform="matrix(-1,0,0,-1,477.5,209)">
            <path d="M0,0C16,-23.6,54.3,-22.3,69.9,-3.6" fill="none" stroke="#236ea1"/>
            <path d="M72.5,0L71.9,-6C71.5,-5,70.8,-4.2,69.9,-3.6C69,-2.9,68,-2.6,67,-2.5L72.5,0" stroke-linecap="round" fill="#236ea1" stroke-width="1" stroke="#236ea1"/>
            <text class="st1" transform="matrix(-1,-0,0,-1,72.5,-58)">
                <tspan y="-24.5" x="10.3">节点脱网</tspan>
            </text>
        </g>
        <g id="shape11" transform="translate(221.5,172)">
            <path d="M0,0C107,-121.8,-110.7,-104.4,-3.2,-3" fill="none" stroke="#236ea1"/>
            <path d="M0,0L-1.8,-5.7C-2,-4.7,-2.5,-3.8,-3.2,-3C-4,-2.2,-4.9,-1.6,-5.9,-1.3L0,0" stroke-linecap="round" fill="#236ea1" stroke-width="1" stroke="#236ea1"/>
            <text class="st1">
                <tspan y="-91.5" x="-38.5">未发现同步源</tspan>
            </text>
        </g>
        <g id="shape12" transform="translate(258.5,209)">
            <path d="M0,0L68.1,0" fill="none" stroke="#236ea1"/>
            <path d="M72.5,0L67.3,-3C67.8,-2.1,68.1,-1.1,68.1,0C68.1,1.1,67.8,2.1,67.3,3L72.5,0" stroke-linecap="round" fill="#236ea1" stroke-width="1" stroke="#236ea1"/>
            <rect width="53.1" y="-9.5" height="19" fill="#ffffff" x="10.4"/>
            <text class="st1">
                <tspan y="4.5" x="10.3">同步完成</tspan>
            </text>
        </g>
    </g>
</svg>
