<?xml version="1.0" encoding="UTF-8" standalone="no"?>
<!DOCTYPE svg PUBLIC "-//W3C//DTD SVG 1.1//EN"
 "http://www.w3.org/Graphics/SVG/1.1/DTD/svg11.dtd">
<!-- Generated by graphviz version 2.40.1 (20161225.0304)
 -->
<!-- Title: G Pages: 1 -->
<svg width="399pt" height="630pt"
 viewBox="0.00 0.00 399.33 630.00" xmlns="http://www.w3.org/2000/svg" xmlns:xlink="http://www.w3.org/1999/xlink">
<g id="graph0" class="graph" transform="scale(1 1) rotate(0) translate(4 626)">
<title>G</title>
<polygon fill="#ffffff" stroke="transparent" points="-4,4 -4,-626 395.327,-626 395.327,4 -4,4"/>
<!-- A0 -->
<g id="node1" class="node">
<title>A0</title>
<ellipse fill="none" stroke="#000000" cx="281.633" cy="-611" rx="11" ry="11"/>
</g>
<!-- A1 -->
<g id="node2" class="node">
<title>A1</title>
<path fill="none" stroke="#000000" d="M309.9203,-563C309.9203,-563 253.3457,-563 253.3457,-563 247.3457,-563 241.3457,-557 241.3457,-551 241.3457,-551 241.3457,-539 241.3457,-539 241.3457,-533 247.3457,-527 253.3457,-527 253.3457,-527 309.9203,-527 309.9203,-527 315.9203,-527 321.9203,-533 321.9203,-539 321.9203,-539 321.9203,-551 321.9203,-551 321.9203,-557 315.9203,-563 309.9203,-563"/>
<text text-anchor="middle" x="281.633" y="-542" font-family="Helvetica,sans-Serif" font-size="10.00" fill="#000000">1.节点开机</text>
</g>
<!-- A0&#45;&gt;A1 -->
<g id="edge1" class="edge">
<title>A0&#45;&gt;A1</title>
<path fill="none" stroke="#000000" d="M281.633,-599.804C281.633,-592.5358 281.633,-582.7135 281.633,-573.3916"/>
<polygon fill="#000000" stroke="#000000" points="281.633,-563.2423 286.1331,-573.2423 281.633,-568.2423 281.6331,-573.2423 281.6331,-573.2423 281.6331,-573.2423 281.633,-568.2423 277.1331,-573.2424 281.633,-563.2423 281.633,-563.2423"/>
</g>
<!-- A2 -->
<g id="node3" class="node">
<title>A2</title>
<path fill="none" stroke="#000000" d="M312.3623,-490C312.3623,-490 250.9037,-490 250.9037,-490 244.9037,-490 238.9037,-484 238.9037,-478 238.9037,-478 238.9037,-466 238.9037,-466 238.9037,-460 244.9037,-454 250.9037,-454 250.9037,-454 312.3623,-454 312.3623,-454 318.3623,-454 324.3623,-460 324.3623,-466 324.3623,-466 324.3623,-478 324.3623,-478 324.3623,-484 318.3623,-490 312.3623,-490"/>
<text text-anchor="middle" x="281.633" y="-469" font-family="Helvetica,sans-Serif" font-size="10.00" fill="#000000">2.确定模式</text>
</g>
<!-- A1&#45;&gt;A2 -->
<g id="edge2" class="edge">
<title>A1&#45;&gt;A2</title>
<path fill="none" stroke="#000000" d="M281.633,-526.9551C281.633,-518.8828 281.633,-509.1764 281.633,-500.1817"/>
<polygon fill="#000000" stroke="#000000" points="281.633,-490.0904 286.1331,-500.0903 281.633,-495.0904 281.6331,-500.0904 281.6331,-500.0904 281.6331,-500.0904 281.633,-495.0904 277.1331,-500.0904 281.633,-490.0904 281.633,-490.0904"/>
</g>
<!-- A3 -->
<g id="node4" class="node">
<title>A3</title>
<polygon fill="none" stroke="#000000" points="232.633,-417 214.633,-399 232.633,-381 250.633,-399 232.633,-417"/>
</g>
<!-- A2&#45;&gt;A3 -->
<g id="edge3" class="edge">
<title>A2&#45;&gt;A3</title>
<path fill="none" stroke="#000000" d="M269.5206,-453.9551C262.2584,-443.1358 253.0256,-429.3808 245.6138,-418.3387"/>
<polygon fill="#000000" stroke="#000000" points="239.8994,-409.8254 249.209,-415.6204 242.686,-413.9769 245.4726,-418.1284 245.4726,-418.1284 245.4726,-418.1284 242.686,-413.9769 241.7363,-420.6364 239.8994,-409.8254 239.8994,-409.8254"/>
</g>
<!-- A4 -->
<g id="node5" class="node">
<title>A4</title>
<path fill="none" stroke="#000000" d="M290.2791,-333C290.2791,-333 174.9869,-333 174.9869,-333 168.9869,-333 162.9869,-327 162.9869,-321 162.9869,-321 162.9869,-309 162.9869,-309 162.9869,-303 168.9869,-297 174.9869,-297 174.9869,-297 290.2791,-297 290.2791,-297 296.2791,-297 302.2791,-303 302.2791,-309 302.2791,-309 302.2791,-321 302.2791,-321 302.2791,-327 296.2791,-333 290.2791,-333"/>
<text text-anchor="middle" x="232.633" y="-312" font-family="Helvetica,sans-Serif" font-size="10.00" fill="#000000">3.按主动模式扫描1轮</text>
</g>
<!-- A3&#45;&gt;A4 -->
<g id="edge4" class="edge">
<title>A3&#45;&gt;A4</title>
<path fill="none" stroke="#000000" d="M232.633,-380.7733C232.633,-369.8758 232.633,-355.7946 232.633,-343.4587"/>
<polygon fill="#000000" stroke="#000000" points="232.633,-333.1912 237.1331,-343.1911 232.633,-338.1912 232.6331,-343.1912 232.6331,-343.1912 232.6331,-343.1912 232.633,-338.1912 228.1331,-343.1912 232.633,-333.1912 232.633,-333.1912"/>
<text text-anchor="middle" x="259.8615" y="-354" font-family="Helvetica,sans-Serif" font-size="10.00" fill="#000000">[主动模式]</text>
</g>
<!-- A5 -->
<g id="node6" class="node">
<title>A5</title>
<path fill="none" stroke="#000000" d="M133.3992,-333C133.3992,-333 11.8668,-333 11.8668,-333 5.8668,-333 -.1332,-327 -.1332,-321 -.1332,-321 -.1332,-309 -.1332,-309 -.1332,-303 5.8668,-297 11.8668,-297 11.8668,-297 133.3992,-297 133.3992,-297 139.3992,-297 145.3992,-303 145.3992,-309 145.3992,-309 145.3992,-321 145.3992,-321 145.3992,-327 139.3992,-333 133.3992,-333"/>
<text text-anchor="middle" x="72.633" y="-312" font-family="Helvetica,sans-Serif" font-size="10.00" fill="#000000">4.按被动模式扫描1轮</text>
</g>
<!-- A3&#45;&gt;A5 -->
<g id="edge5" class="edge">
<title>A3&#45;&gt;A5</title>
<path fill="none" stroke="#000000" d="M220.607,-392.6863C198.7249,-381.1982 151.4054,-356.3555 116.1342,-337.8381"/>
<polygon fill="#000000" stroke="#000000" points="106.9939,-333.0394 117.9396,-333.7035 111.4208,-335.3636 115.8478,-337.6878 115.8478,-337.6878 115.8478,-337.6878 111.4208,-335.3636 113.7561,-341.6721 106.9939,-333.0394 106.9939,-333.0394"/>
<text text-anchor="middle" x="191.9215" y="-354" font-family="Helvetica,sans-Serif" font-size="10.00" fill="#000000">[被动模式]</text>
</g>
<!-- A6 -->
<g id="node7" class="node">
<title>A6</title>
<path fill="none" stroke="#000000" d="M190.74,-176C190.74,-176 134.526,-176 134.526,-176 128.526,-176 122.526,-170 122.526,-164 122.526,-164 122.526,-152 122.526,-152 122.526,-146 128.526,-140 134.526,-140 134.526,-140 190.74,-140 190.74,-140 196.74,-140 202.74,-146 202.74,-152 202.74,-152 202.74,-164 202.74,-164 202.74,-170 196.74,-176 190.74,-176"/>
<text text-anchor="middle" x="162.633" y="-155" font-family="Helvetica,sans-Serif" font-size="10.00" fill="#000000">5.时间同步</text>
</g>
<!-- A4&#45;&gt;A6 -->
<g id="edge7" class="edge">
<title>A4&#45;&gt;A6</title>
<path fill="none" stroke="#000000" d="M237.301,-296.5917C242.5906,-271.3909 248.1496,-225.6723 228.633,-194 224.3963,-187.1246 218.352,-181.4696 211.6214,-176.8469"/>
<polygon fill="#000000" stroke="#000000" points="202.8133,-171.5292 213.7,-172.8453 207.0938,-174.1134 211.3742,-176.6976 211.3742,-176.6976 211.3742,-176.6976 207.0938,-174.1134 209.0484,-180.55 202.8133,-171.5292 202.8133,-171.5292"/>
<text text-anchor="middle" x="281.5565" y="-239" font-family="Helvetica,sans-Serif" font-size="10.00" fill="#000000">[发现有时统邻居]</text>
</g>
<!-- A7 -->
<g id="node8" class="node">
<title>A7</title>
<polygon fill="none" stroke="#000000" points="188.633,-260 170.633,-242 188.633,-224 206.633,-242 188.633,-260"/>
</g>
<!-- A4&#45;&gt;A7 -->
<g id="edge9" class="edge">
<title>A4&#45;&gt;A7</title>
<path fill="none" stroke="#000000" d="M221.7566,-296.9551C215.3793,-286.3746 207.3098,-272.9866 200.7323,-262.0738"/>
<polygon fill="#000000" stroke="#000000" points="195.4161,-253.2537 204.4324,-259.4953 197.9972,-257.536 200.5783,-261.8183 200.5783,-261.8183 200.5783,-261.8183 197.9972,-257.536 196.7243,-264.1413 195.4161,-253.2537 195.4161,-253.2537"/>
</g>
<!-- A5&#45;&gt;A6 -->
<g id="edge6" class="edge">
<title>A5&#45;&gt;A6</title>
<path fill="none" stroke="#000000" d="M70.5277,-296.7228C69.1722,-277.4559 69.5323,-246.7971 81.786,-224 90.906,-207.0329 106.3941,-192.7757 121.3884,-181.9039"/>
<polygon fill="#000000" stroke="#000000" points="129.6241,-176.2165 123.9526,-185.6019 125.5098,-179.0577 121.3955,-181.899 121.3955,-181.899 121.3955,-181.899 125.5098,-179.0577 118.8384,-178.1961 129.6241,-176.2165 129.6241,-176.2165"/>
<text text-anchor="middle" x="122.5565" y="-239" font-family="Helvetica,sans-Serif" font-size="10.00" fill="#000000">[发现有时统邻居]</text>
</g>
<!-- A5&#45;&gt;A7 -->
<g id="edge8" class="edge">
<title>A5&#45;&gt;A7</title>
<path fill="none" stroke="#000000" d="M101.3072,-296.9551C122.3137,-283.7354 150.2849,-266.1329 168.8469,-254.4516"/>
<polygon fill="#000000" stroke="#000000" points="177.3704,-249.0877 171.3036,-258.2225 173.1386,-251.7508 168.9068,-254.4139 168.9068,-254.4139 168.9068,-254.4139 173.1386,-251.7508 166.51,-250.6053 177.3704,-249.0877 177.3704,-249.0877"/>
</g>
<!-- A8 -->
<g id="node9" class="node">
<title>A8</title>
<path fill="none" stroke="#000000" d="M219.4791,-103C219.4791,-103 105.7869,-103 105.7869,-103 99.7869,-103 93.7869,-97 93.7869,-91 93.7869,-91 93.7869,-79 93.7869,-79 93.7869,-73 99.7869,-67 105.7869,-67 105.7869,-67 219.4791,-67 219.4791,-67 225.4791,-67 231.4791,-73 231.4791,-79 231.4791,-79 231.4791,-91 231.4791,-91 231.4791,-97 225.4791,-103 219.4791,-103"/>
<text text-anchor="middle" x="162.633" y="-82" font-family="Helvetica,sans-Serif" font-size="10.00" fill="#000000">6.进入网络组建阶段</text>
</g>
<!-- A6&#45;&gt;A8 -->
<g id="edge12" class="edge">
<title>A6&#45;&gt;A8</title>
<path fill="none" stroke="#000000" d="M162.633,-139.9551C162.633,-131.8828 162.633,-122.1764 162.633,-113.1817"/>
<polygon fill="#000000" stroke="#000000" points="162.633,-103.0904 167.1331,-113.0903 162.633,-108.0904 162.6331,-113.0904 162.6331,-113.0904 162.6331,-113.0904 162.633,-108.0904 158.1331,-113.0904 162.633,-103.0904 162.633,-103.0904"/>
</g>
<!-- A7&#45;&gt;A2 -->
<g id="edge11" class="edge">
<title>A7&#45;&gt;A2</title>
<path fill="none" stroke="#000000" d="M201.8849,-246.9861C232.3399,-258.5742 305.2072,-287.0877 311.633,-297 341.1863,-342.5881 315.8261,-408.3535 297.1574,-444.9043"/>
<polygon fill="#000000" stroke="#000000" points="292.3569,-453.9679 293.0608,-443.0246 294.6972,-449.5494 297.0375,-445.1308 297.0375,-445.1308 297.0375,-445.1308 294.6972,-449.5494 301.0141,-447.2371 292.3569,-453.9679 292.3569,-453.9679"/>
<text text-anchor="middle" x="357.98" y="-354" font-family="Helvetica,sans-Serif" font-size="10.00" fill="#000000">[扫描轮数≤2]</text>
</g>
<!-- A7&#45;&gt;A6 -->
<g id="edge10" class="edge">
<title>A7&#45;&gt;A6</title>
<path fill="none" stroke="#000000" d="M179.7863,-232.7907C173.8852,-225.9868 166.6262,-216.174 163.327,-206 161.3507,-199.9055 160.4987,-193.1428 160.2741,-186.6629"/>
<polygon fill="#000000" stroke="#000000" points="160.4005,-176.1923 164.7794,-186.2459 160.3401,-181.1919 160.2797,-186.1916 160.2797,-186.1916 160.2797,-186.1916 160.3401,-181.1919 155.78,-186.1372 160.4005,-176.1923 160.4005,-176.1923"/>
<text text-anchor="middle" x="195.286" y="-197" font-family="Helvetica,sans-Serif" font-size="10.00" fill="#000000">[扫描轮数&gt;2]</text>
</g>
<!-- A9 -->
<g id="node10" class="node">
<title>A9</title>
<ellipse fill="none" stroke="#000000" cx="162.633" cy="-15" rx="11" ry="11"/>
<ellipse fill="none" stroke="#000000" cx="162.633" cy="-15" rx="15" ry="15"/>
</g>
<!-- A8&#45;&gt;A9 -->
<g id="edge13" class="edge">
<title>A8&#45;&gt;A9</title>
<path fill="none" stroke="#000000" d="M162.633,-66.9733C162.633,-58.9095 162.633,-49.2597 162.633,-40.4761"/>
<polygon fill="#000000" stroke="#000000" points="162.633,-30.3564 167.1331,-40.3563 162.633,-35.3564 162.6331,-40.3564 162.6331,-40.3564 162.6331,-40.3564 162.633,-35.3564 158.1331,-40.3564 162.633,-30.3564 162.633,-30.3564"/>
</g>
</g>
</svg>
